<svg width="945" height="812" viewBox="0 0 945 812" fill="none" xmlns="http://www.w3.org/2000/svg">
<g opacity="0.67">
<path d="M209.055 365.954L190.92 371.999L208.718 360.812C208.573 359.105 208.393 357.384 208.176 355.65L198.6 357.492L207.663 351.882C205.59 338.514 200.975 321.736 194.643 304.611L159.345 318.235L193.076 300.45C184.219 277.441 172.385 254.264 159.542 238.28L140.57 251.671L155.697 233.742C144.01 220.744 131.668 214.127 120.088 219.242C106.019 225.459 101.987 255.602 106.319 291.95L115.821 291.781L106.53 293.64C108.529 309.547 112.109 326.572 117.133 343.267L153.371 331.036L118.772 348.549C126.425 372.41 137.029 395.244 150.176 412.742L164.464 398.455L152.856 416.19C163.926 429.947 176.684 439.921 190.92 443.684C190.92 443.684 211.064 409.831 209.055 365.954Z" fill="#03673D"/>
<path d="M192.996 443.684C192.996 443.684 213.14 409.831 211.131 365.954L192.996 371.999L210.794 360.812C210.648 359.105 210.469 357.384 210.252 355.65L200.676 357.492L209.739 351.882C207.666 338.514 203.051 321.736 196.719 304.613L161.421 318.235L195.152 300.452C186.295 277.441 174.46 254.264 161.618 238.28L142.645 251.673L157.773 233.742C146.086 220.744 133.744 214.127 122.164 219.242C122.164 219.242 174.839 344.815 191.972 443.385C192.314 443.481 192.653 443.593 192.996 443.684Z" fill="#04AD66"/>
<path d="M181.668 471.274L168.248 474.406L180.504 467.766C179.243 464.165 177.738 460.409 175.928 456.484C172.201 448.411 166.869 439.174 160.692 430.242L148.619 439.416L157.124 425.243C138.399 399.862 113.785 379.341 101.684 399.308C96.7099 407.513 96.3817 420.576 99.8164 435.261L127.284 434.297L100.803 439.151C103.545 449.172 107.947 459.79 113.749 470.042L123.019 465.872L115.032 472.261C121.146 482.642 128.694 492.561 137.398 500.998L156.299 480.381L140.011 503.455C151.46 513.883 164.759 521.709 179.342 524.756C179.342 524.756 192.614 506.14 181.668 471.274Z" fill="#10794D"/>
<path d="M178.26 524.506C178.622 524.588 178.981 524.68 179.345 524.755C179.345 524.755 192.618 506.139 181.671 471.275L168.25 474.406L180.507 467.766C179.246 464.165 177.741 460.409 175.93 456.485C172.205 448.412 166.872 439.175 160.695 430.241L148.622 439.417L157.126 425.244C139.477 401.317 116.597 381.727 103.893 396.28C114.068 410.001 156.941 469.438 178.26 524.506Z" fill="#04AD66"/>
<path d="M140.343 509.605C132.851 502.528 119.483 493.84 103.964 485.854C97.2336 495.798 89.7205 507.028 88.4275 509.488C88.2429 509.927 88.1741 510.078 88.2576 509.852C88.2869 509.768 88.346 509.644 88.4275 509.488C89.5157 506.909 94.7831 493.924 99.0504 483.387C89.7404 478.818 79.8291 474.574 70.0519 471.112L64.7303 496.361L67.182 470.117C36.6919 459.774 8.26335 457.54 4.64257 477.567C3.64176 483.102 5.58261 489.252 9.74223 495.689C21.4286 495.005 38.3339 493.908 38.3339 493.908L13.6875 501.07C22.7267 512.208 37.5762 523.914 54.794 534.611L69.585 505.904L57.4948 536.264C75.6299 547.266 96.1025 557.081 115.034 563.944C116.64 556.864 117.814 551.734 117.814 551.734L118.053 565.015C121.697 566.288 125.273 567.442 128.756 568.471L130.322 562.348L131.349 569.216C148.69 574.079 163.435 575.595 171.883 572.069C171.883 572.069 178.601 545.745 140.343 509.605Z" fill="#007248"/>
<path d="M245.356 320.595C263.626 275.59 288.616 266.195 298.828 267.123C315.762 264.896 316.652 294.416 314.98 309.455H289.358L314.98 314.468C314.534 338.531 308.11 364.227 304.954 374.067L273.205 367.94L304.954 378.523C296.933 408.824 284.902 436.823 279.889 447.034L247.583 431.995L278.218 450.376L274.319 457.06L265.407 455.389L273.205 459.288C259.392 487.361 233.658 498.835 222.518 501.063C213.161 489.923 210.45 468.572 210.264 459.288L226.974 455.389H210.264C208.482 439.348 213.977 411.572 216.948 399.689L229.759 405.259L217.505 396.904L219.176 391.334L246.469 399.689L221.404 384.093C224.078 368.497 237 337.862 243.127 324.494L260.394 326.722L245.356 320.595Z" fill="#096B42"/>
<path d="M273.474 460.233C259.372 488.021 233.726 499.807 222.666 502.227C239.256 387.754 283.152 297.958 303.025 267.37C316.712 269.859 317.024 297.094 315.468 310.401L290.064 309.364L315.468 314.03C313.809 341.404 308.556 365.875 306.136 374.689L271.919 367.43L304.581 378.318C296.7 412.328 284.707 438.458 279.695 447.271L248.07 431.718L278.658 450.382L274.511 457.64L265.697 455.567L273.474 460.233Z" fill="#0EA867"/>
<path fill-rule="evenodd" clip-rule="evenodd" d="M205.606 662.193C205.606 662.195 205.606 662.196 204.941 662.151L205.606 662.196C205.583 662.547 205.291 662.819 204.939 662.818C204.587 662.817 204.297 662.542 204.276 662.191C201.708 619.115 184.724 586.149 162.662 561.094C140.941 537.505 115.316 520.137 90.0273 507.374C90.0556 507.328 90.0846 507.281 90.1142 507.234C73.3421 498.894 58.9325 493.651 50.6014 490.62L50.6003 490.619C48.6941 489.926 47.1062 489.348 45.8811 488.875C30.7491 483.856 16.8397 480.367 5.33 477.964C5.34318 477.86 5.35298 477.755 5.36279 477.65C5.37861 477.48 5.39445 477.31 5.42451 477.143C9.01269 457.832 37.3095 460.012 67.6635 470.014L65.3036 494.74C65.3252 494.748 65.3468 494.757 65.3685 494.766L70.5208 470.975C80.255 474.324 90.1234 478.426 99.3955 482.839C95.9493 491.096 91.8525 500.901 89.8592 505.621C90.1824 505.781 90.5064 505.941 90.8314 506.103C93.6641 501.697 99.5563 493.091 104.953 485.282C120.6 493.168 134.078 501.744 141.632 508.729C180.208 544.398 173.454 570.355 173.454 570.355C173.08 570.508 172.689 570.649 172.287 570.779C188.626 592.429 201.004 619.249 204.762 652.325C204.997 646.493 205.255 638.212 205.376 627.913C205.628 606.413 205.284 576.12 202.901 540.953C198.132 470.609 185.203 380.811 152.582 302.882C152.44 302.543 152.6 302.152 152.94 302.01C153.279 301.868 153.67 302.028 153.812 302.367C186.515 380.492 199.458 470.457 204.231 540.863C206.617 576.071 206.962 606.4 206.709 627.928C206.583 638.692 206.307 647.257 206.063 653.131C205.941 656.069 205.827 658.333 205.743 659.865C205.701 660.63 205.667 661.212 205.643 661.604C205.636 661.735 205.629 661.844 205.623 661.932L205.616 662.046L205.609 662.158L205.607 662.186L205.606 662.193Z" fill="#128E5A"/>
<path d="M131.549 435.15C131.549 435.15 204.94 537.556 204.94 662.151C216.035 444.538 272.437 325.955 272.437 325.955" stroke="#014D2D" stroke-miterlimit="10" stroke-linecap="round" stroke-linejoin="round"/>
<path d="M228.91 627.692H170.044C170.044 627.692 154.195 753.176 205.137 767.741C256.078 782.306 228.91 627.692 228.91 627.692Z" fill="#F52D29"/>
<path d="M239.259 627.692H184.067C184.067 627.692 171.579 753.176 211.716 767.741C275.55 774.931 239.259 627.692 239.259 627.692Z" fill="#F80700"/>
</g>
<g opacity="0.76">
<path d="M251.782 40.1785H232.743V115.1H251.782V40.1785Z" fill="#FF1F55"/>
<path d="M274.347 40.1785H255.309V115.1H274.347V40.1785Z" fill="#FFC702"/>
<path d="M288.418 41.5193L272.292 51.6431L312.17 115.101L328.297 104.978L288.418 41.5193Z" fill="#3D99EE"/>
<path d="M436.976 131.616H231.524C227.142 131.616 222.939 129.876 219.84 126.778C216.741 123.681 215 119.48 215 115.1H453.498C453.498 119.48 451.758 123.68 448.659 126.778C445.561 129.875 441.358 131.615 436.976 131.616Z" fill="#6F2A1A"/>
<path d="M440.884 42.9529H349.925V115.099H440.884V42.9529Z" fill="#BDD8F5"/>
<path d="M434.804 50.0396H356.012V107.998H434.804V50.0396Z" fill="#FB4C47"/>
<path d="M395.407 97.6165C405.679 97.6165 414.006 89.2934 414.006 79.0263C414.006 68.7592 405.679 60.436 395.407 60.436C385.134 60.436 376.807 68.7592 376.807 79.0263C376.807 89.2934 385.134 97.6165 395.407 97.6165Z" fill="#FFC700"/>
<path d="M417.856 107.998H356.012V80.2463C366.688 79.8422 382.457 81.14 397.356 89.7005C405.385 94.3123 412.367 100.544 417.856 107.998Z" fill="#1DB776"/>
<path d="M434.801 69.8809V107.999H385.217C388.394 101.367 392.478 95.2086 397.353 89.7012C405.817 80.1872 417.893 71.9911 434.801 69.8809Z" fill="#11915B"/>
<path d="M263.235 145.954H248.409L250.457 115.099H261.187L263.235 145.954Z" fill="#592A3C"/>
<path d="M420.094 145.954H405.268L407.316 115.099H418.046L420.094 145.954Z" fill="#592A3C"/>
<path d="M731.914 98.9117H520.482V0.000244141H731.914V98.9117ZM529.548 89.8525H722.85V9.06189H529.545L529.548 89.8525Z" fill="#925C50"/>
<path d="M722.85 9.06201H529.546V89.8526H722.85V9.06201Z" fill="white"/>
<path d="M572.531 68.8182C588.82 65.0038 598.931 48.7135 595.114 32.4327C591.298 16.152 574.999 6.04606 558.71 9.86048C542.421 13.6749 532.31 29.9652 536.127 46.246C539.943 62.5267 556.242 72.6327 572.531 68.8182Z" fill="#FFC700"/>
<path d="M529.546 64.3461L587.01 38.697C591.588 36.6531 596.637 35.8977 601.614 36.512C606.59 37.1264 611.303 39.0873 615.246 42.1831L675.975 89.8518H529.548L529.546 64.3461Z" fill="#11915B"/>
<path d="M629.877 53.6689L673.161 39.3659C677.79 37.8363 682.742 37.5623 687.511 38.5718C692.28 39.5812 696.696 41.838 700.306 45.1115L722.849 65.5485V89.8575H675.973L629.877 53.6689Z" fill="#1DB776"/>
</g>
<path opacity="0.89" d="M416.971 238.419C415.001 238.362 413.298 239.881 412.816 241.969C409.758 242.208 406.268 242.289 402.439 242.046C400.298 241.908 398.273 241.685 396.374 241.408C396.384 241.042 396.391 240.673 396.391 240.304C396.391 238.508 396.265 236.743 396.02 235.016C396.985 234.273 398.195 233.493 399.656 232.823C402.194 231.654 404.573 231.239 406.401 231.119C407.301 233.17 409.36 234.361 411.341 233.843C413.567 233.258 414.837 230.731 414.182 228.196C413.526 225.662 411.192 224.077 408.966 224.662C406.938 225.196 405.701 227.343 405.993 229.639C404.389 230.554 402.007 231.546 399.058 231.62C397.597 231.658 396.323 231.462 395.29 231.208C394.634 228.527 393.689 225.958 392.49 223.535C393.761 222.381 395.263 221.158 397.023 219.977C399.571 218.262 402.028 217.035 404.185 216.154C405.592 217.808 407.838 218.358 409.567 217.35C411.555 216.196 412.119 213.415 410.821 211.147C409.52 208.877 406.846 207.977 404.858 209.135C403.125 210.139 402.48 212.37 403.193 214.423C401.341 215.87 399.061 217.396 396.326 218.758C394.464 219.689 392.684 220.396 391.073 220.935C389.758 218.715 388.212 216.646 386.483 214.758C387.149 212.327 388.273 209.488 390.19 206.643C391.987 203.981 393.988 202.039 395.687 200.673C397.556 201.839 399.907 201.658 401.246 200.123C402.768 198.385 402.418 195.573 400.465 193.842C398.514 192.108 395.697 192.112 394.182 193.85C392.837 195.385 392.949 197.75 394.338 199.477C393.241 201.3 391.583 203.562 389.143 205.715C386.455 208.093 383.751 209.516 381.695 210.362C379.357 208.558 376.806 207.027 374.077 205.816C374.475 204.712 374.998 203.6 375.684 202.508C376.235 201.643 376.826 200.881 377.427 200.216C379.507 201.066 381.828 200.454 382.874 198.673C384.053 196.685 383.193 193.985 380.954 192.646C378.719 191.308 375.953 191.835 374.777 193.827C373.747 195.577 374.291 197.877 375.953 199.315C375.606 200.238 375.185 201.197 374.685 202.173C374.114 203.296 373.489 204.331 372.833 205.289C372.558 205.177 372.28 205.069 372.004 204.97C368.753 203.747 365.294 202.974 361.689 202.712C361.097 201.104 360.581 199.323 360.221 197.366C359.483 193.373 359.619 189.897 359.959 187.287C362.079 186.878 363.67 185.202 363.67 183.192C363.67 180.877 361.559 179 358.957 179C356.357 179 354.247 180.877 354.247 183.192C354.247 185.236 355.895 186.936 358.066 187.308C358.539 189.879 358.848 193.48 358.117 197.654C357.795 199.491 357.319 201.166 356.762 202.681C353.306 202.878 349.98 203.55 346.837 204.632C346.398 203.933 346.008 203.2 345.658 202.334C344.961 200.62 344.659 199.013 344.54 197.675C346.572 196.61 347.622 194.374 346.901 192.396C346.116 190.221 343.493 189.187 341.05 190.086C338.607 190.985 337.265 193.476 338.053 195.651C338.733 197.528 340.778 198.552 342.899 198.221C343.517 199.501 344.108 200.978 344.577 202.654C344.822 203.542 345.009 204.41 345.151 205.26C342.301 206.397 339.623 207.881 337.166 209.656C335.872 208.714 334.55 207.621 333.245 206.34C330.238 203.391 328.23 200.366 326.912 197.943C328.373 196.316 328.628 193.987 327.404 192.382C326.001 190.547 323.195 190.353 321.132 191.95C319.07 193.546 318.533 196.329 319.936 198.164C321.173 199.787 323.511 200.124 325.457 199.079C327.364 200.796 329.834 203.505 331.75 207.398C332.624 209.178 333.235 210.91 333.66 212.525C333.266 212.89 332.872 213.266 332.491 213.65C330.568 215.587 328.855 217.732 327.384 220.054C326.518 219.802 325.621 219.499 324.703 219.126C321.71 217.914 319.392 216.37 317.714 215.024C318.427 212.931 317.734 210.672 315.957 209.693C313.942 208.58 311.295 209.54 310.045 211.837C308.795 214.135 309.413 216.9 311.431 218.012C313.205 218.991 315.461 218.365 316.834 216.639C318.872 217.349 321.407 218.488 324.03 220.357C324.812 220.916 325.532 221.49 326.198 222.068C324.122 225.832 322.675 229.992 321.985 234.409C320.191 234.564 318.257 234.637 316.185 234.573C313.225 234.481 310.551 234.132 308.217 233.677C308.163 231.367 306.627 229.433 304.544 229.213C302.26 228.972 300.184 230.888 299.916 233.494C299.641 236.099 301.278 238.407 303.562 238.649C305.597 238.864 307.459 237.368 308.037 235.2C310.436 235.249 313.127 235.465 316.042 235.97C318.057 236.319 319.929 236.765 321.652 237.261C321.57 238.264 321.53 239.278 321.53 240.304C321.53 242.741 321.757 245.124 322.199 247.433C320.218 248.754 317.479 250.253 314 251.306C310.949 252.229 308.2 252.543 306.012 252.61C305.227 250.556 303.273 249.275 301.292 249.66C299.036 250.099 297.602 252.54 298.098 255.112C298.591 257.685 300.82 259.414 303.079 258.975C305.03 258.596 306.358 256.72 306.365 254.556C308.608 253.822 311.251 253.134 314.262 252.684C317.724 252.169 320.826 252.096 323.436 252.21C324.486 255.397 325.954 258.392 327.765 261.134C326.912 261.815 325.954 262.488 324.887 263.117C322.831 264.321 320.86 265.071 319.151 265.555C317.989 263.694 315.828 262.821 313.963 263.581C311.832 264.45 310.891 267.123 311.873 269.55C312.485 271.073 313.708 272.142 315.06 272.508C315.859 272.727 316.705 272.7 317.496 272.377C317.734 272.281 317.955 272.162 318.159 272.019C319.719 270.981 320.378 268.83 319.719 266.778C321.336 265.937 323.225 265.105 325.407 264.419C326.803 263.978 328.138 263.658 329.396 263.418C330.541 264.909 331.798 266.309 333.15 267.601C333.279 267.723 333.405 267.846 333.534 267.962C332.62 270.016 331.244 272.512 329.168 275.043C327.136 277.519 325.023 279.323 323.246 280.596C321.462 279.323 319.127 279.35 317.69 280.777C316.056 282.404 316.212 285.235 318.043 287.1C319.868 288.962 322.681 289.154 324.316 287.527C325.733 286.116 325.804 283.793 324.594 281.988C325.994 280.154 327.819 278.085 330.15 276.042C332.651 273.85 335.121 272.227 337.272 271.031C340.119 273.069 343.266 274.719 346.626 275.9C346.49 277.173 346.262 278.546 345.892 279.988C345.087 283.131 343.874 285.65 342.773 287.504C340.619 287.069 338.488 288.061 337.758 289.961C336.929 292.119 338.223 294.635 340.649 295.581C343.075 296.528 345.715 295.543 346.544 293.381C347.268 291.504 346.381 289.358 344.543 288.212C345.063 285.977 345.882 283.335 347.187 280.497C347.825 279.112 348.505 277.85 349.202 276.7C351.787 277.404 354.485 277.835 357.265 277.954C357.72 280.146 358.087 282.6 358.264 285.281C358.529 289.269 358.315 292.8 357.937 295.716C355.824 296.129 354.247 297.805 354.247 299.808C354.247 302.122 356.357 304 358.96 304C361.563 304 363.67 302.122 363.67 299.808C363.67 297.812 362.1 296.139 360 295.719C359.646 292.738 359.453 289.216 359.653 285.281C359.793 282.627 360.092 280.177 360.472 277.962C363.377 277.85 366.197 277.4 368.892 276.65C369.123 277.05 369.354 277.465 369.572 277.892C371.033 280.712 371.821 283.354 372.249 285.47C370.373 286.565 369.422 288.696 370.091 290.596C370.866 292.777 373.476 293.831 375.932 292.954C378.382 292.073 379.741 289.592 378.97 287.411C378.287 285.477 376.15 284.431 373.965 284.831C372.963 283.096 371.797 280.477 371.393 277.123C371.342 276.708 371.304 276.3 371.281 275.9C374.284 274.854 377.108 273.427 379.704 271.681C381.382 273.054 383.149 274.693 384.906 276.639C387.604 279.631 389.564 282.581 390.981 285.088C389.544 286.712 389.293 289.023 390.512 290.619C391.916 292.454 394.719 292.646 396.785 291.05C398.847 289.454 399.388 286.673 397.984 284.834C396.771 283.25 394.508 282.889 392.585 283.854C390.516 281.742 388.222 279.069 386.01 275.785C384.58 273.662 383.401 271.6 382.426 269.666C383.472 268.816 384.474 267.912 385.422 266.954C386.982 265.385 388.406 263.681 389.663 261.858C391.987 262.512 394.675 263.469 397.522 264.908C400.268 266.289 402.554 267.808 404.399 269.223C403.699 271.277 404.365 273.5 406.095 274.492C408.093 275.643 410.753 274.727 412.048 272.454C413.339 270.177 412.765 267.404 410.767 266.254C409.02 265.25 406.764 265.823 405.361 267.508C403.302 266.719 400.804 265.523 398.215 263.689C395.524 261.785 393.496 259.743 392.021 257.981C393.017 256.104 393.856 254.131 394.525 252.077C395.643 252.116 396.819 252.216 398.045 252.4C401.188 252.877 403.808 253.774 405.823 254.666C405.65 256.858 406.88 258.866 408.834 259.369C411.056 259.946 413.39 258.358 414.039 255.819C414.685 253.281 413.404 250.758 411.181 250.181C409.217 249.673 407.175 250.843 406.275 252.862C404.131 252.685 401.392 252.212 398.395 251.042C397.254 250.597 396.204 250.1 395.246 249.581C395.725 247.677 396.061 245.719 396.234 243.712C398.171 243.554 400.234 243.454 402.398 243.45C406.227 243.439 409.7 243.715 412.751 244.123C413.118 246.235 414.732 247.843 416.703 247.904C419 247.969 420.926 245.9 420.998 243.281C421.073 240.662 419.272 238.485 416.971 238.419Z" fill="#FA5752" fill-opacity="0.82"/>
<path d="M934.299 62.6161C932.488 62.562 930.924 63.984 930.481 65.9388C927.672 66.1621 924.466 66.2376 920.948 66.0109C918.981 65.8815 917.121 65.6724 915.376 65.4133C915.385 65.0712 915.391 64.7257 915.391 64.3801C915.391 62.6987 915.276 61.0465 915.051 59.4302C915.938 58.7355 917.049 58.0047 918.391 57.3779C920.723 56.2839 922.908 55.8948 924.588 55.7833C925.415 57.7023 927.306 58.8178 929.126 58.3323C931.171 57.785 932.339 55.4198 931.736 53.0473C931.134 50.6752 928.989 49.1917 926.944 49.739C925.081 50.2393 923.945 52.2483 924.213 54.3972C922.74 55.2543 920.551 56.183 917.842 56.2516C916.5 56.2874 915.329 56.1036 914.38 55.866C913.778 53.357 912.91 50.9519 911.808 48.6841C912.975 47.6042 914.355 46.4592 915.972 45.354C918.313 43.7485 920.57 42.6001 922.552 41.776C923.845 43.3235 925.908 43.8385 927.497 42.895C929.323 41.8154 929.841 39.2123 928.649 37.0887C927.453 34.9644 924.997 34.1221 923.17 35.2055C921.578 36.1452 920.985 38.2336 921.641 40.1558C919.94 41.5096 917.845 42.9386 915.332 44.2132C913.621 45.0843 911.986 45.7466 910.506 46.2504C909.298 44.1732 907.878 42.2366 906.289 40.4691C906.901 38.1939 907.934 35.5367 909.695 32.8731C911.346 30.3818 913.184 28.5639 914.745 27.2855C916.462 28.3766 918.622 28.2072 919.852 26.7708C921.251 25.1439 920.929 22.5123 919.134 20.8921C917.342 19.2687 914.755 19.2722 913.362 20.8991C912.126 22.3358 912.229 24.5498 913.506 26.1661C912.498 27.8725 910.974 29.9891 908.733 32.0052C906.264 34.2303 903.779 35.5623 901.891 36.3543C899.743 34.6656 897.399 33.2327 894.892 32.099C895.257 31.0658 895.738 30.0253 896.368 29.003C896.874 28.1931 897.417 27.4799 897.97 26.8576C899.88 27.6531 902.012 27.0802 902.974 25.4135C904.057 23.5525 903.267 21.0253 901.21 19.7724C899.156 18.5196 896.615 19.0128 895.535 20.8777C894.589 22.5158 895.089 24.6683 896.615 26.0147C896.297 26.8787 895.91 27.7755 895.451 28.6895C894.926 29.7409 894.352 30.7094 893.749 31.6058C893.497 31.5014 893.241 31.4005 892.988 31.3073C890 30.1624 886.823 29.4389 883.511 29.1936C882.967 27.689 882.493 26.0214 882.162 24.1898C881.485 20.4524 881.61 17.1994 881.922 14.7565C883.87 14.3738 885.331 12.8042 885.331 10.9236C885.331 8.75671 883.392 6.99976 881.001 6.99976C878.613 6.99976 876.674 8.75671 876.674 10.9236C876.674 12.8368 878.188 14.4279 880.183 14.7754C880.617 17.1825 880.901 20.5529 880.23 24.4595C879.933 26.1793 879.496 27.7466 878.984 29.1651C875.81 29.3489 872.754 29.9779 869.866 30.9915C869.464 30.3372 869.105 29.6503 868.783 28.84C868.143 27.2358 867.865 25.7312 867.756 24.4793C869.623 23.482 870.587 21.3898 869.925 19.5387C869.204 17.5027 866.795 16.5346 864.55 17.3759C862.306 18.2172 861.073 20.5494 861.797 22.585C862.421 24.3419 864.3 25.3005 866.248 24.9905C866.816 26.1886 867.36 27.5705 867.79 29.1398C868.015 29.9712 868.187 30.7837 868.318 31.5786C865.699 32.6434 863.239 34.0318 860.982 35.6933C859.793 34.8123 858.579 33.789 857.38 32.5896C854.617 29.8293 852.772 26.9982 851.561 24.7301C852.903 23.2073 853.138 21.0275 852.014 19.5255C850.725 17.8073 848.146 17.6257 846.251 19.1204C844.357 20.6147 843.863 23.2194 845.153 24.9373C846.289 26.456 848.437 26.7718 850.225 25.7937C851.976 27.4004 854.246 29.9359 856.006 33.5799C856.809 35.2465 857.37 36.8674 857.761 38.379C857.399 38.7204 857.036 39.0727 856.687 39.432C854.92 41.2454 853.347 43.2531 851.995 45.4261C851.199 45.1903 850.375 44.9063 849.532 44.5575C846.782 43.4231 844.653 41.9775 843.111 40.7179C843.767 38.7585 843.13 36.6442 841.497 35.7279C839.646 34.6864 837.214 35.585 836.066 37.7353C834.917 39.8858 835.485 42.4736 837.339 43.5147C838.969 44.431 841.041 43.8456 842.303 42.2298C844.176 42.8941 846.504 43.9599 848.914 45.7098C849.632 46.2325 850.294 46.7702 850.906 47.3111C848.998 50.8343 847.669 54.7284 847.035 58.8626C845.387 59.0074 843.611 59.0759 841.706 59.016C838.987 58.9299 836.531 58.6029 834.386 58.1773C834.336 56.0152 832.925 54.2051 831.012 53.9991C828.914 53.773 827.007 55.5665 826.76 58.0056C826.507 60.4441 828.012 62.6046 830.11 62.8307C831.979 63.0318 833.69 61.632 834.221 59.6031C836.425 59.6489 838.897 59.8507 841.575 60.3234C843.426 60.6504 845.146 61.068 846.729 61.5314C846.654 62.4704 846.617 63.42 846.617 64.3801C846.617 66.6607 846.826 68.8913 847.232 71.0531C845.412 72.2896 842.896 73.6927 839.699 74.6775C836.896 75.5416 834.371 75.8356 832.36 75.8987C831.639 73.9761 829.844 72.7771 828.024 73.1371C825.952 73.5483 824.634 75.8327 825.09 78.2404C825.543 80.6485 827.591 82.2671 829.666 81.8558C831.458 81.501 832.679 79.745 832.685 77.7203C834.745 77.033 837.174 76.3887 839.94 75.9682C843.12 75.4862 845.97 75.4173 848.368 75.5243C849.332 78.5075 850.681 81.3108 852.345 83.8767C851.561 84.5143 850.681 85.1443 849.701 85.7329C847.812 86.8603 846.002 87.5616 844.432 88.0148C843.364 86.2735 841.379 85.4556 839.665 86.1672C837.708 86.981 836.843 89.4829 837.745 91.7545C838.307 93.18 839.431 94.1808 840.673 94.5229C841.407 94.7281 842.184 94.7028 842.911 94.4002C843.13 94.3105 843.333 94.1988 843.52 94.0655C844.953 93.0942 845.558 91.0807 844.953 89.1594C846.439 88.3729 848.174 87.594 850.178 86.9515C851.461 86.5394 852.688 86.2389 853.843 86.0148C854.895 87.4108 856.05 88.7203 857.292 89.9297C857.411 90.0443 857.527 90.1596 857.645 90.2675C856.805 92.1901 855.541 94.5264 853.634 96.8954C851.767 99.2134 849.826 100.902 848.193 102.094C846.554 100.902 844.41 100.927 843.089 102.263C841.588 103.786 841.731 106.435 843.414 108.181C845.09 109.924 847.675 110.104 849.176 108.581C850.478 107.26 850.544 105.085 849.432 103.397C850.718 101.68 852.395 99.7428 854.536 97.8312C856.834 95.7792 859.103 94.2599 861.079 93.1406C863.695 95.0484 866.585 96.5927 869.673 97.6982C869.548 98.8896 869.339 100.175 868.998 101.525C868.259 104.466 867.144 106.824 866.133 108.559C864.154 108.153 862.196 109.081 861.525 110.859C860.764 112.879 861.953 115.234 864.182 116.119C866.411 117.006 868.836 116.084 869.598 114.06C870.263 112.303 869.448 110.294 867.759 109.222C868.237 107.13 868.989 104.657 870.188 102C870.775 100.704 871.399 99.5234 872.039 98.4467C874.414 99.1055 876.893 99.509 879.446 99.6205C879.865 101.672 880.202 103.969 880.364 106.479C880.608 110.212 880.411 113.516 880.064 116.246C878.123 116.632 876.674 118.201 876.674 120.076C876.674 122.242 878.613 124 881.004 124C883.395 124 885.331 122.242 885.331 120.076C885.331 118.208 883.888 116.641 881.959 116.249C881.635 113.459 881.457 110.161 881.641 106.479C881.769 103.994 882.044 101.702 882.393 99.6278C885.062 99.5234 887.653 99.102 890.128 98.4003C890.341 98.7743 890.553 99.1631 890.753 99.5628C892.095 102.202 892.819 104.675 893.213 106.655C891.489 107.681 890.615 109.675 891.23 111.453C891.942 113.495 894.339 114.482 896.596 113.66C898.847 112.836 900.096 110.514 899.387 108.472C898.76 106.662 896.796 105.683 894.789 106.057C893.868 104.434 892.797 101.982 892.426 98.8425C892.379 98.4541 892.345 98.0723 892.323 97.6982C895.082 96.7189 897.676 95.3834 900.061 93.7488C901.603 95.034 903.227 96.5677 904.84 98.3894C907.319 101.19 909.12 103.951 910.422 106.298C909.101 107.818 908.87 109.981 909.991 111.475C911.28 113.192 913.856 113.373 915.754 111.878C917.648 110.384 918.145 107.782 916.855 106.061C915.741 104.578 913.662 104.239 911.895 105.143C909.994 103.166 907.887 100.665 905.855 97.59C904.541 95.6028 903.458 93.6735 902.562 91.8624C903.523 91.0669 904.444 90.2208 905.315 89.3247C906.748 87.8556 908.056 86.2607 909.211 84.5547C911.346 85.1664 913.815 86.0628 916.431 87.4092C918.953 88.7018 921.054 90.1234 922.749 91.4483C922.106 93.3709 922.718 95.4516 924.307 96.3804C926.142 97.4571 928.586 96.6001 929.776 94.4726C930.962 92.3416 930.434 89.7455 928.599 88.6694C926.994 87.7298 924.922 88.2662 923.632 89.8429C921.741 89.1047 919.446 87.9853 917.068 86.2681C914.595 84.4862 912.732 82.5745 911.377 80.9255C912.292 79.1689 913.063 77.3222 913.678 75.3997C914.705 75.4359 915.785 75.5294 916.912 75.702C919.799 76.1488 922.206 76.9875 924.057 77.8228C923.898 79.8744 925.028 81.7537 926.823 82.2251C928.864 82.7651 931.009 81.2784 931.605 78.9024C932.198 76.5264 931.021 74.1651 928.98 73.6251C927.175 73.1495 925.299 74.2445 924.472 76.134C922.502 75.9685 919.986 75.5259 917.233 74.4312C916.184 74.0139 915.22 73.5492 914.339 73.0634C914.78 71.2814 915.089 69.4486 915.248 67.5699C917.027 67.4223 918.922 67.3288 920.91 67.3249C924.428 67.314 927.619 67.5731 930.422 67.9549C930.759 69.9315 932.242 71.4361 934.052 71.4938C936.162 71.555 937.932 69.618 937.998 67.1664C938.067 64.7148 936.412 62.6773 934.299 62.6161Z" fill="#FA5752" fill-opacity="0.75"/>
<path d="M1056.66 417.493C1052.56 417.371 1049.03 420.58 1048.03 424.991C1041.69 425.494 1034.45 425.665 1026.51 425.153C1022.09 424.86 1017.88 424.389 1013.95 423.805C1013.97 423.033 1013.98 422.253 1013.98 421.474C1013.98 417.681 1013.71 413.952 1013.21 410.304C1015.21 408.736 1017.72 407.087 1020.76 405.674C1026.02 403.205 1030.94 402.328 1034.74 402.076C1036.6 406.405 1040.88 408.924 1044.97 407.827C1049.59 406.593 1052.23 401.255 1050.86 395.902C1049.5 390.549 1044.67 387.202 1040.05 388.436C1035.85 389.566 1033.28 394.098 1033.89 398.948C1030.57 400.882 1025.62 402.977 1019.5 403.131C1016.49 403.213 1013.84 402.798 1011.7 402.263C1010.34 396.6 1008.39 391.174 1005.89 386.057C1008.53 383.62 1011.64 381.037 1015.29 378.542C1020.57 374.92 1025.67 372.329 1030.14 370.468C1033.06 373.962 1037.71 375.124 1041.3 372.996C1045.43 370.557 1046.58 364.684 1043.89 359.892C1041.2 355.1 1035.66 353.199 1031.54 355.644C1027.95 357.764 1026.6 362.475 1028.08 366.813C1024.24 369.867 1019.52 373.092 1013.84 375.968C1009.99 377.934 1006.3 379.428 1002.95 380.565C1000.22 375.879 997.032 371.508 993.439 367.519C994.821 362.386 997.151 356.391 1001.13 350.38C1004.86 344.759 1009 340.657 1012.51 337.773C1016.39 340.234 1021.27 339.852 1024.05 336.611C1027.2 332.94 1026.48 327.002 1022.42 323.347C1018.38 319.684 1012.55 319.69 1009.4 323.363C1006.62 326.604 1006.84 331.6 1009.73 335.246C1007.45 339.097 1004.01 343.873 998.959 348.423C993.384 353.442 987.788 356.448 983.519 358.235C978.663 354.425 973.372 351.192 967.721 348.634C968.537 346.302 969.626 343.955 971.052 341.648C972.196 339.82 973.426 338.212 974.667 336.806C978.968 338.601 983.792 337.31 985.958 333.549C988.397 329.35 986.612 323.646 981.973 320.821C977.335 317.994 971.608 319.106 969.169 323.314C967.035 327.011 968.156 331.867 971.608 334.905C970.889 336.856 970.018 338.878 968.973 340.94C967.786 343.313 966.501 345.499 965.14 347.52C964.563 347.285 963.997 347.058 963.42 346.847C956.691 344.263 949.516 342.631 942.036 342.078C940.805 338.683 939.738 334.92 938.987 330.787C937.462 322.354 937.746 315.015 938.453 309.502C942.852 308.638 946.14 305.097 946.14 300.854C946.14 295.964 941.774 292 936.385 292C930.984 292 926.607 295.964 926.607 300.854C926.607 305.17 930.015 308.76 934.523 309.544C935.503 314.977 936.145 322.581 934.643 331.396C933.967 335.276 932.977 338.812 931.822 342.014C924.647 342.428 917.755 343.848 911.244 346.135C910.34 344.659 909.524 343.108 908.794 341.28C907.357 337.659 906.736 334.265 906.486 331.441C910.699 329.19 912.866 324.468 911.385 320.292C909.752 315.699 904.319 313.513 899.245 315.412C894.182 317.311 891.395 322.573 893.039 327.167C894.454 331.13 898.69 333.294 903.078 332.593C904.363 335.297 905.593 338.415 906.551 341.957C907.074 343.832 907.455 345.666 907.749 347.46C901.837 349.862 896.294 352.996 891.199 356.745C888.52 354.756 885.776 352.447 883.065 349.742C876.826 343.513 872.667 337.124 869.934 332.007C872.961 328.571 873.495 323.652 870.958 320.263C868.051 316.385 862.225 315.976 857.946 319.348C853.678 322.722 852.568 328.598 855.464 332.475C858.044 335.901 862.879 336.613 866.929 334.406C870.871 338.033 875.999 343.753 879.962 351.976C881.781 355.737 883.044 359.393 883.936 362.804C883.12 363.574 882.292 364.369 881.497 365.18C877.523 369.272 873.963 373.802 870.914 378.704C869.118 378.174 867.256 377.532 865.35 376.745C859.155 374.186 854.353 370.924 850.869 368.081C852.35 363.66 850.902 358.891 847.221 356.822C843.051 354.471 837.564 356.499 834.972 361.353C832.37 366.204 833.655 372.043 837.847 374.393C841.516 376.459 846.198 375.139 849.04 371.493C853.264 372.992 858.534 375.397 863.967 379.346C865.59 380.525 867.071 381.738 868.453 382.958C864.153 390.908 861.147 399.695 859.721 409.024C856.008 409.349 852.001 409.506 847.701 409.369C841.56 409.176 836.018 408.438 831.172 407.477C831.063 402.598 827.884 398.515 823.572 398.05C818.825 397.539 814.524 401.586 813.958 407.09C813.403 412.593 816.789 417.467 821.525 417.977C825.75 418.431 829.604 415.272 830.813 410.694C835.778 410.797 841.353 411.253 847.396 412.319C851.588 413.058 855.453 413.999 859.035 415.046C858.861 417.165 858.785 419.307 858.785 421.474C858.785 426.62 859.253 431.651 860.168 436.53C856.052 439.322 850.39 442.487 843.171 444.71C836.845 446.659 831.151 447.322 826.61 447.465C824.977 443.127 820.927 440.421 816.822 441.233C812.151 442.16 809.178 447.315 810.202 452.747C811.225 458.181 815.853 461.834 820.524 460.907C824.574 460.105 827.329 456.143 827.34 451.575C831.989 450.024 837.477 448.569 843.715 447.622C850.88 446.534 857.315 446.377 862.737 446.619C864.904 453.352 867.953 459.676 871.709 465.465C869.934 466.905 867.963 468.326 865.731 469.654C861.474 472.198 857.391 473.781 853.841 474.804C851.446 470.873 846.96 469.028 843.084 470.634C838.674 472.471 836.725 478.116 838.75 483.241C840.024 486.458 842.561 488.717 845.37 489.488C847.025 489.951 848.779 489.895 850.423 489.213C850.902 489.009 851.37 488.757 851.794 488.456C855.017 486.265 856.389 481.721 855.028 477.386C858.382 475.611 862.302 473.853 866.809 472.404C869.716 471.474 872.482 470.795 875.084 470.29C877.458 473.44 880.071 476.396 882.869 479.123C883.131 479.383 883.403 479.644 883.664 479.886C881.77 484.224 878.917 489.496 874.616 494.841C870.402 500.073 866.025 503.882 862.334 506.572C858.643 503.882 853.798 503.94 850.825 506.953C847.428 510.389 847.755 516.368 851.555 520.307C855.333 524.238 861.169 524.646 864.555 521.209C867.506 518.227 867.648 513.322 865.143 509.512C868.04 505.636 871.818 501.267 876.641 496.953C881.835 492.323 886.952 488.895 891.417 486.369C897.318 490.674 903.84 494.158 910.797 496.653C910.525 499.341 910.057 502.241 909.284 505.288C907.607 511.925 905.103 517.245 902.827 521.161C898.352 520.242 893.932 522.338 892.418 526.351C890.709 530.908 893.398 536.221 898.428 538.219C903.448 540.217 908.914 538.137 910.645 533.572C912.137 529.608 910.307 525.076 906.486 522.654C907.564 517.935 909.273 512.354 911.973 506.359C913.302 503.436 914.706 500.771 916.144 498.343C921.511 499.829 927.097 500.74 932.868 500.991C933.804 505.622 934.566 510.803 934.936 516.465C935.492 524.888 935.045 532.346 934.261 538.503C929.884 539.373 926.607 542.914 926.607 547.147C926.607 552.037 930.973 556 936.385 556C941.774 556 946.14 552.037 946.14 547.147C946.14 542.93 942.885 539.396 938.53 538.511C937.8 532.215 937.408 524.775 937.822 516.465C938.105 510.859 938.726 505.685 939.509 501.007C945.541 500.771 951.388 499.821 956.974 498.236C957.453 499.081 957.921 499.959 958.379 500.861C961.417 506.815 963.05 512.396 963.932 516.863C960.045 519.178 958.063 523.678 959.468 527.692C961.057 532.297 966.479 534.523 971.564 532.67C976.638 530.81 979.469 525.571 977.869 520.965C976.453 516.88 972.021 514.669 967.492 515.515C965.412 511.851 962.995 506.319 962.157 499.236C962.048 498.358 961.972 497.498 961.928 496.653C968.145 494.443 974.003 491.43 979.393 487.742C982.866 490.641 986.525 494.102 990.161 498.212C995.758 504.532 999.83 510.763 1002.77 516.059C999.786 519.487 999.275 524.369 1001.79 527.74C1004.71 531.614 1010.52 532.021 1014.8 528.649C1019.07 525.279 1020.18 519.406 1017.28 515.524C1014.77 512.176 1010.08 511.412 1006.09 513.452C1001.8 508.992 997.043 503.347 992.459 496.409C989.497 491.925 987.047 487.572 985.033 483.485C987.2 481.69 989.268 479.781 991.25 477.758C994.473 474.444 997.424 470.845 1000.04 466.995C1004.86 468.377 1010.42 470.4 1016.33 473.437C1022.02 476.354 1026.77 479.562 1030.59 482.551C1029.14 486.889 1030.51 491.584 1034.11 493.679C1038.24 496.109 1043.76 494.175 1046.44 489.375C1049.12 484.566 1047.92 478.709 1043.79 476.279C1040.17 474.16 1035.48 475.371 1032.58 478.929C1028.31 477.262 1023.13 474.737 1017.76 470.862C1012.19 466.841 1007.97 462.527 1004.93 458.807C1006.98 454.844 1008.73 450.677 1010.12 446.338C1012.43 446.42 1014.88 446.631 1017.4 447.021C1023.93 448.028 1029.36 449.92 1033.54 451.805C1033.18 456.436 1035.73 460.676 1039.77 461.74C1044.38 462.959 1049.22 459.603 1050.57 454.243C1051.91 448.882 1049.26 443.553 1044.63 442.334C1040.58 441.261 1036.35 443.731 1034.47 447.995C1030.03 447.622 1024.34 446.622 1018.12 444.154C1015.77 443.211 1013.59 442.163 1011.61 441.066C1012.6 437.046 1013.3 432.91 1013.66 428.67C1017.68 428.337 1021.94 428.126 1026.44 428.117C1034.37 428.094 1041.58 428.678 1047.9 429.539C1048.66 433.999 1052.01 437.395 1056.09 437.526C1060.86 437.663 1064.85 433.292 1065 427.761C1065.15 422.23 1061.41 417.631 1056.66 417.493Z" fill="#FA5752" fill-opacity="0.92"/>
<path d="M778.349 286.798V698.903" stroke="#925D51" stroke-width="5.81" stroke-miterlimit="10"/>
<path d="M697.958 285.333C697.958 285.333 768.096 315.068 858.015 281.834L809.456 171.64L737.527 169.89L697.958 285.333Z" fill="#AC6352"/>
<path d="M828.493 214.839C800.232 246.847 754.334 260.325 706.173 261.365L697.958 285.333C697.958 285.333 768.096 315.068 858.017 281.834L828.493 214.839Z" fill="#984B39"/>
<rect x="154.703" y="762.272" width="726.385" height="16.939" rx="8.46951" fill="#925D51"/>
<path fill-rule="evenodd" clip-rule="evenodd" d="M518.526 393.656C517.719 393.53 516.899 393.469 516.069 393.469H331.466H331.306C318.555 393.468 308.245 393.468 308.245 440.304V691.357C308.245 685.047 311.505 686.815 316.626 689.594C320.65 691.777 325.823 694.584 331.466 694.584H516.069C517.838 694.584 519.561 694.308 521.216 693.862H702.076C709.921 693.862 717.112 691.064 722.706 688.887C729.824 686.117 734.355 684.353 734.355 690.644V440.35C734.355 393.654 720.023 393.655 702.298 393.656H702.076H518.526Z" fill="#F5C827"/>
<g opacity="0.699997">
<g opacity="0.699997">
<path d="M323.084 524.238V690.898C323.084 678.92 332.42 694.329 343.935 694.329H509.7C518.091 694.329 525.319 686.159 528.627 686.353V690.898C528.627 688.619 528.964 687.336 529.584 686.745C530.211 687.336 530.551 688.619 530.551 690.898V686.351C533.836 686.189 540.985 694.329 549.282 694.329H713.481C724.889 694.329 734.136 678.92 734.136 690.898V424.073C734.136 421.404 734.105 418.906 734.053 416.514L323.084 524.238Z" fill="#DCB21D"/>
</g>
</g>
<path d="M341.511 648.111C341.511 665.026 331.841 678.737 319.913 678.737H272.396C260.467 678.737 250.796 665.026 250.796 648.111V537.856C250.796 520.941 260.467 507.229 272.396 507.229H319.913C331.841 507.229 341.511 520.941 341.511 537.856V648.111Z" fill="#EBAFB2"/>
<path d="M361.267 660.326C361.267 678.723 347.237 693.637 329.929 693.637H260.986C243.678 693.637 229.647 678.723 229.647 660.326V540.408C229.647 522.01 243.678 507.097 260.986 507.097H329.929C347.237 507.097 361.267 522.01 361.267 540.408V660.326Z" fill="#CAA41E"/>
<path d="M845.102 660.611C845.102 679.066 831.266 694.026 814.198 694.026H746.209C729.141 694.026 715.305 679.066 715.305 660.611V540.318C715.305 521.863 729.141 506.903 746.209 506.903H814.198C831.266 506.903 845.102 521.863 845.102 540.318V660.611Z" fill="#CAA41E"/>
<path d="M280.78 801.411C280.78 807.258 276.964 812 272.259 812C267.551 812 263.735 807.258 263.735 801.411V764.827C263.735 758.98 267.551 754.239 272.259 754.239C276.964 754.239 280.78 758.98 280.78 764.827V801.411Z" fill="#925D51"/>
<path d="M810.095 799.517C810.095 805.364 806.28 810.106 801.572 810.106C796.867 810.106 793.051 805.364 793.051 799.517V762.933C793.051 757.086 796.867 752.345 801.572 752.345C806.28 752.345 810.095 757.086 810.095 762.933V799.517Z" fill="#925D51"/>
<path d="M824.358 507.097H800.461C788.463 507.097 778.737 520.816 778.737 537.739V690.946H293.205V537.739C293.205 520.816 283.479 507.097 271.481 507.097H247.586C235.588 507.097 225.862 520.816 225.862 537.739V747.632C225.862 756.489 228.542 764.444 232.801 770.039C236.766 776.034 242.401 779.805 248.673 779.805L824.358 778.274C836.356 778.274 846.082 764.555 846.082 747.632V537.739C846.082 520.816 836.356 507.097 824.358 507.097Z" fill="#F5C827"/>
<path d="M416.952 523.195H328.537C325.173 523.195 322.446 526.376 322.446 530.3V633.451C322.446 637.376 325.173 640.557 328.537 640.557H416.952C420.316 640.557 423.042 637.376 423.042 633.451V530.3C423.042 526.376 420.316 523.195 416.952 523.195Z" fill="white"/>
<path d="M759.098 534.406L678.695 520.374C675.636 519.84 672.608 522.547 671.931 526.421L654.141 628.247C653.465 632.121 655.396 635.694 658.454 636.228L738.858 650.261C741.916 650.795 744.945 648.087 745.622 644.213L763.411 542.387C764.088 538.513 762.157 534.94 759.098 534.406Z" fill="white"/>
<path fill-rule="evenodd" clip-rule="evenodd" d="M749.963 714.351C766.288 714.351 779.522 699.584 779.522 681.366V651.681C779.522 633.463 766.288 618.696 749.963 618.696H521.667C520.027 618.045 518.311 617.699 516.544 617.699H313.645C302.032 617.699 292.619 632.621 292.619 651.028V681.023C292.619 699.43 302.032 714.351 313.645 714.351H469.093C469.112 714.351 469.131 714.351 469.15 714.351H749.963Z" fill="#FFE792"/>
<path d="M465.736 344.017C462.709 343.773 459.886 342.391 457.813 340.169C452.397 334.359 444.639 320.848 455.75 296.853C476.434 252.167 552.08 258.871 570.123 291.341C582.961 314.441 595.732 319.024 588.841 325.974C582.192 332.682 503.406 347.058 465.736 344.017Z" fill="#FF504A"/>
<path d="M599.066 612.483C598.984 612.494 598.896 612.506 598.815 612.517C582.455 614.9 565.865 617.089 549.228 618.375C548.275 618.445 547.32 618.52 546.363 618.578C528.758 619.83 511.105 620.018 493.635 618.299C487.904 617.736 482.189 616.958 476.535 615.924C463.894 613.615 455.373 601.667 457.42 588.984C459.348 577.076 460.607 565.795 461.436 555.19C461.56 553.613 461.68 552.056 461.779 550.513C462.617 538.134 462.889 526.734 462.979 516.379C462.983 515.498 462.99 514.627 462.994 513.766C462.994 513.376 463.002 512.988 463.002 512.607C463.005 512.016 463.005 511.43 463.005 510.852C463.013 510.456 463.013 510.067 463.013 509.686C463.013 508.878 463.017 508.091 463.013 507.303C463.024 504.882 463.017 502.53 463.024 500.247V499.641C463.028 491.738 463.061 484.664 463.378 478.462C463.39 478.178 463.401 477.903 463.424 477.625C463.494 476.337 463.559 475.059 463.622 473.8C463.677 472.579 463.738 471.37 463.781 470.173C463.913 466.815 464.002 463.578 464.055 460.487C464.088 457.887 464.088 455.396 464.048 453.032C463.998 450.409 463.905 447.952 463.757 445.676C463.7 444.923 463.648 444.145 463.587 443.346C463.494 442.136 463.393 440.881 463.289 439.592C463.226 438.808 463.159 438.019 463.08 437.216C463.045 436.866 463.017 436.511 462.983 436.151C462.979 436.062 462.967 435.976 462.962 435.895C462.916 435.398 462.87 434.904 462.827 434.4C462.777 433.911 462.728 433.422 462.68 432.928C462.602 432.066 462.517 431.187 462.422 430.301C462.015 426.167 461.541 421.827 461.06 417.378C460.902 415.984 460.748 414.569 460.592 413.152C460.343 410.957 460.092 408.738 459.848 406.53C459.681 405.104 459.519 403.677 459.36 402.253C456.919 380.802 454.624 360.264 455.44 353.746C456.853 342.46 511.512 312.672 511.512 312.672L544.321 311.641C544.321 311.641 590.374 330.192 598.87 341.39C598.915 341.445 598.953 341.502 598.995 341.553C600.922 344.191 602.135 347.856 602.829 352.386C603.451 356.369 603.672 361.015 603.626 366.226C603.605 369.935 603.444 373.932 603.204 378.171C602.951 382.666 602.607 387.435 602.228 392.43C602.12 393.883 602.006 395.355 601.892 396.844C601.774 398.358 601.662 399.885 601.546 401.431C601.471 402.43 601.397 403.438 601.323 404.449C601.123 407.118 600.927 409.835 600.751 412.589C600.694 413.477 600.631 414.375 600.574 415.275C600.536 415.841 600.503 416.418 600.473 416.988C600.437 417.572 600.403 418.154 600.37 418.742V418.753C600.34 419.293 600.306 419.828 600.281 420.366C600.241 420.952 600.214 421.539 600.186 422.129C600.131 423.209 600.074 424.291 600.03 425.383C599.984 426.283 599.948 427.192 599.914 428.099C599.9 428.259 599.895 428.428 599.895 428.591C599.864 429.177 599.842 429.765 599.826 430.347L599.817 430.653L599.809 430.799C599.786 431.566 599.76 432.346 599.739 433.118C599.708 434.046 599.686 434.972 599.663 435.895C599.653 436.321 599.649 436.76 599.642 437.193C599.63 437.576 599.627 437.971 599.619 438.359C599.619 438.557 599.615 438.747 599.615 438.949C599.604 439.483 599.596 440.018 599.59 440.567C599.583 441.478 599.581 442.401 599.581 443.346V444.841C599.583 447.456 599.611 450.189 599.663 453.032C599.682 454.206 599.708 455.396 599.735 456.604C599.764 457.884 599.798 459.177 599.83 460.487C599.914 463.241 600.003 466.054 600.115 468.918C600.127 469.337 600.14 469.751 600.159 470.173C600.167 470.345 600.171 470.514 600.178 470.685C600.212 471.619 600.249 472.556 600.292 473.505C600.351 474.869 600.414 476.248 600.469 477.625C600.532 479.116 600.635 480.696 600.766 482.362C600.927 484.447 601.135 486.657 601.386 488.992C601.441 489.538 601.504 490.091 601.57 490.647C601.673 491.543 601.774 492.455 601.899 493.382C601.968 493.964 602.036 494.542 602.114 495.133C602.162 495.506 602.209 495.881 602.261 496.257C602.441 497.661 602.637 499.104 602.845 500.573C602.867 500.736 602.89 500.898 602.911 501.061C603.018 501.805 603.134 502.552 603.236 503.313C603.447 504.762 603.676 506.242 603.906 507.741C603.974 508.161 604.037 508.589 604.104 509.013C604.503 511.565 604.933 514.182 605.382 516.858C605.46 517.324 605.545 517.803 605.625 518.281C605.804 519.334 605.988 520.396 606.173 521.464C606.819 525.188 607.504 528.998 608.219 532.868C609.054 537.343 609.923 541.896 610.825 546.483C611.563 550.256 612.327 554.051 613.099 557.845C614.906 566.721 616.785 575.593 618.639 584.153C621.532 597.481 612.561 610.515 599.066 612.483Z" fill="white"/>
<path d="M602.832 352.387C578.863 357.523 556.626 358.99 539.063 358.99C535.872 358.99 532.836 358.942 529.97 358.86C502.836 358.067 485.187 354.134 484.448 353.971L485.726 348.322L487 342.676H487.004C487.35 342.754 504.66 346.563 530.617 347.295C548.148 347.788 572.374 346.911 598.872 341.39C598.916 341.445 598.956 341.5 598.996 341.554C600.922 344.191 602.138 347.856 602.832 352.387Z" fill="#1DB776" fill-opacity="0.56"/>
<path d="M603.625 366.226C603.603 369.935 603.441 373.932 603.201 378.171C579.759 383.154 557.903 384.623 540.309 384.623C535.952 384.623 531.857 384.533 528.063 384.383C500.947 383.322 483.343 379.214 482.607 379.039L485.273 367.768C485.447 367.81 502.751 371.829 528.824 372.822C547.766 373.548 574.548 372.747 603.625 366.226Z" fill="#1DB776" fill-opacity="0.56"/>
<path d="M602.23 392.43C602.122 393.883 602.008 395.355 601.893 396.844C601.776 398.358 601.663 399.885 601.547 401.431C601.473 402.429 601.399 403.437 601.323 404.449C579.237 408.913 558.583 410.28 541.576 410.28C536.021 410.28 530.863 410.136 526.164 409.908C499.068 408.574 481.508 404.289 480.772 404.111L483.551 392.867C483.722 392.907 500.985 397.099 527.039 398.354C546.044 399.269 572.961 398.73 602.23 392.43Z" fill="#1DB776" fill-opacity="0.56"/>
<path d="M600.373 418.741V418.753C600.343 419.295 600.31 419.827 600.284 420.366C600.246 420.953 600.219 421.539 600.189 422.129C600.133 423.209 600.078 424.291 600.033 425.383C599.989 426.282 599.951 427.191 599.918 428.099C599.905 428.258 599.898 428.428 599.898 428.591C599.867 429.177 599.846 429.765 599.831 430.346L599.82 430.653C578.916 434.69 559.31 435.972 542.842 435.972C536.075 435.972 529.843 435.759 524.261 435.426C497.184 433.825 479.668 429.363 478.936 429.177L481.827 417.964H481.831C481.989 418.005 486.363 419.107 493.938 420.388C501.513 421.67 512.285 423.131 525.25 423.886C544.219 424.991 571.092 424.723 600.373 418.741Z" fill="#1DB776" fill-opacity="0.56"/>
<path d="M480.102 443.062L478.604 448.654L480.106 443.062H480.102ZM599.668 453.032C599.617 450.188 599.588 447.455 599.584 444.84C569.875 450.711 542.626 450.727 523.467 449.416C497.554 447.649 480.42 443.144 480.106 443.062L478.604 448.654L477.103 454.245C477.832 454.439 495.298 459.076 522.358 460.947C528.797 461.396 536.106 461.697 544.107 461.697C560.376 461.697 579.466 460.447 599.738 456.603C599.714 455.396 599.687 454.205 599.668 453.032Z" fill="#1DB776" fill-opacity="0.56"/>
<path d="M600.768 482.361C580.691 486.182 561.708 487.453 545.366 487.453C536.121 487.453 527.724 487.046 520.451 486.471C493.415 484.322 475.994 479.514 475.263 479.313L476.823 473.737L478.377 468.16H478.379C478.656 468.238 495.752 472.919 521.676 474.952C541.324 476.49 569.504 476.721 600.181 470.684C600.215 471.62 600.253 472.557 600.295 473.504C600.354 474.868 600.416 476.247 600.474 477.626C600.536 479.115 600.639 480.695 600.768 482.361Z" fill="#1DB776" fill-opacity="0.56"/>
<path d="M603.908 507.74C583.237 511.863 563.597 513.238 546.613 513.238C536.115 513.238 526.636 512.711 518.55 511.991C491.528 509.573 474.155 504.591 473.426 504.381L476.654 493.261V493.257C476.821 493.307 493.9 498.185 519.887 500.483C540.326 502.293 570.04 502.776 602.263 496.257C602.444 497.662 602.64 499.104 602.847 500.572C602.87 500.736 602.893 500.897 602.916 501.061C603.02 501.804 603.136 502.552 603.239 503.313C603.45 504.764 603.678 506.241 603.908 507.74Z" fill="#1DB776" fill-opacity="0.56"/>
<path d="M608.221 532.867C586.531 537.51 565.802 539.052 547.843 539.052C536.092 539.052 525.525 538.392 516.641 537.51C489.639 534.821 472.311 529.667 471.587 529.446L474.926 518.36C475.094 518.408 492.127 523.459 518.094 526.017C539.709 528.147 571.717 528.896 606.175 521.464C606.821 525.188 607.504 528.997 608.221 532.867Z" fill="#1DB776" fill-opacity="0.56"/>
<path d="M613.099 557.846C590.184 563.146 568.164 564.902 549.064 564.902C536.05 564.902 524.395 564.088 514.736 563.026C487.756 560.067 470.472 554.738 469.751 554.514L471.478 548.985L473.199 543.458L473.203 543.462C473.471 543.542 490.438 548.738 516.305 551.551C539.226 554.04 573.872 555.094 610.825 546.482C611.563 550.255 612.327 554.05 613.099 557.846Z" fill="#1DB776" fill-opacity="0.56"/>
<path d="M524.866 596.906C525.974 549.164 517.8 493.613 517.869 445.857C517.931 403.039 521.06 360.529 521.026 317.711C510.811 318.479 506.423 320.223 506.423 320.223C506.423 320.223 496.656 328.557 464.872 338.914C434.901 348.68 440.471 459.379 442.293 521.338C444.113 583.298 443.39 622.581 502.31 630.11C507.844 630.818 513.28 631.442 518.603 631.965C518.692 617.796 524.537 611.109 524.866 596.906Z" fill="#FB4C47"/>
<path d="M460.947 471.021C460.314 471.021 459.743 470.578 459.606 469.931C459.447 469.191 459.92 468.461 460.662 468.301C461.413 468.139 479.098 464.113 485.196 442.938C485.403 442.208 486.166 441.789 486.896 441.997C487.624 442.206 488.047 442.968 487.835 443.697C481.27 466.508 462.048 470.817 461.232 470.99C461.137 471.011 461.04 471.021 460.947 471.021Z" fill="#B63A37"/>
<path d="M512.383 587.501C511.813 587.501 511.333 587.056 511.301 586.478C506.558 500.988 502.784 417.42 508.635 334.937C508.678 334.34 509.199 333.893 509.793 333.933C510.392 333.975 510.841 334.494 510.799 335.091C504.954 417.447 508.726 500.94 513.467 586.356C513.499 586.955 513.041 587.466 512.444 587.499C512.423 587.501 512.404 587.501 512.383 587.501Z" fill="#B63A37"/>
<path d="M627.134 382.275C628.555 338.169 607.311 326.528 564.917 320.17C564.752 320.145 564.59 320.121 564.425 320.098C563.744 327.384 563.993 334.784 564.469 342.058C565.229 353.692 566.58 365.259 567.047 376.912C569.006 425.538 573.765 458.566 569.858 522.388C566.92 570.356 574.588 595.533 575.931 631.881C599.997 628.205 618.937 618.41 630.601 598.534C652.482 561.245 625.716 426.381 627.134 382.275Z" fill="#FB4C47"/>
<path d="M622.155 469.533C622.053 469.533 621.952 469.524 621.847 469.499C621.564 469.434 593.377 462.517 588.613 421.523C588.525 420.77 589.065 420.087 589.82 420.001C590.579 419.908 591.256 420.454 591.342 421.207C595.885 460.294 622.195 466.76 622.462 466.819C623.201 466.989 623.664 467.726 623.494 468.466C623.35 469.101 622.783 469.533 622.155 469.533Z" fill="#B63A37"/>
<path d="M579.165 579.658C578.644 579.658 578.184 579.281 578.096 578.749C576.109 566.679 576.871 534.299 577.611 502.987C578.172 479.166 578.703 456.667 578.083 443.113C575.989 397.225 569.719 333.136 569.656 332.495C569.597 331.9 570.032 331.369 570.628 331.31C571.219 331.253 571.755 331.687 571.813 332.282C571.875 332.925 578.151 397.067 580.249 443.012C580.871 456.642 580.34 479.177 579.777 503.038C579.041 534.251 578.281 566.527 580.236 578.397C580.333 578.986 579.933 579.546 579.342 579.643C579.283 579.652 579.224 579.658 579.165 579.658Z" fill="#B63A37"/>
<path d="M540.622 219.014L519.775 226.585C519.775 226.585 513.522 235.208 505.323 233.43C502.035 232.715 498.435 230.328 494.797 225.047C482.088 206.584 512.741 181.004 531.164 185.302C540.199 187.409 542.649 195.564 542.795 203.326C542.949 211.384 540.622 219.014 540.622 219.014Z" fill="#002014"/>
<path d="M540.621 219.014L519.775 226.585C519.775 226.585 513.521 235.208 505.323 233.43C505.323 223.868 518.736 206.384 542.795 203.326C542.949 211.384 540.621 219.014 540.621 219.014Z" fill="#FFD339"/>
<path d="M540.274 182.13C539.898 182.13 539.489 182.174 539.046 182.262C537.966 182.478 537.266 183.003 536.845 183.914C534.972 187.969 538.922 197.627 541.745 203.332C543.489 197.003 545.579 186.423 542.625 183.089C542.057 182.448 541.282 182.13 540.274 182.13ZM542.074 208.094C541.604 208.094 541.165 207.842 540.933 207.423C539.934 205.633 531.277 189.74 534.472 182.819C535.24 181.155 536.646 180.075 538.534 179.698C541.752 179.057 543.601 180.246 544.582 181.354C549.713 187.148 543.987 205.162 543.317 207.197C543.154 207.689 542.716 208.039 542.199 208.089C542.157 208.093 542.115 208.094 542.074 208.094Z" fill="#FFD339"/>
<path d="M557.901 188.562C557.778 188.562 557.652 188.57 557.527 188.589C553.109 189.176 547.77 198.547 544.948 204.475C550.815 202.004 560.121 197.286 561.357 192.995C561.635 192.029 561.448 191.175 560.773 190.304C559.864 189.135 558.923 188.562 557.901 188.562ZM542.439 208.178C542.088 208.178 541.743 208.037 541.494 207.775C541.135 207.398 541.032 206.846 541.232 206.367C542.057 204.391 549.509 187.02 557.181 185.996C558.651 185.801 560.825 186.109 562.837 188.699C564.02 190.22 564.377 191.957 563.869 193.718C561.758 201.042 544.811 207.398 542.886 208.1C542.74 208.153 542.59 208.178 542.439 208.178Z" fill="#FFD339"/>
<path d="M503.747 236.145C499.194 235.464 494.074 233.037 490.86 226.333C483.27 210.508 501.423 197.153 501.607 197.02C501.978 196.752 502.495 196.837 502.764 197.206C503.032 197.577 502.948 198.096 502.577 198.364C502.404 198.49 485.365 211.044 492.353 225.616C498.589 238.617 512.318 234.043 512.899 233.839C513.334 233.691 513.804 233.921 513.954 234.353C514.102 234.785 513.874 235.256 513.441 235.407C513.359 235.435 508.918 236.917 503.747 236.145Z" fill="#002014"/>
<path d="M564.145 238.1C564.145 238.1 572.281 272.263 560.98 294.376C549.681 316.489 538.327 322.512 554.553 329.381C570.78 336.249 589.241 323.166 601.63 329.971C616.586 338.185 599.816 269.243 592.341 240.067C584.69 210.213 548.357 206.872 548.357 206.872L564.145 238.1Z" fill="#002014"/>
<path d="M585.651 262.648C585.651 262.648 600.189 229.352 572.931 213.679C545.672 198.006 518.139 209.843 510.804 227.888C503.468 245.932 514.701 257.802 514.701 257.802L585.651 262.648Z" fill="#002014"/>
<path d="M538.934 332.95C546.802 335.135 549.949 331.647 552.365 329.053L553.991 314.947L554.942 306.72L555.139 305.508L551.522 305.107L524.832 297.408L521.222 314.356L519.506 322.391C522.937 325.63 527.496 329.774 538.934 332.95Z" fill="#FBB990"/>
<path d="M553.989 314.947C545.718 318.676 529.405 316.982 521.22 314.355C521.191 314.352 521.17 314.342 521.142 314.332L524.83 297.408L551.52 305.107L555.137 305.508L554.94 306.719L553.989 314.947Z" fill="#181818"/>
<path d="M575.782 262.853C575.782 262.853 591.63 258.247 588.521 272.248C585.095 287.665 572.479 283.288 570.307 282.29L575.782 262.853Z" fill="#FB9476"/>
<path d="M564.395 288.459C563.518 294.325 567.577 299.81 573.442 300.686C579.31 301.563 584.794 297.505 585.671 291.637C586.419 286.634 583.568 281.917 579.077 280.091C579.07 280.101 579.062 280.112 579.055 280.129C578.3 280.327 578.142 280.909 578.071 281.542C582.054 282.959 584.616 287.048 583.969 291.384C583.233 296.308 578.627 299.72 573.697 298.984C568.773 298.248 565.361 293.638 566.097 288.714C566.428 286.489 567.55 284.576 569.135 283.216C569.545 282.866 569.987 282.55 570.453 282.276C570.038 281.902 569.644 281.466 569.296 280.968C568.868 281.234 568.45 281.537 568.066 281.868C566.153 283.49 564.793 285.787 564.395 288.459Z" fill="white"/>
<path d="M577.554 277.713C577.524 277.709 577.493 277.702 577.463 277.694C577.004 277.574 576.727 277.105 576.846 276.644C578.609 269.849 583.613 267.494 583.824 267.397C584.256 267.202 584.768 267.39 584.965 267.824C585.161 268.255 584.973 268.765 584.543 268.963C584.355 269.05 580.061 271.11 578.513 277.078C578.4 277.508 577.984 277.778 577.554 277.713Z" fill="#FA7764"/>
<path d="M583.225 274.853C582.981 274.817 582.755 274.678 582.618 274.452C582.593 274.414 581.534 272.732 580.018 272.713C579.545 272.711 579.162 272.32 579.166 271.844C579.174 271.369 579.562 270.988 580.037 270.994C582.508 271.019 584.024 273.451 584.086 273.554C584.334 273.961 584.204 274.49 583.799 274.737C583.62 274.845 583.417 274.881 583.225 274.853Z" fill="#FA7764"/>
<path d="M584.472 260.933C583.487 266.501 581.97 271.912 580.081 276.986C579.231 279.285 578.295 281.512 577.304 283.654C570.321 298.747 560.283 309.622 552.265 310.563C539.57 312.056 525.159 305.854 518.094 289.299C516.94 286.594 515.73 283.327 515.152 279.477C515.074 278.943 514.998 278.395 514.933 277.836C512.862 260.636 517.225 236.115 517.225 236.115C527.63 220.581 549.999 224.721 562.976 226.857C575.962 228.997 588.993 235.45 584.472 260.933Z" fill="#FFC29C"/>
<path d="M548.753 301.674C545.997 301.263 544.369 300.014 544.299 299.96C543.924 299.668 543.856 299.127 544.148 298.753C544.439 298.378 544.978 298.31 545.352 298.601C545.381 298.622 546.84 299.709 549.272 300.008C551.752 300.31 553.414 299.738 553.429 299.732C553.876 299.574 554.369 299.808 554.529 300.253C554.688 300.698 554.458 301.191 554.013 301.351C553.932 301.381 551.976 302.071 549.065 301.716C548.958 301.704 548.856 301.689 548.753 301.674Z" fill="#FB9476"/>
<path d="M500.434 466.759C499.882 466.759 499.369 466.407 499.19 465.853C497.32 460.096 496.031 453.602 495.976 453.328C495.837 452.618 496.297 451.932 497.006 451.791C497.712 451.652 498.402 452.112 498.541 452.822C498.555 452.888 499.857 459.44 501.677 465.047C501.9 465.733 501.523 466.471 500.837 466.694C500.704 466.738 500.567 466.759 500.434 466.759Z" fill="#108A57"/>
<path d="M507.415 464.416C506.869 464.416 506.361 464.073 506.177 463.528C504.231 457.797 502.856 451.323 502.799 451.051C502.649 450.344 503.102 449.65 503.809 449.501C504.515 449.351 505.207 449.804 505.357 450.509C505.371 450.576 506.759 457.107 508.653 462.687C508.885 463.372 508.518 464.113 507.835 464.345C507.695 464.393 507.554 464.416 507.415 464.416Z" fill="#108A57"/>
<path d="M514.402 462.073C513.863 462.073 513.359 461.738 513.169 461.201C511.149 455.498 509.689 449.045 509.628 448.773C509.47 448.069 509.911 447.369 510.617 447.211C511.319 447.054 512.02 447.495 512.178 448.2C512.194 448.265 513.667 454.775 515.634 460.329C515.876 461.009 515.518 461.755 514.839 461.996C514.694 462.048 514.546 462.073 514.402 462.073Z" fill="#108A57"/>
<path d="M521.38 459.73C520.848 459.73 520.35 459.403 520.154 458.875C518.058 453.2 516.514 446.767 516.449 446.496C516.28 445.794 516.713 445.088 517.417 444.921C518.119 444.753 518.822 445.187 518.992 445.889C519.007 445.953 520.566 452.443 522.607 457.969C522.856 458.646 522.51 459.4 521.833 459.649C521.685 459.704 521.531 459.73 521.38 459.73Z" fill="#108A57"/>
<path d="M528.365 457.388C527.84 457.388 527.344 457.068 527.144 456.549C524.974 450.9 523.343 444.489 523.276 444.219C523.097 443.519 523.521 442.808 524.221 442.631C524.921 442.454 525.632 442.878 525.809 443.578C525.826 443.641 527.471 450.111 529.584 455.611C529.843 456.285 529.508 457.042 528.833 457.3C528.679 457.359 528.521 457.388 528.365 457.388Z" fill="#108A57"/>
<path d="M535.345 455.046C534.826 455.046 534.335 454.734 534.131 454.222C531.885 448.602 530.17 442.21 530.098 441.94C529.911 441.244 530.326 440.527 531.024 440.341C531.722 440.154 532.437 440.569 532.623 441.267C532.64 441.331 534.373 447.781 536.558 453.252C536.826 453.924 536.499 454.684 535.83 454.952C535.67 455.015 535.506 455.046 535.345 455.046Z" fill="#108A57"/>
<path d="M542.327 452.703C541.814 452.703 541.329 452.398 541.119 451.896C538.799 446.303 536.998 439.932 536.922 439.664C536.726 438.969 537.131 438.247 537.827 438.051C538.521 437.855 539.244 438.26 539.438 438.956C539.457 439.021 541.273 445.449 543.535 450.894C543.811 451.56 543.495 452.326 542.827 452.602C542.664 452.67 542.494 452.703 542.327 452.703Z" fill="#108A57"/>
<path d="M579.947 313.328C579.681 316.738 579.048 320.143 577.886 323.324C577.591 324.138 577.258 324.935 576.885 325.715V325.719C575.012 329.682 572.178 333.174 568.013 335.728C568.013 335.728 547.703 344.361 523.778 333.766H523.774C522.416 333.163 521.045 332.495 519.662 331.763C518.455 331.124 517.245 330.434 516.032 329.69C505.64 323.324 501.521 314.745 500.395 306.575C500.294 305.846 500.216 305.126 500.161 304.401C499.72 298.64 500.65 293.212 501.762 289.076C501.838 288.802 501.912 288.532 501.987 288.271C503.191 284.057 504.508 281.375 504.508 281.375C504.508 281.375 509.887 279.038 516.943 277.965C519.626 277.558 522.553 277.334 525.52 277.492C528.888 277.667 532.31 278.336 535.486 279.785C558.171 290.135 569.66 294.757 576.242 285.873C576.242 285.873 577.385 289.179 578.428 294.158C578.576 294.865 578.719 295.601 578.861 296.37C579.245 298.481 579.59 300.81 579.816 303.266C580.115 306.482 580.217 309.903 579.947 313.328Z" fill="#0CAD69"/>
<path d="M578.862 296.369C578.56 296.837 578.22 297.311 577.847 297.782C574.973 301.413 569.389 305.593 558.908 305.593C558.265 305.593 557.607 305.578 556.928 305.544C546.765 305.059 538.842 300.863 531.177 296.807C522.029 291.967 513.386 287.391 501.917 289.806L501.763 289.076L501.611 288.345C501.739 288.321 501.866 288.294 501.99 288.271C513.793 285.919 522.581 290.569 531.875 295.489C539.395 299.466 547.172 303.583 556.999 304.049C565.905 304.479 572.508 302.075 576.632 296.911C577.371 295.985 577.961 295.048 578.429 294.157C578.579 294.863 578.72 295.601 578.862 296.369Z" fill="#108E59"/>
<path d="M577.883 323.324C577.588 324.138 577.255 324.935 576.882 325.715V325.718C573.082 327.9 568.529 329.395 563.263 330.186C560.27 330.639 557.046 330.861 553.606 330.861C549.127 330.861 544.283 330.481 539.114 329.72C523.604 327.426 510.344 322.421 510.209 322.367L510.744 320.971C510.875 321.023 524.003 325.979 539.357 328.244C551.571 330.039 567.398 330.418 577.883 323.324Z" fill="#108E59"/>
<path d="M542.024 442.994L496.037 458.011C496.037 458.011 495.429 455.331 494.487 450.774C494.278 449.759 494.05 448.646 493.812 447.45C493.162 444.215 492.414 440.356 491.625 436.05C491.427 434.958 491.227 433.842 491.026 432.695C490.387 429.093 489.733 425.24 489.097 421.212C488.922 420.095 488.746 418.968 488.574 417.825C488.004 414.059 487.45 410.175 486.946 406.233C486.8 405.09 486.655 403.943 486.517 402.791C486.045 398.89 485.627 394.957 485.28 391.056C485.172 389.888 485.075 388.723 484.986 387.561C484.668 383.496 484.436 379.489 484.32 375.615C484.286 374.423 484.259 373.243 484.246 372.078C484.193 367.738 484.301 363.599 484.611 359.778C484.712 358.525 484.835 357.312 484.982 356.136C485.083 355.284 485.202 354.451 485.328 353.641C485.929 349.856 486.762 346.424 487.768 343.308C488.186 342 488.639 340.75 489.116 339.554C497.629 318.173 514.348 313.959 514.348 313.959C526.731 315.188 532.174 328.419 532.174 328.419C529.578 330.893 527.703 334.292 526.417 338.369C526.085 339.427 525.79 340.53 525.537 341.673C524.848 344.735 524.43 348.097 524.236 351.675C524.173 352.785 524.135 353.917 524.116 355.064C524.061 358.407 524.177 361.903 524.434 365.495C524.512 366.617 524.605 367.745 524.71 368.881C525.031 372.34 525.468 375.87 525.995 379.413C526.164 380.543 526.339 381.667 526.522 382.795C527.096 386.321 527.751 389.85 528.46 393.333C528.684 394.453 528.92 395.565 529.156 396.676C529.921 400.257 530.735 403.772 531.568 407.165C531.838 408.27 532.11 409.36 532.387 410.436C533.308 414.078 534.247 417.553 535.151 420.78C535.461 421.889 535.771 422.973 536.073 424.021C537.189 427.891 538.235 431.324 539.129 434.171C539.498 435.345 539.839 436.415 540.149 437.379C541.303 440.944 542.024 442.994 542.024 442.994Z" fill="#0CAD69"/>
<path d="M526.413 338.37C526.08 339.427 525.785 340.528 525.532 341.671C517.393 340.667 502.608 339.733 487.764 343.309C488.182 342 488.635 340.749 489.112 339.555C496.489 337.959 503.576 337.428 509.424 337.369C516.328 337.295 522.267 337.832 526.413 338.37Z" fill="#108E59"/>
<path d="M524.232 351.675C524.17 352.784 524.132 353.916 524.113 355.063C514.398 354.646 499.139 355.038 484.607 359.777C484.708 358.526 484.832 357.313 484.978 356.135C494.611 353.174 504.215 352.048 511.756 351.694C516.456 351.474 520.703 351.521 524.232 351.675Z" fill="#108E59"/>
<path d="M524.706 368.88C514.337 369.055 498.766 370.352 484.316 375.617C484.282 374.424 484.255 373.243 484.24 372.077C494.879 368.35 505.752 366.714 514.086 366.02C517.878 365.702 521.374 365.552 524.428 365.497C524.508 366.617 524.601 367.745 524.706 368.88Z" fill="#108E59"/>
<path d="M526.522 382.795C515.813 383.516 499.87 385.532 485.279 391.057C485.172 389.887 485.075 388.723 484.986 387.561C499.661 382.126 515.305 380.132 525.996 379.414C526.165 380.541 526.34 381.667 526.522 382.795Z" fill="#108E59"/>
<path d="M529.152 396.675C518.27 397.908 501.843 400.57 486.942 406.234C486.796 405.091 486.651 403.944 486.512 402.79C501.484 397.191 517.598 394.557 528.456 393.332C528.68 394.454 528.916 395.566 529.152 396.675Z" fill="#108E59"/>
<path d="M532.385 410.437C521.474 412.158 504.459 415.49 489.095 421.212C488.92 420.096 488.745 418.968 488.572 417.825C503.884 412.203 520.645 408.9 531.567 407.163C531.836 408.27 532.108 409.36 532.385 410.437Z" fill="#108E59"/>
<path d="M536.078 424.022C525.287 426.218 507.588 430.283 491.63 436.049C491.432 434.959 491.23 433.843 491.029 432.696C506.917 427.006 524.357 422.987 535.155 420.779C535.465 421.888 535.775 422.972 536.078 424.022Z" fill="#108E59"/>
<path d="M540.147 437.379C529.696 440.009 511.199 444.941 494.487 450.774C494.276 449.758 494.05 448.646 493.81 447.449C510.425 441.675 528.669 436.809 539.128 434.171C539.498 435.344 539.837 436.415 540.147 437.379Z" fill="#108E59"/>
<path d="M523.778 333.766H523.774C523.434 333.747 523.084 333.707 522.72 333.638C521.615 333.429 520.6 332.773 519.66 331.763C511.754 323.235 509.717 289.58 509.717 289.58C509.717 289.58 512.68 282.256 516.943 277.967C519.624 277.56 522.553 277.336 525.52 277.494C526.134 283.814 528.26 303.962 530.733 309.506C533.576 315.873 533.213 334.27 523.778 333.766Z" fill="#128E5A"/>
<path d="M579.948 313.328C568.395 322.294 543.18 317.132 520.156 310.348C512.29 308.03 505.736 306.948 500.394 306.577C500.297 305.848 500.217 305.126 500.162 304.403C510.17 305.029 523.578 307.841 540.187 311.615C564.819 317.208 576.04 307.767 579.819 303.268C580.118 306.484 580.219 309.907 579.948 313.328Z" fill="#108E59"/>
<path d="M563.253 267.722C562.873 270.152 563.66 272.296 565.015 272.509C566.374 272.724 567.786 270.923 568.166 268.49C568.316 267.532 568.284 266.623 568.109 265.854C570.524 266.337 571.561 264.949 571.561 264.949C569.957 264.924 567.913 264.259 566.949 263.912C566.608 263.785 566.399 263.703 566.399 263.703C565.045 263.488 563.636 265.286 563.253 267.722Z" fill="#181818"/>
<path d="M566.401 263.702C566.401 263.702 566.609 263.784 566.952 263.912C566.782 263.805 566.599 263.733 566.401 263.702Z" fill="#181818"/>
<path d="M580.085 276.986C579.233 279.285 578.299 281.512 577.308 283.654C576.216 283.663 575.045 283.587 573.837 283.416C568.442 282.653 564.317 280.291 564.623 278.142C564.929 275.995 569.551 274.875 574.94 275.636C576.863 275.908 578.626 276.383 580.085 276.986Z" fill="#FD9B7E"/>
<path d="M540.483 273.925C540.175 276.097 535.508 277.229 530.057 276.457C524.606 275.683 520.438 273.298 520.748 271.126C521.054 268.956 525.723 267.822 531.172 268.594C536.622 269.368 540.791 271.753 540.483 273.925Z" fill="#FD9B7E"/>
<path d="M517.982 260.194C518.277 258.138 517.402 256.1 515.725 254.879C511.566 251.853 505.995 250.139 503.235 255.639C498.112 265.849 507.421 279.53 515.474 277.728L517.982 260.194Z" fill="#FBB990"/>
<path d="M519.671 277.057C519.515 277.202 519.361 277.341 519.203 277.468C518.741 277.851 518.269 278.176 517.788 278.446C516.905 278.946 516.012 279.271 515.156 279.479C515.074 278.94 515 278.394 514.939 277.835C515.551 277.689 516.181 277.476 516.803 277.162C517.307 276.924 517.811 276.622 518.29 276.247C518.48 276.097 518.674 275.933 518.855 275.764C519.155 275.471 519.585 275.536 519.81 275.901C520.034 276.259 519.979 276.784 519.671 277.057Z" fill="#FB9476"/>
<path d="M511.877 270.63C511.455 270.568 511.134 270.197 511.145 269.759C511.312 262.867 506.94 259.187 506.896 259.151C506.531 258.849 506.476 258.308 506.777 257.941C507.077 257.572 507.617 257.517 507.986 257.818C508.192 257.987 513.055 262.034 512.866 269.799C512.855 270.275 512.459 270.651 511.986 270.638C511.948 270.638 511.913 270.634 511.877 270.63Z" fill="#FB9476"/>
<path d="M506.383 265.802C506.185 265.772 505.998 265.675 505.86 265.513C505.55 265.154 505.588 264.614 505.947 264.302C506.048 264.214 508.465 262.155 511.179 262.873C511.637 262.995 511.911 263.467 511.79 263.927C511.666 264.385 511.192 264.656 510.736 264.538C508.91 264.055 507.09 265.589 507.071 265.605C506.873 265.774 506.62 265.838 506.383 265.802Z" fill="#FB9476"/>
<path d="M556.964 276.925H556.97H556.964ZM552.645 281.269C552.297 281.217 551.989 280.955 551.919 280.55C551.852 280.17 552.075 279.797 552.425 279.629C554.542 278.625 556.582 277.334 556.938 276.788C556.645 275.219 555.483 268.985 555.059 266.703C554.971 266.235 555.279 265.79 555.747 265.702C556.213 265.615 556.662 265.921 556.75 266.387C557.189 268.745 558.412 275.308 558.655 276.607C558.741 277.056 558.996 278.42 553.14 281.195C552.98 281.271 552.807 281.293 552.645 281.269Z" fill="#FB9476"/>
<path d="M541.719 264.505C541.371 266.941 539.993 268.76 538.635 268.569C537.273 268.377 536.449 266.241 536.796 263.803C536.933 262.845 537.229 261.983 537.621 261.3C535.17 261.057 534.584 259.425 534.584 259.425C536.124 259.87 538.275 259.832 539.298 259.783C539.662 259.76 539.884 259.741 539.884 259.741C541.242 259.933 542.068 262.063 541.719 264.505Z" fill="#181818"/>
<path d="M539.89 259.741C539.89 259.741 539.667 259.76 539.303 259.781C539.496 259.73 539.692 259.711 539.89 259.741Z" fill="#181818"/>
<path d="M575.683 263.833C575.19 262.815 574.543 261.801 573.845 260.889C573.142 259.97 572.351 259.135 571.504 258.401C570.664 257.655 569.739 257.045 568.783 256.556C567.839 256.035 566.809 255.75 565.814 255.493L565.711 255.468C564.629 255.191 563.979 254.088 564.256 253.007C564.532 251.925 565.635 251.273 566.715 251.551C566.841 251.583 566.968 251.63 567.081 251.684C568.338 252.281 569.557 252.937 570.597 253.812C571.651 254.656 572.592 255.609 573.38 256.653C574.176 257.688 574.853 258.785 575.413 259.928C575.97 261.079 576.421 262.233 576.74 263.49C576.816 263.789 576.637 264.091 576.339 264.167C576.078 264.234 575.814 264.105 575.702 263.871L575.683 263.833Z" fill="#111111"/>
<path d="M529.332 256.454C530.197 255.269 531.159 254.24 532.23 253.266C533.299 252.3 534.472 251.431 535.743 250.68C537.004 249.915 538.388 249.312 539.841 248.871C541.294 248.388 542.839 248.211 544.396 248.11C545.509 248.038 546.469 248.883 546.541 249.995C546.612 251.108 545.769 252.068 544.657 252.14C544.546 252.148 544.436 252.144 544.33 252.135L544.2 252.121C543.01 251.998 541.775 251.897 540.543 252.085C539.309 252.23 538.063 252.521 536.859 252.989C535.651 253.441 534.469 254.023 533.343 254.727C532.228 255.429 531.133 256.256 530.195 257.156L530.165 257.184C529.944 257.397 529.592 257.388 529.379 257.167C529.189 256.969 529.176 256.667 529.332 256.454Z" fill="#111111"/>
<path d="M528.355 234.183C528.355 234.183 544.311 255.961 581.591 254.896C601.648 254.324 584.229 223.004 554.332 221.243C524.433 219.484 528.355 234.183 528.355 234.183Z" fill="#002014"/>
<path d="M581.687 251.488C581.687 251.488 583.928 268.096 580.084 276.986C580.084 276.986 587.292 262.119 585.044 252.722C582.796 243.325 581.687 251.488 581.687 251.488Z" fill="#181818"/>
<path d="M538.351 234.248C538.351 234.248 520.582 264.539 524.93 288.991C529.274 313.441 535.62 332.907 518.095 334.732C500.75 336.541 489.245 329.729 473.715 335.87H473.711C473.549 335.936 473.39 335.999 473.224 336.068C472.817 336.235 472.452 336.336 472.115 336.381C469.426 336.727 468.911 333.217 469.919 327.226C470.278 325.107 470.824 322.684 471.53 320.008C474.801 307.618 481.53 289.891 488.838 272.854C494.58 259.474 500.679 246.519 505.748 236.911C507.594 233.411 509.306 230.361 510.81 227.887C526.851 201.575 562.575 208.994 562.575 208.994L538.351 234.248Z" fill="#002014"/>
<path d="M506.814 238.062C506.65 238.361 497.601 255.002 488.836 272.853C481.683 287.417 474.72 302.792 472.915 310.76C472.139 314.193 471.711 317.274 471.525 320.009C470.935 328.754 472.826 333.963 473.706 335.869C473.547 335.935 473.385 336 473.221 336.066C472.814 336.236 472.447 336.336 472.111 336.38C471.413 334.838 470.331 331.816 469.916 327.225C469.528 322.982 469.714 317.394 471.297 310.393C475.361 292.434 504.136 239.511 505.357 237.267C505.446 237.102 505.585 236.984 505.745 236.912C505.973 236.807 506.245 236.807 506.481 236.938C506.884 237.155 507.034 237.659 506.814 238.062Z" fill="#002014"/>
<g opacity="0.399994">
<g opacity="0.399994">
<g opacity="0.399994">
<g opacity="0.399994">
<g opacity="0.399994">
<g opacity="0.399994">
<path opacity="0.399994" d="M559.44 254.942C559.44 254.942 540.083 249.063 534.57 270.345C529.054 291.624 548.136 301.179 560.239 298.84C572.344 296.499 580.307 258.551 559.44 254.942Z" fill="#FFC29C"/>
</g>
</g>
</g>
</g>
</g>
</g>
<path d="M540.134 252.681C532.894 252.681 527.006 258.572 527.006 265.812C527.006 273.05 532.894 278.94 540.134 278.94C547.374 278.94 553.263 273.05 553.263 265.812C553.263 258.572 547.374 252.681 540.134 252.681ZM540.134 280.747C531.897 280.747 525.197 274.047 525.197 265.812C525.197 257.575 531.897 250.875 540.134 250.875C548.371 250.875 555.071 257.575 555.071 265.812C555.071 274.047 548.371 280.747 540.134 280.747Z" fill="white"/>
<path d="M573.224 259.392C565.984 259.392 560.096 265.282 560.096 272.52C560.096 279.761 565.984 285.651 573.224 285.651C580.465 285.651 586.353 279.761 586.353 272.52C586.353 265.282 580.465 259.392 573.224 259.392ZM573.224 287.458C564.987 287.458 558.287 280.757 558.287 272.52C558.287 264.285 564.987 257.585 573.224 257.585C581.461 257.585 588.161 264.285 588.161 272.52C588.161 280.757 581.461 287.458 573.224 287.458Z" fill="white"/>
<path d="M559.139 268.642C557.547 266.189 554.614 267.227 554.489 267.273L553.869 265.576C555.388 265.021 558.76 264.741 560.655 267.657L559.139 268.642Z" fill="white"/>
<path d="M582.891 611.712C578.713 614.711 573.019 623.673 563.129 626.818C506.95 644.694 454.524 610 454.524 610C451.411 594.614 453.337 577.133 458.52 570.733C456.89 568.46 457.968 565.742 457.968 565.742L433.229 519.879C433.828 520.256 472.036 544.409 500.349 561.52H500.361C508.52 566.448 515.855 570.792 521.23 573.81C529.432 578.415 539.902 578.865 550.16 577.452C570.155 574.689 589.337 564.837 589.337 564.837C589.337 564.837 637.178 536.627 649.252 537.601C658.64 538.354 624.671 590.118 582.891 611.712Z" fill="#108E59"/>
<path d="M477.08 658.116C477.08 658.116 474.056 658.683 469.142 659.691C467.742 659.978 466.19 660.296 464.515 660.651C462.29 661.121 459.844 661.646 457.235 662.226C455.747 662.555 454.207 662.901 452.623 663.261C432.927 667.747 406.847 674.571 396.345 681.243C395.609 681.71 394.894 682.174 394.207 682.64C378.205 693.399 374.932 702.69 371.963 700.805C368.865 698.842 368.171 690.786 373.226 685.489C376.725 681.819 379.175 676.465 383.875 670.678C385.145 669.113 386.579 667.515 388.243 665.91C395.594 658.827 407.357 651.507 413.926 645.88C414.35 645.518 414.751 645.161 415.129 644.813C420.536 639.826 422.646 629.564 432.512 626.445C437.334 624.923 443.111 625.516 448.686 626.987C449.677 627.247 450.662 627.538 451.63 627.846C453.081 628.31 454.5 628.82 455.867 629.347C457.756 630.087 459.547 630.864 461.181 631.627C462.746 632.357 464.172 633.073 465.401 633.715C468.366 635.269 470.199 636.424 470.199 636.424L477.08 658.116Z" fill="white"/>
<path d="M448.68 626.987C442.849 634.619 429.42 649.208 413.92 645.881C414.344 645.518 414.745 645.162 415.124 644.813C420.531 639.826 422.642 629.564 432.507 626.444C437.328 624.923 443.106 625.518 448.68 626.987Z" fill="#80D7B2"/>
<path d="M394.206 682.639C378.204 693.398 374.931 702.689 371.964 700.806C368.864 698.843 368.172 690.785 373.225 685.488C376.726 681.818 379.176 676.466 383.874 670.679C387.833 673.488 392.044 677.47 394.206 682.639Z" fill="#80D7B2"/>
<path d="M469.137 659.691C467.737 659.976 466.187 660.296 464.51 660.651C461.596 655.33 460.134 648.841 460.223 641.439C460.269 637.698 460.699 634.299 461.176 631.627C462.743 632.358 464.168 633.073 465.396 633.715C465.048 635.965 464.769 638.643 464.736 641.528C464.67 647.361 465.63 654.041 469.137 659.691Z" fill="#80D7B2"/>
<path d="M455.863 629.347C454.496 628.82 453.077 628.31 451.626 627.846C450.685 630.579 449.336 635.184 448.728 640.598C447.741 649.373 449.079 657.079 452.619 663.26C454.203 662.901 455.744 662.555 457.231 662.226C449.745 650.76 453.863 635.222 455.863 629.347Z" fill="#80D7B2"/>
<path d="M713.234 574.855C692.144 600.611 644.725 626.958 594.01 642.245C576.401 647.553 561.283 651.537 548.381 654.523C538.222 656.879 529.431 658.61 521.887 659.875C492.758 664.761 482.052 662.726 482.052 662.726C482.052 662.726 464.078 656.946 471.784 627.749C471.784 627.749 505.858 619.917 532.259 606.867C537.642 604.208 542.708 601.328 547.099 598.253C548.128 597.532 549.152 596.8 550.163 596.056C574.701 578.082 595.682 553.668 650.978 531.599C650.978 531.599 679.9 514.035 703.148 521.911C706.615 523.082 709.898 524.775 712.865 527.111C729.711 540.366 727.473 557.477 713.234 574.855Z" fill="#0CAD69"/>
<path d="M609.945 634.354L598.952 635.864L532.268 606.867C537.65 604.206 542.715 601.329 547.108 598.253C548.135 597.532 549.16 596.8 550.172 596.057L609.945 634.354Z" fill="#108E59"/>
<path d="M548.388 654.522C538.228 656.879 529.438 658.609 521.893 659.874C500.672 654.111 475.263 643.358 475.263 643.358L476.918 630.179L548.388 654.522Z" fill="#108E59"/>
<path d="M713.232 574.856C695.826 551.462 699.284 531.873 703.147 521.911C706.616 523.084 709.896 524.775 712.865 527.111C729.71 540.366 727.471 557.477 713.232 574.856Z" fill="#108E59"/>
<path d="M474.683 636.457C492.417 632.984 528.889 618.098 572.245 596.636C604.672 580.584 642.163 559.9 647.853 552.416C650.927 548.374 651.802 544.997 650.453 542.38C648.435 538.464 642.175 537.802 639.312 537.709C638.574 537.684 637.97 538.283 637.992 539.023C638.013 539.692 638.544 540.233 639.215 540.255C642.028 540.356 646.904 541.046 648.19 543.547C649.259 545.626 647.494 548.679 645.824 550.873C641.235 556.91 609.816 575.194 571.116 594.352C537.792 610.848 494.829 629.916 474.194 633.958L474.683 636.457Z" fill="#108E59"/>
<path d="M478.514 624.111C479.832 639.687 483.248 653.942 491.54 665.113C491.54 665.113 483.818 670.191 477.137 666.028C472.035 662.848 462.984 638.221 467.377 625.467C471.852 623.265 475.66 622.592 478.514 624.111Z" fill="#108E59"/>
<path d="M600.635 664.405C600.635 664.405 603.615 665.166 608.453 666.495C609.83 666.871 611.359 667.294 613.008 667.756C615.197 668.37 617.603 669.055 620.168 669.804C621.631 670.23 623.147 670.675 624.702 671.137C644.063 676.904 669.641 685.42 679.683 692.761C680.389 693.279 681.071 693.788 681.727 694.298C696.99 706.08 699.65 715.563 702.733 713.879C705.955 712.124 707.172 704.129 702.477 698.513C699.223 694.621 697.129 689.119 692.819 683.035C691.653 681.392 690.328 679.703 688.772 677.993C681.9 670.443 670.642 662.372 664.455 656.326C664.055 655.938 663.677 655.555 663.323 655.181C658.255 649.852 656.819 639.475 647.178 635.715C642.468 633.882 636.663 634.095 631.005 635.198C629.997 635.394 628.995 635.618 628.01 635.864C626.53 636.233 625.083 636.647 623.683 637.085C621.751 637.699 619.914 638.359 618.232 639.011C616.621 639.639 615.153 640.259 613.885 640.822C610.825 642.176 608.919 643.207 608.919 643.207L600.635 664.405Z" fill="white"/>
<path d="M631.006 635.197C636.325 643.197 648.773 658.63 664.455 656.325C664.056 655.937 663.679 655.555 663.324 655.182C658.255 649.851 656.819 639.475 647.179 635.715C642.468 633.883 636.666 634.096 631.006 635.197Z" fill="#80D7B2"/>
<path d="M681.725 694.298C696.987 706.08 699.648 715.564 702.731 713.879C705.953 712.124 707.17 704.128 702.474 698.512C699.22 694.621 697.128 689.119 692.817 683.035C688.682 685.58 684.22 689.281 681.725 694.298Z" fill="#80D7B2"/>
<path d="M608.454 666.494C609.831 666.871 611.358 667.293 613.009 667.755C616.263 662.637 618.148 656.257 618.544 648.864C618.741 645.129 618.536 641.709 618.234 639.012C616.623 639.638 615.153 640.258 613.884 640.821C614.087 643.088 614.19 645.777 614.034 648.661C613.719 654.484 612.323 661.085 608.454 666.494Z" fill="#80D7B2"/>
<path d="M620.17 669.804C621.632 670.23 623.146 670.675 624.704 671.137C628.639 665.201 630.48 657.6 630.069 648.777C629.814 643.336 628.77 638.653 628.009 635.863C626.531 636.232 625.084 636.647 623.684 637.084C625.297 643.075 628.388 658.849 620.17 669.804Z" fill="#80D7B2"/>
<path d="M606.276 634.856C612.054 664.498 593.743 669.087 593.743 669.087C593.743 669.087 566.457 672.444 483.365 641.328C435.458 623.389 391.285 595.354 370.878 569.067C355.894 549.767 353.724 531.401 372.295 518.664C376.574 515.729 381.371 514.048 386.363 513.265C409.355 509.657 436.515 525.13 436.515 525.13C492.469 551.828 478.464 561.003 525.126 590.727C551.813 607.726 606.276 634.856 606.276 634.856Z" fill="#0CAD69"/>
<path d="M386.363 513.265C387.253 523.287 388.778 556.8 370.878 569.067C355.894 549.767 353.724 531.401 372.297 518.664C376.576 515.729 381.371 514.048 386.363 513.265Z" fill="#108E59"/>
<path d="M602.82 643.356C585.35 638.731 549.93 621.491 508.07 597.239C476.764 579.101 440.707 556.008 435.518 548.169C432.715 543.933 432.063 540.506 433.579 537.985C435.849 534.207 442.141 533.958 445.003 534.051C445.741 534.076 446.304 534.713 446.234 535.447C446.169 536.115 445.602 536.619 444.933 536.6C442.118 536.516 437.209 536.885 435.762 539.299C434.558 541.301 436.121 544.462 437.643 546.763C441.827 553.085 471.985 573.387 509.348 595.036C541.522 613.676 583.146 635.513 603.473 640.894L602.82 643.356Z" fill="#108E59"/>
<path d="M599.8 630.786C597.464 646.245 593.124 660.242 584.119 670.847C584.119 670.847 591.492 676.419 598.43 672.703C603.729 669.866 614.372 645.883 610.825 632.869C606.502 630.378 602.747 629.459 599.8 630.786Z" fill="#108E59"/>
<path d="M683.577 512.719C677.374 520.657 668.815 525.098 662.022 529.639C645.683 540.565 612.532 547.473 615.023 509.835C617.519 472.202 645.989 487.452 625.042 421.352C616.102 393.149 609.944 335.014 609.944 335.014C609.944 335.014 656.74 367.798 684.429 448.653C686.588 454.952 688.22 460.701 689.399 465.956C694.755 489.828 690.725 503.586 683.577 512.719Z" fill="#FB4C47"/>
<path d="M683.574 512.719C673.422 494.592 681.842 476.673 689.396 465.956C694.751 489.828 690.721 503.586 683.574 512.719Z" fill="#B63A37"/>
<path d="M614.915 516.572C614.397 516.572 613.932 516.212 613.821 515.685C613.753 515.364 612.18 507.705 615.303 497.523C618.173 488.175 625.734 474.875 645.466 464.604C646.018 464.316 646.693 464.531 646.978 465.079C647.265 465.629 647.05 466.306 646.503 466.591C627.518 476.475 620.244 489.16 617.484 498.063C614.489 507.715 615.997 515.145 616.012 515.219C616.141 515.824 615.753 516.419 615.149 516.547C615.069 516.564 614.991 516.572 614.915 516.572Z" fill="#B63A37"/>
<path d="M631.917 475.561C631.765 475.576 631.605 475.559 631.451 475.508C630.862 475.31 630.546 474.675 630.746 474.089C634.378 463.275 636.706 458.646 636.803 458.454C637.083 457.902 637.756 457.682 638.309 457.963C638.861 458.243 639.082 458.916 638.802 459.468C638.777 459.513 636.44 464.173 632.87 474.802C632.724 475.234 632.343 475.519 631.917 475.561Z" fill="#B63A37"/>
<path d="M633.183 470.636C632.565 470.636 632.063 470.134 632.063 469.516C632.063 447.486 602.626 397.609 602.328 397.106C602.012 396.574 602.187 395.885 602.719 395.57C603.252 395.254 603.938 395.431 604.256 395.962C605.483 398.031 634.303 446.876 634.303 469.516C634.303 470.134 633.803 470.636 633.183 470.636Z" fill="#B63A37"/>
<path d="M612.346 414.025C612.113 414.025 611.877 413.953 611.675 413.802C607.866 410.955 598.227 408.437 598.13 408.413C597.531 408.258 597.172 407.646 597.328 407.049C597.482 406.448 598.094 406.088 598.691 406.244C599.104 406.351 608.855 408.896 613.018 412.007C613.512 412.378 613.615 413.08 613.244 413.576C613.024 413.869 612.687 414.025 612.346 414.025Z" fill="#B63A37"/>
<path d="M598.626 571.348C598.809 573.338 598.98 575.416 599.224 577.094C599.682 580.264 600.405 581.999 601.981 578.984C602.331 578.305 602.615 577.438 602.847 576.441C604.205 570.626 603.758 560.39 604.385 558.159C605.095 555.624 608.052 548.414 608.311 548.007C608.177 548.307 606.844 552.716 606.69 555.436C606.544 557.986 606.69 561.086 606.69 567.366C606.69 570.104 606.791 572.936 607.137 574.996V575.002C607.582 577.664 608.442 579.02 610.037 577.174C610.823 576.265 611.325 574.669 611.652 572.78C612.512 567.875 612.204 560.949 612.656 558.682C613.265 555.643 615.732 550.732 615.889 550.424C614.954 553.551 614.954 553.243 614.435 557.351C614.067 560.221 613.398 567.856 614.107 571.278C614.408 572.754 614.973 573.45 615.927 572.642C617.417 571.381 618.451 569.532 619.182 567.417C620.003 565.044 620.437 562.33 620.713 559.73C621.234 554.808 623.225 551.774 623.225 551.774C622.12 557.105 621.515 562.261 621.842 564.924C622.069 566.807 622.759 567.442 624.06 566.01C626.597 563.222 629.159 554.003 630.045 550.536C630.075 550.43 630.1 550.323 630.125 550.223C630.157 550.116 630.176 550.023 630.203 549.933C630.321 549.469 630.383 549.205 630.383 549.205L630.389 549.199C631.125 546.31 631.789 543.422 632.763 540.835C634.208 536.991 636.355 533.808 640.488 532.277C649.864 528.791 646.985 510.959 633.843 509.888C630.014 509.576 626.224 510.845 623.219 513.237C621.306 514.761 618.607 516.889 615.876 518.975L615.87 518.981C615.608 519.316 607.061 529.901 604.385 536.495C601.667 543.189 599.362 553.764 598.839 556.797C598.313 559.831 598.107 565.589 598.626 571.348Z" fill="#FAB893"/>
<path d="M392.045 521.514C398.287 529.653 406.898 534.208 413.733 538.865C430.173 550.069 463.528 557.15 461.022 518.556C458.511 479.967 429.867 495.606 450.943 427.824C459.937 398.905 461.022 341.272 461.022 341.272C461.022 341.272 419.049 372.908 391.188 455.82C389.016 462.277 387.374 468.172 386.19 473.563C380.801 498.042 384.856 512.149 392.045 521.514Z" fill="#FB4C47"/>
<path d="M392.304 523.099C402.456 504.97 394.037 487.053 386.484 476.336C381.129 500.208 385.159 513.966 392.304 523.099Z" fill="#B63A37"/>
<path d="M460.963 526.952C461.48 526.952 461.946 526.592 462.057 526.065C462.125 525.744 463.698 518.085 460.573 507.903C457.705 498.555 450.143 485.256 430.41 474.982C429.86 474.696 429.185 474.911 428.898 475.459C428.613 476.007 428.826 476.684 429.375 476.971C448.359 486.853 455.634 499.54 458.395 508.443C461.387 518.093 459.881 525.525 459.866 525.599C459.738 526.204 460.124 526.798 460.729 526.927C460.807 526.944 460.885 526.952 460.963 526.952Z" fill="#B63A37"/>
<path d="M443.965 485.94C444.119 485.956 444.277 485.939 444.432 485.887C445.018 485.689 445.334 485.054 445.138 484.468C441.504 473.655 439.176 469.025 439.079 468.833C438.799 468.282 438.126 468.061 437.573 468.343C437.021 468.622 436.8 469.295 437.08 469.849C437.103 469.893 439.442 474.552 443.014 485.182C443.158 485.613 443.539 485.899 443.965 485.94Z" fill="#B63A37"/>
<path d="M442.696 481.015C443.316 481.015 443.816 480.513 443.816 479.895C443.816 457.866 473.255 407.988 473.552 407.486C473.869 406.953 473.692 406.265 473.16 405.949C472.629 405.633 471.941 405.81 471.625 406.343C470.397 408.41 441.576 457.255 441.576 479.895C441.576 480.513 442.078 481.015 442.696 481.015Z" fill="#B63A37"/>
<path d="M463.534 424.405C463.768 424.405 464.002 424.333 464.203 424.181C468.013 421.334 477.651 418.818 477.748 418.793C478.347 418.639 478.709 418.026 478.553 417.427C478.397 416.828 477.784 416.469 477.187 416.623C476.774 416.729 467.024 419.276 462.86 422.387C462.366 422.756 462.265 423.46 462.634 423.956C462.855 424.249 463.191 424.405 463.534 424.405Z" fill="#B63A37"/>
<path d="M477.254 581.727C477.071 583.718 476.902 585.797 476.659 587.472C476.198 590.642 475.476 592.379 473.901 589.364C473.549 588.684 473.266 587.818 473.034 586.82C471.678 581.004 472.123 570.768 471.495 568.539C470.786 566.002 467.828 558.794 467.572 558.387C467.703 558.688 469.036 563.096 469.19 565.816C469.336 568.364 469.19 571.466 469.19 577.746C469.19 580.485 469.091 583.317 468.745 585.376V585.382C468.3 588.045 467.438 589.401 465.843 587.554C465.059 586.645 464.557 585.049 464.23 583.159C463.37 578.254 463.677 571.327 463.226 569.06C462.615 566.021 460.149 561.111 459.991 560.804C460.926 563.931 460.926 563.623 461.448 567.731C461.813 570.599 462.484 578.235 461.775 581.658C461.474 583.134 460.907 583.83 459.953 583.022C458.465 581.759 457.429 579.912 456.701 577.797C455.877 575.424 455.445 572.71 455.168 570.11C454.647 565.186 452.657 562.153 452.657 562.153C453.762 567.486 454.365 572.641 454.038 575.302C453.812 577.187 453.121 577.82 451.82 576.388C449.283 573.602 446.722 564.382 445.837 560.917C445.805 560.81 445.78 560.702 445.755 560.603C445.723 560.494 445.706 560.401 445.679 560.314C445.561 559.85 445.499 559.585 445.499 559.585L445.491 559.578C444.757 556.691 444.091 553.802 443.118 551.215C441.674 547.372 439.527 544.188 435.394 542.655C426.016 539.171 428.896 521.339 442.037 520.266C445.868 519.955 449.658 521.223 452.663 523.616C454.576 525.141 457.273 527.269 460.004 529.355L460.01 529.361C460.274 529.694 468.821 540.281 471.495 546.875C474.215 553.57 476.52 564.144 477.041 567.177C477.568 570.209 477.775 575.97 477.254 581.727Z" fill="#FAB893"/>
</svg>
