<svg xmlns="http://www.w3.org/2000/svg" viewBox="0 0 76.42 76.42"><defs><style>.cls-1{fill:#f5c330;stroke:#f5c330;}.cls-1,.cls-2,.cls-3,.cls-4,.cls-5,.cls-6{stroke-miterlimit:10;}.cls-2{fill:#fb4c47;}.cls-2,.cls-3,.cls-4,.cls-5,.cls-6{stroke:#fff;}.cls-3{fill:#ffa2a1;}.cls-4{fill:#ff807e;}.cls-5{fill:#ffbfbe;}.cls-6{fill:#ffa2a2;}</style></defs><g id="Layer_2" data-name="Layer 2"><rect class="cls-1" x="0.5" y="0.5" width="75.42" height="75.42" rx="4.25"/></g><g id="Layer_1" data-name="Layer 1"><path class="cls-2" d="M43.77,33a1.77,1.77,0,0,0,1.77,1.76h4a13,13,0,0,1,5.9,1.4,3.54,3.54,0,1,0,1.59-6.7,3.41,3.41,0,0,0-1.53.35,13.75,13.75,0,0,1-6,1.42h-4A1.77,1.77,0,0,0,43.77,33Z" transform="translate(6.92 5.23)"/><path class="cls-2" d="M19.81,44.47a1.47,1.47,0,0,0-2.07,0l-2.35,2.35a10.83,10.83,0,0,1-4.26,2.63,2.86,2.86,0,0,0-1.28.86,2.92,2.92,0,1,0,5,2.88,11.32,11.32,0,0,1,2.65-4.31l2.35-2.35A1.45,1.45,0,0,0,19.81,44.47Z" transform="translate(6.92 5.23)"/><path class="cls-2" d="M41,23.26a1.52,1.52,0,0,0,2.16,0l2.46-2.46A11.43,11.43,0,0,1,50.1,18,3.06,3.06,0,1,0,47,13a3,3,0,0,0-.73,1.15,12,12,0,0,1-2.77,4.51L41,21.1A1.52,1.52,0,0,0,41,23.26Z" transform="translate(6.92 5.23)"/><path class="cls-3" d="M31.29,45.47a1.77,1.77,0,0,0-1.77,1.76v4a13,13,0,0,1-1.39,5.89A3.64,3.64,0,0,0,27.76,59a3.54,3.54,0,1,0,6.72-1.78,13.7,13.7,0,0,1-1.42-6v-4A1.76,1.76,0,0,0,31.29,45.47Z" transform="translate(6.92 5.23)"/><path class="cls-2" d="M34.48,57.21a13.7,13.7,0,0,1-1.42-6v-4a1.77,1.77,0,0,0-3.53,0v4a13.7,13.7,0,0,0,1.42,6,3.53,3.53,0,0,1-1.42,4.59,3.39,3.39,0,0,0,1.53.47,3.54,3.54,0,0,0,3.77-3.53A3.41,3.41,0,0,0,34.48,57.21Z" transform="translate(6.92 5.23)"/><path class="cls-4" d="M18.1,25.68a5.78,5.78,0,1,0-5.78-5.77A5.77,5.77,0,0,0,18.1,25.68Z" transform="translate(6.92 5.23)"/><path class="cls-2" d="M18.1,14.13a5.71,5.71,0,0,0-1.77.28,5.78,5.78,0,0,1,0,11,5.7,5.7,0,0,0,1.77.27,5.78,5.78,0,0,0,0-11.55Z" transform="translate(6.92 5.23)"/><path class="cls-5" d="M31.29,51.85A18.87,18.87,0,1,0,12.43,33,18.87,18.87,0,0,0,31.29,51.85Z" transform="translate(6.92 5.23)"/><path class="cls-6" d="M31.3,14.12a17.19,17.19,0,0,0-1.77.09,18.86,18.86,0,0,1,0,37.55,17.19,17.19,0,0,0,1.77.09,18.87,18.87,0,0,0,0-37.73Z" transform="translate(6.92 5.23)"/><path class="cls-3" d="M38.36,30.37a3.83,3.83,0,1,0-3.83-3.83A3.84,3.84,0,0,0,38.36,30.37Z" transform="translate(6.92 5.23)"/><path class="cls-4" d="M38.37,22.71a3.77,3.77,0,0,0-1.77.43,3.84,3.84,0,0,1,0,6.8,3.89,3.89,0,0,0,1.77.43,3.83,3.83,0,1,0,0-7.66Z" transform="translate(6.92 5.23)"/><path class="cls-4" d="M24.55,43A2.6,2.6,0,1,0,22,40.35,2.59,2.59,0,0,0,24.55,43Z" transform="translate(6.92 5.23)"/><path class="cls-2" d="M44.12,50.51A3.54,3.54,0,1,0,40.59,47,3.53,3.53,0,0,0,44.12,50.51Z" transform="translate(6.92 5.23)"/><path class="cls-4" d="M44.13,43.44a3.52,3.52,0,0,0-1.77.47,3.54,3.54,0,0,1,0,6.13,3.54,3.54,0,1,0,1.77-6.6Z" transform="translate(6.92 5.23)"/><path class="cls-2" d="M18.81,33A1.76,1.76,0,0,1,17,34.75H13a13,13,0,0,0-5.89,1.4,3.54,3.54,0,1,1-1.59-6.7,3.41,3.41,0,0,1,1.53.35A13.7,13.7,0,0,0,13,31.22h4A1.77,1.77,0,0,1,18.81,33Z" transform="translate(6.92 5.23)"/><path class="cls-3" d="M31.29,20.51a1.77,1.77,0,0,0,1.77-1.77v-4a13.12,13.12,0,0,1,1.39-5.9A3.43,3.43,0,0,0,34.82,7a3.53,3.53,0,0,0-7.06.24,3.41,3.41,0,0,0,.35,1.53,13.88,13.88,0,0,1,1.41,6v4A1.78,1.78,0,0,0,31.29,20.51Z" transform="translate(6.92 5.23)"/><path class="cls-2" d="M34.82,7A3.55,3.55,0,0,0,31.53,3.7a3.51,3.51,0,0,0-2,.47A3.55,3.55,0,0,1,31.29,7a3.63,3.63,0,0,1-.37,1.83,13,13,0,0,0-1.39,5.9v4a1.77,1.77,0,1,0,3.53,0v-4a13.12,13.12,0,0,1,1.39-5.9A3.43,3.43,0,0,0,34.82,7Z" transform="translate(6.92 5.23)"/><path class="cls-4" d="M57.05,29.45a3.54,3.54,0,0,0-1.53.35l-.25.12a3.52,3.52,0,0,1,1.78,3.3,3.57,3.57,0,0,1-1.78,2.83l.2.09a3.41,3.41,0,0,0,1.83.37,3.53,3.53,0,0,0-.25-7.06Z" transform="translate(6.92 5.23)"/></g></svg>