<svg width="284" height="263" viewBox="0 0 284 263" fill="none" xmlns="http://www.w3.org/2000/svg">
<path d="M107.802 249.259C92.6549 254.626 77.3612 257.105 61.0481 254.006C42.8654 250.55 27.0944 234.99 18.1832 219.472C14.8722 213.708 12.2363 207.268 12.5807 200.631C13.3822 185.299 27.8665 183.586 40.1614 186.066C47.0921 187.46 53.4559 190.635 59.7475 193.779C70.193 199.002 82.4458 201.571 91.8105 208.811C94.9529 211.247 97.3128 214.175 100.964 215.947C106.644 218.707 113.128 220.01 118.962 222.521C123.943 224.676 129.511 228.221 129.518 233.646C129.519 239.209 123.714 242.755 118.614 244.97C115.004 246.548 111.41 247.987 107.802 249.259Z" fill="url(#paint0_linear)"/>
<path d="M52.0501 51.4966C76.8631 14.9295 128.172 0.247134 169.761 13.9956C189.816 20.6286 206.623 34.4404 222.125 48.7783C235.789 61.4152 249.045 75.0453 258.377 91.2908C264.748 102.38 269.309 115.672 272.529 128.081C277.344 146.662 272.971 170.603 248.952 168.849C243.317 168.438 238.442 166.412 233.171 164.639C228.908 163.202 224.73 164.064 220.304 163.362C209.162 161.598 198.429 157.496 188.28 152.691C167.596 142.891 148.697 129.576 127.425 120.988C109.993 113.959 91.3767 110.33 72.5808 110.297C64.6512 110.284 56.3135 110.839 49.2203 107.293C31.7374 98.5459 39.5993 74.9595 46.1286 61.6913C47.8584 58.157 49.8372 54.7502 52.0501 51.4966Z" fill="url(#paint1_linear)"/>
<path d="M246.597 57.016C250.682 60.7159 266.732 70.8163 267.041 58.9634C267.114 56.0106 265.775 53.1435 263.952 50.981C261.867 48.4989 259.502 47.1969 257.874 44.3052C255.881 40.8136 253.613 37.5321 251.099 34.503C245.959 28.1984 239.958 22.3731 232.676 19.7777C227.569 17.9594 218.922 18.4167 216.496 24.9621C212.962 34.4905 228.074 36.2364 232.683 39.7089C237.057 42.9957 239.534 48.6433 242.999 53.1317C244.094 54.547 245.298 55.8473 246.597 57.016Z" fill="url(#paint2_linear)"/>
<path d="M171.059 45.4262C179.712 50.5205 186.202 58.1458 194.091 64.287C207.225 74.5099 225.228 76.6013 240.29 83.7106C255.648 90.9642 267.245 102.237 272.488 118.484C279.262 139.456 279.906 164.396 274.151 185.956C267.813 209.688 252.929 225.452 231.168 235.965C209.419 246.472 185.326 251.375 161.296 252.387C158.977 252.486 156.662 252.54 154.338 252.555C102.135 252.858 32.6502 234.483 14.8773 178.405C14.7144 177.892 14.5583 177.38 14.4017 176.86C12.5704 170.612 11.4936 164.168 11.1944 157.664C10.0765 134.607 14.1118 109.158 22.1954 87.5437C27.6323 72.992 39.3397 60.6878 51.6763 51.9209C69.009 39.6044 90.1575 36.4611 111.206 34.9834C126.793 33.8898 144.323 33.4902 159.063 39.4522C163.205 41.141 167.215 43.1379 171.059 45.4262Z" fill="url(#paint3_linear)"/>
<path d="M73.3902 80.7609C73.3902 80.7609 126.466 151.628 139.743 157.488C153.024 163.351 169.672 162.031 171.128 168.829C172.584 175.631 143.255 164.126 147.934 174.618C152.612 185.114 170.846 197.094 170.932 207.66C171.021 218.23 141.917 184.973 141.917 184.973C141.917 184.973 169.339 215.4 160.259 216.119C151.175 216.839 127.688 187.091 127.688 187.091C127.688 187.091 153.961 226.115 145.251 222.55C136.546 218.986 55.8046 125.618 43.3535 115.738C30.9025 105.862 73.3902 80.7609 73.3902 80.7609Z" fill="#E27B5A"/>
<path d="M227.787 97.9633C227.787 97.9633 167.251 162.555 153.407 166.92C139.563 171.282 123.163 168.14 120.966 174.735C118.773 181.332 149.187 173.129 143.382 183.046C137.581 192.959 118.143 202.858 116.894 213.354C115.65 223.846 148.228 193.998 148.228 193.998C148.228 193.998 117.628 221.22 126.574 222.934C135.525 224.651 162.138 197.669 162.138 197.669C162.138 197.669 131.735 233.567 140.781 230.982C149.828 228.397 240.338 144.486 253.797 136.037C267.259 127.589 227.787 97.9633 227.787 97.9633Z" fill="#FFCEB0"/>
<path d="M176.25 142.813C176.25 142.813 194.869 178.07 211.985 181.821C229.099 185.572 266.071 152.105 274.138 135.528C282.208 118.954 242.877 68.7976 234.46 61.5836C222.301 60.0992 167.618 111.386 176.25 142.813Z" fill="#FB4C47"/>
<path d="M60.721 46.5544C60.721 46.5544 121.959 106.907 119.057 122.578C116.159 138.252 92.7756 157.027 73.917 163.175C55.0585 169.321 13.8298 144.564 13.8298 126.511C10.8234 95.8506 26.4547 63.9884 60.721 46.5544Z" fill="#128E5A"/>
<defs>
<linearGradient id="paint0_linear" x1="11.2362" y1="202.747" x2="26.9514" y2="257.314" gradientUnits="userSpaceOnUse">
<stop stop-color="#FFD0D0"/>
<stop offset="1" stop-color="#FFF8F8"/>
</linearGradient>
<linearGradient id="paint1_linear" x1="304.772" y1="56.8231" x2="128.881" y2="16.2075" gradientUnits="userSpaceOnUse">
<stop stop-color="#FFF8F8"/>
<stop offset="1" stop-color="#FFD0D0"/>
</linearGradient>
<linearGradient id="paint2_linear" x1="267.458" y1="58.7556" x2="207.112" y2="32.9808" gradientUnits="userSpaceOnUse">
<stop stop-color="#FFD0D0"/>
<stop offset="1" stop-color="#FFF7F7"/>
</linearGradient>
<linearGradient id="paint3_linear" x1="253.838" y1="228.727" x2="11.2439" y2="88.2414" gradientUnits="userSpaceOnUse">
<stop stop-color="#FFCFCF"/>
<stop offset="1" stop-color="#FFF8F8"/>
</linearGradient>
</defs>
</svg>
