<svg id="Layer_3" data-name="Layer 3" xmlns="http://www.w3.org/2000/svg" viewBox="0 0 70.43 75.77"><defs><style>.cls-1{fill:#fb4c47;}.cls-2,.cls-3{fill:#fff;}.cls-2,.cls-4{stroke:#fff;stroke-miterlimit:10;}.cls-4{fill:#f5c330;}</style></defs><path class="cls-1" d="M188.91,112.48H125c-1.75,0-3.27-2.09-3.27-4.73V41.44c0-2.53,1.44-4.73,3.27-4.73h63.88c1.75,0,3.27,2.09,3.27,4.73v66.31C192.11,110.39,190.66,112.48,188.91,112.48Z" transform="translate(-121.76 -36.71)"/><rect class="cls-2" x="14.9" y="56.63" width="40.62" height="1.8"/><rect class="cls-3" x="19.34" y="18.59" width="31.74" height="35.4"/><path class="cls-4" d="M157,48.76" transform="translate(-121.76 -36.71)"/><rect class="cls-2" x="11.52" y="61.1" width="47.39" height="2.62"/><rect class="cls-1" x="33.5" y="26.87" width="3.42" height="23.57"/><polygon class="cls-1" points="30.98 26.87 35.1 22.12 39.44 26.87 30.98 26.87"/><polyline class="cls-2" points="19.34 18.59 35.21 12.06 51.08 18.59"/></svg>