<svg xmlns="http://www.w3.org/2000/svg" viewBox="0 0 70.43 75.77"><defs><style>.cls-1{isolation:isolate;}.cls-2{fill:#7dcdcd;}.cls-3{fill:#fff;}.cls-4{fill:#a6a8ab;mix-blend-mode:multiply;}</style></defs><g class="cls-1"><g id="Layer_3" data-name="Layer 3"><path class="cls-2" d="M173.44,119H109.55c-1.75,0-3.27-2.09-3.27-4.73V48c0-2.53,1.45-4.73,3.27-4.73h63.89c1.75,0,3.27,2.09,3.27,4.73v66.32C176.63,116.91,175.19,119,173.44,119Z" transform="translate(-106.28 -43.22)"/><path class="cls-3" d="M123,92c12.89-7.08,25.79,7.09,38.68,0V56.52c-12.89,7.09-25.79-7.09-38.68,0Z" transform="translate(-106.28 -43.22)"/><rect class="cls-3" x="15.64" y="12.29" width="1.09" height="53.91"/><polygon class="cls-4" points="15.64 12.73 16.73 14.08 16.73 12.29 15.64 12.29 15.64 12.73"/><path class="cls-3" d="M123.63,54.47c0,.93-.52,1.68-1.16,1.68s-1.17-.75-1.17-1.68.52-1.67,1.17-1.67S123.63,53.55,123.63,54.47Z" transform="translate(-106.28 -43.22)"/></g></g></svg>