<svg width="329" height="462" viewBox="0 0 329 462" fill="none" xmlns="http://www.w3.org/2000/svg">
<path opacity="0.1" d="M491.204 260.633C485.205 260.382 479.977 264.978 478.43 271.364C469.131 271.98 458.514 272.098 446.872 271.212C440.397 270.708 434.244 269.948 428.493 269.029C428.538 267.909 428.568 266.777 428.582 265.645C428.65 260.138 428.317 254.72 427.648 249.415C430.613 247.174 434.313 244.825 438.791 242.829C446.544 239.338 453.774 238.153 459.349 237.855C462.002 244.174 468.229 247.908 474.25 246.389C481.04 244.68 485.013 236.977 483.097 229.182C481.197 221.385 474.17 216.439 467.381 218.148C461.2 219.712 457.353 226.247 458.16 233.299C453.257 236.046 445.974 239 437.001 239.114C432.578 239.178 428.707 238.528 425.572 237.713C423.678 229.467 420.918 221.554 417.354 214.08C421.26 210.589 425.87 206.894 431.262 203.338C439.067 198.174 446.583 194.504 453.176 191.882C457.392 197.007 464.186 198.777 469.491 195.753C475.584 192.287 477.38 183.781 473.523 176.774C469.666 169.769 461.576 166.909 455.483 170.385C450.194 173.398 448.131 180.214 450.225 186.539C444.536 190.904 437.552 195.501 429.185 199.574C423.5 202.359 418.062 204.463 413.142 206.053C409.219 199.2 404.621 192.797 399.424 186.941C401.543 179.513 405.065 170.851 410.998 162.195C416.573 154.102 422.711 148.22 427.918 144.096C433.556 147.74 440.713 147.273 444.841 142.617C449.535 137.343 448.587 128.709 442.699 123.33C436.842 117.939 428.287 117.843 423.609 123.119C419.481 127.775 419.712 135.033 423.877 140.378C420.472 145.928 415.343 152.801 407.856 159.315C399.595 166.503 391.338 170.766 385.049 173.284C377.998 167.665 370.299 162.875 362.061 159.06C363.299 155.689 364.937 152.301 367.069 148.978C368.778 146.344 370.61 144.031 372.454 142.013C378.727 144.696 385.821 142.908 389.064 137.487C392.714 131.434 390.198 123.121 383.449 118.935C376.7 114.747 368.284 116.259 364.634 122.324C361.44 127.654 362.998 134.725 368.003 139.198C366.915 142.016 365.602 144.938 364.033 147.912C362.251 151.336 360.329 154.486 358.298 157.397C357.456 157.044 356.63 156.705 355.788 156.388C345.97 152.516 335.481 150.018 324.525 149.081C322.782 144.129 321.285 138.646 320.257 132.632C318.173 120.361 318.719 109.711 319.854 101.72C326.318 100.544 331.201 95.4628 331.277 89.3021C331.364 82.2024 325.034 76.3685 317.133 76.2716C309.217 76.1746 302.73 81.8513 302.643 88.951C302.566 95.2171 307.498 100.49 314.092 101.71C315.431 109.615 316.238 120.667 313.878 133.438C312.82 139.06 311.304 144.176 309.555 148.803C299.03 149.276 288.901 151.213 279.316 154.417C278.017 152.257 276.848 149.992 275.811 147.324C273.768 142.04 272.919 137.103 272.602 132.997C278.819 129.805 282.08 122.989 279.983 116.899C277.671 110.201 269.745 106.93 262.274 109.596C254.818 112.262 250.638 119.851 252.967 126.551C254.971 132.33 261.141 135.547 267.586 134.609C269.421 138.558 271.169 143.107 272.511 148.266C273.244 150.998 273.77 153.668 274.169 156.278C265.459 159.66 257.279 164.109 249.743 169.461C245.852 166.525 241.871 163.123 237.944 159.147C228.91 149.991 222.926 140.64 219.011 133.162C223.509 128.228 224.379 121.096 220.721 116.13C216.528 110.448 207.996 109.749 201.664 114.568C195.347 119.389 193.614 127.901 197.791 133.582C201.513 138.602 208.586 139.723 214.563 136.592C220.277 141.928 227.692 150.325 233.356 162.335C235.954 167.827 237.741 173.16 238.989 178.127C237.778 179.231 236.551 180.37 235.371 181.533C229.473 187.402 224.173 193.916 219.616 200.978C216.992 200.176 214.274 199.21 211.495 198.034C202.459 194.207 195.478 189.384 190.421 185.195C192.671 178.803 190.633 171.852 185.275 168.782C179.204 165.294 171.123 168.14 167.238 175.14C163.337 182.136 165.117 190.637 171.22 194.124C176.562 197.191 183.448 195.358 187.679 190.116C193.845 192.368 201.528 195.954 209.422 201.784C211.779 203.526 213.928 205.314 215.933 207.11C209.487 218.575 204.926 231.279 202.669 244.797C197.22 245.203 191.344 245.358 185.042 245.082C176.043 244.692 167.932 243.52 160.847 242.038C160.774 234.953 156.186 228.967 149.874 228.215C142.924 227.387 136.547 233.186 135.619 241.166C134.707 249.146 139.584 256.284 146.518 257.109C152.703 257.845 158.409 253.328 160.263 246.702C167.539 246.941 175.703 247.703 184.542 249.36C190.674 250.507 196.323 251.944 201.556 253.528C201.263 256.601 201.113 259.71 201.074 262.856C200.983 270.327 201.58 277.641 202.834 284.741C196.751 288.719 188.394 293.213 177.773 296.311C168.465 299.027 160.105 299.888 153.447 300.014C151.13 293.686 145.241 289.684 139.209 290.789C132.345 292.051 127.896 299.481 129.3 307.388C130.703 315.295 137.422 320.681 144.286 319.419C150.237 318.328 154.346 312.625 154.443 305.993C161.286 303.826 169.356 301.811 178.519 300.548C189.041 299.097 198.476 298.986 206.421 299.434C209.477 309.248 213.834 318.485 219.237 326.957C216.61 329.016 213.696 331.043 210.4 332.931C204.114 336.549 198.1 338.773 192.879 340.195C189.437 334.445 182.894 331.686 177.184 333.948C170.687 336.535 167.729 344.696 170.607 352.174C172.417 356.867 176.096 360.192 180.2 361.363C182.618 362.064 185.188 362.014 187.611 361.053C188.316 360.767 189.007 360.408 189.635 359.98C194.399 356.856 196.491 350.284 194.573 343.966C199.52 341.449 205.297 338.967 211.931 336.943C216.209 335.646 220.275 334.71 224.099 334.024C227.522 338.639 231.301 342.977 235.354 346.988C235.732 347.37 236.127 347.753 236.505 348.11C233.651 354.374 229.375 361.977 222.976 369.66C216.706 377.18 210.221 382.631 204.763 386.471C199.4 382.498 192.296 382.495 187.885 386.817C182.844 391.744 183.217 400.431 188.717 406.219C194.185 411.994 202.733 412.69 207.758 407.761C212.137 403.485 212.432 396.366 208.828 390.79C213.143 385.215 218.759 378.939 225.907 372.763C233.603 366.134 241.165 361.249 247.754 357.661C256.329 364.017 265.827 369.194 275.982 372.94C275.535 376.839 274.797 381.04 273.609 385.45C271.033 395.056 267.268 402.735 263.862 408.38C257.318 406.965 250.801 409.929 248.511 415.728C245.924 422.314 249.772 430.075 257.11 433.067C264.432 436.058 272.482 433.137 275.101 426.54C277.358 420.812 274.757 414.198 269.198 410.614C270.862 403.781 273.468 395.709 277.533 387.054C279.532 382.834 281.638 378.99 283.788 375.49C291.631 377.745 299.802 379.167 308.257 379.635C309.548 386.376 310.573 393.912 311.014 402.139C311.678 414.378 310.891 425.198 309.633 434.123C303.201 435.307 298.333 440.389 298.258 446.535C298.171 453.635 304.501 459.467 312.434 459.564C320.334 459.661 326.805 453.986 326.892 446.886C326.967 440.764 322.258 435.575 315.889 434.211C314.932 425.058 314.49 414.249 315.244 402.191C315.759 394.057 316.761 386.557 317.993 379.778C326.84 379.544 335.428 378.27 343.644 376.07C344.331 377.304 345.002 378.587 345.656 379.906C350.003 388.604 352.298 396.737 353.512 403.238C347.772 406.53 344.787 413.028 346.775 418.88C349.023 425.594 356.932 428.924 364.419 426.325C371.89 423.716 376.133 416.16 373.869 409.445C371.866 403.487 365.409 400.198 358.755 401.344C355.771 395.988 352.326 387.912 351.224 377.614C351.08 376.338 350.983 375.088 350.934 373.859C360.088 370.763 368.728 366.493 376.695 361.235C381.735 365.508 387.036 370.597 392.293 376.631C400.385 385.907 406.243 395.027 410.459 402.768C406.024 407.691 405.187 414.771 408.814 419.71C413.023 425.388 421.539 426.083 427.871 421.264C434.188 416.448 435.921 407.941 431.744 402.252C428.117 397.347 421.251 396.153 415.373 399.043C409.164 392.49 402.29 384.209 395.693 374.054C391.432 367.49 387.918 361.127 385.038 355.157C388.246 352.59 391.313 349.855 394.254 346.954C399.037 342.201 403.427 337.029 407.326 331.486C414.372 333.578 422.492 336.615 431.089 341.131C439.384 345.469 446.286 350.212 451.835 354.62C449.635 360.892 451.563 367.733 456.793 370.84C462.815 374.441 470.941 371.733 474.953 364.812C478.965 357.878 477.314 349.353 471.292 345.751C466.03 342.61 459.13 344.284 454.821 349.397C448.594 346.9 441.041 343.141 433.241 337.418C425.141 331.48 419.041 325.142 414.638 319.685C417.725 313.968 420.353 307.949 422.473 301.676C425.856 301.836 429.443 302.186 433.139 302.798C442.682 304.378 450.613 307.222 456.708 310.033C456.099 316.75 459.759 322.952 465.661 324.57C472.407 326.422 479.553 321.637 481.628 313.879C483.686 306.119 479.903 298.335 473.141 296.483C467.223 294.851 460.97 298.362 458.133 304.518C451.643 303.897 443.313 302.343 434.244 298.648C430.813 297.237 427.639 295.676 424.754 294.048C426.278 288.23 427.373 282.237 427.975 276.088C433.871 275.677 440.131 275.447 446.723 275.515C458.343 275.623 468.899 276.601 478.157 277.965C479.195 284.454 484.035 289.444 490.018 289.707C497.006 289.992 502.941 283.719 503.247 275.691C503.569 267.663 498.177 260.919 491.204 260.633Z" fill="#FA5652"/>
<path opacity="0.1" d="M146.515 75.0752C144.102 74.9745 141.999 76.8232 141.376 79.392C137.636 79.6398 133.365 79.6872 128.682 79.3309C126.077 79.1281 123.602 78.8224 121.289 78.4528C121.307 78.0022 121.319 77.547 121.325 77.0916C121.352 74.8763 121.218 72.6968 120.949 70.5627C122.141 69.6613 123.63 68.7165 125.431 67.9133C128.55 66.509 131.458 66.0325 133.701 65.9126C134.768 68.4545 137.273 69.9565 139.695 69.3455C142.426 68.658 144.025 65.5596 143.254 62.4237C142.49 59.2872 139.663 57.2978 136.932 57.9853C134.445 58.6144 132.898 61.243 133.223 64.0799C131.25 65.1851 128.321 66.3731 124.711 66.4189C122.932 66.4447 121.375 66.1835 120.114 65.8556C119.352 62.5384 118.241 59.3552 116.808 56.3489C118.379 54.9445 120.234 53.4582 122.402 52.0279C125.542 49.9505 128.566 48.474 131.218 47.4196C132.914 49.4812 135.647 50.1932 137.781 48.9765C140.232 47.5823 140.954 44.1606 139.403 41.342C137.851 38.524 134.597 37.3737 132.146 38.7718C130.018 39.984 129.188 42.7258 130.031 45.2702C127.742 47.0259 124.933 48.875 121.567 50.5138C119.28 51.634 117.093 52.4802 115.114 53.1201C113.536 50.3631 111.686 47.7875 109.595 45.432C110.448 42.4439 111.865 38.9596 114.251 35.4775C116.494 32.2219 118.963 29.8558 121.057 28.1969C123.325 29.6627 126.204 29.4749 127.865 27.6019C129.753 25.4805 129.372 22.0075 127.003 19.8437C124.647 17.6748 121.206 17.6365 119.324 19.7586C117.664 21.6316 117.756 24.5511 119.432 26.7011C118.062 28.9339 115.999 31.6985 112.987 34.3189C109.664 37.2102 106.342 38.9252 103.813 39.938C100.977 37.6778 97.8794 35.7511 94.5655 34.2164C95.0637 32.8602 95.7226 31.4975 96.5802 30.1607C97.2674 29.1011 98.0045 28.1707 98.7465 27.359C101.27 28.4384 104.123 27.7192 105.428 25.5384C106.896 23.1033 105.884 19.7595 103.169 18.0756C100.454 16.391 97.0691 16.9993 95.6007 19.439C94.3158 21.5828 94.9424 24.4273 96.9559 26.2266C96.5182 27.3604 95.9901 28.5355 95.3589 29.7321C94.6421 31.1091 93.8688 32.3764 93.0518 33.5473C92.7132 33.4055 92.381 33.269 92.0422 33.1415C88.0928 31.584 83.8734 30.579 79.4664 30.2021C78.7652 28.2101 78.163 26.0046 77.7496 23.5856C76.9111 18.6494 77.1306 14.365 77.5874 11.1508C80.1875 10.6777 82.1518 8.63359 82.1822 6.15537C82.2172 3.29945 79.671 0.952697 76.4929 0.913728C73.3083 0.87468 70.6988 3.15822 70.6638 6.01413C70.6329 8.53476 72.6168 10.656 75.2693 11.1465C75.8082 14.3266 76.1326 18.7723 75.1835 23.9097C74.7576 26.171 74.148 28.2292 73.4445 30.0904C69.2104 30.2806 65.1361 31.0598 61.2802 32.3487C60.7579 31.4798 60.2875 30.5685 59.8704 29.4953C59.0488 27.3701 58.7071 25.3838 58.5797 23.7322C61.0805 22.4482 62.392 19.7064 61.5488 17.2566C60.6186 14.5624 57.4304 13.2466 54.4248 14.3188C51.4257 15.3912 49.7444 18.4442 50.681 21.1391C51.4873 23.4638 53.9694 24.758 56.5618 24.3807C57.3001 25.9693 58.0033 27.7989 58.543 29.8744C58.8377 30.9734 59.0493 32.0474 59.2098 33.0971C55.7063 34.4576 52.4158 36.2473 49.3841 38.4003C47.8189 37.2192 46.2175 35.8509 44.6382 34.2514C41.0038 30.5682 38.5969 26.8067 37.022 23.7986C38.8315 21.8139 39.1814 18.9449 37.7097 16.9474C36.0232 14.6615 32.5911 14.3806 30.0437 16.319C27.5027 18.2582 26.8058 21.6822 28.4858 23.9674C29.983 25.9867 32.8286 26.4379 35.2328 25.1781C37.531 27.3248 40.5142 30.7025 42.7923 35.5336C43.8376 37.7432 44.5562 39.8881 45.0583 41.8861C44.5712 42.3303 44.0775 42.7888 43.603 43.2566C41.2303 45.6174 39.0983 48.2375 37.2654 51.0786C36.2099 50.7557 35.1166 50.3672 33.9986 49.8941C30.3637 48.3548 27.5556 46.4147 25.5214 44.7293C26.4262 42.1581 25.6065 39.3621 23.4512 38.1273C21.0089 36.724 17.7585 37.869 16.1957 40.6847C14.6264 43.499 15.3422 46.9187 17.7973 48.3215C19.9462 49.5548 22.7165 48.8176 24.4183 46.709C26.8988 47.6149 29.989 49.0575 33.1646 51.4028C34.1128 52.1034 34.9773 52.8225 35.784 53.5449C33.1909 58.1571 31.3559 63.2673 30.4481 68.7053C28.2563 68.8683 25.8925 68.9306 23.3574 68.82C19.7376 68.6627 16.4748 68.1915 13.6246 67.5954C13.5953 64.7452 11.7498 62.3373 9.21058 62.0347C6.41491 61.7017 3.84983 64.0346 3.47656 67.2446C3.1097 70.4546 5.07157 73.3259 7.86084 73.6576C10.3487 73.9537 12.6442 72.1367 13.3897 69.4716C16.3167 69.5675 19.6007 69.8739 23.1564 70.5406C25.623 71.0021 27.8956 71.58 30.0005 72.2171C29.8826 73.4533 29.8223 74.7039 29.8068 75.9695C29.7699 78.9748 30.01 81.917 30.5144 84.773C28.0674 86.3734 24.7061 88.1812 20.4333 89.4271C16.6891 90.5197 13.3264 90.866 10.6481 90.9167C9.71605 88.3712 7.34698 86.7613 4.92064 87.2059C2.1596 87.7136 0.369904 90.7026 0.934525 93.883C1.49914 97.064 4.20168 99.2306 6.96272 98.7229C9.35689 98.2838 11.0097 95.9899 11.0488 93.3219C13.8015 92.4501 17.0478 91.6398 20.7335 91.1317C24.966 90.5481 28.7617 90.5033 31.9573 90.6835C33.1868 94.6314 34.9393 98.347 37.1129 101.755C36.056 102.583 34.8837 103.399 33.558 104.158C31.0294 105.613 28.6103 106.508 26.5099 107.08C25.1256 104.767 22.4935 103.657 20.1963 104.567C17.5829 105.608 16.3932 108.891 17.5507 111.899C18.2789 113.787 19.7587 115.124 21.4096 115.595C22.3822 115.877 23.4164 115.857 24.3908 115.471C24.6747 115.355 24.9526 115.211 25.2051 115.039C27.1213 113.782 27.9628 111.139 27.1913 108.597C29.1815 107.585 31.5055 106.586 34.174 105.772C35.8949 105.25 37.5306 104.874 39.0687 104.598C40.4458 106.454 41.9656 108.199 43.5961 109.813C43.7483 109.967 43.907 110.12 44.0593 110.264C42.9111 112.784 41.1911 115.842 38.6168 118.933C36.0946 121.958 33.4862 124.151 31.2904 125.695C29.1331 124.097 26.2756 124.096 24.5012 125.835C22.4734 127.817 22.6232 131.311 24.8358 133.639C27.0355 135.962 30.474 136.242 32.4954 134.26C34.2567 132.539 34.3753 129.676 32.9259 127.433C34.6615 125.19 36.9207 122.665 39.7959 120.181C42.8916 117.514 45.9338 115.549 48.5843 114.106C52.0334 116.663 55.8543 118.745 59.9392 120.252C59.7594 121.821 59.4625 123.511 58.9848 125.285C57.9486 129.149 56.4338 132.238 55.0638 134.508C52.4316 133.939 49.8098 135.131 48.8886 137.464C47.848 140.114 49.3958 143.236 52.3478 144.439C55.2933 145.642 58.5313 144.467 59.5849 141.814C60.4928 139.509 59.4467 136.849 57.2104 135.407C57.8798 132.659 58.9278 129.411 60.563 125.93C61.3673 124.232 62.2146 122.686 63.0795 121.278C66.2342 122.185 69.5213 122.757 72.9224 122.946C73.4414 125.657 73.8537 128.689 74.0315 131.998C74.2986 136.921 73.982 141.274 73.4756 144.864C70.8884 145.34 68.9304 147.384 68.9001 149.857C68.8651 152.713 71.4113 155.059 74.6023 155.098C77.7805 155.137 80.3835 152.854 80.4185 149.998C80.4487 147.535 78.5542 145.448 75.9924 144.899C75.6073 141.217 75.4294 136.869 75.7329 132.019C75.94 128.747 76.343 125.73 76.8388 123.003C80.3974 122.909 83.8521 122.396 87.1571 121.511C87.4336 122.008 87.7034 122.524 87.9666 123.054C89.7153 126.553 90.6384 129.825 91.1265 132.44C88.8178 133.764 87.617 136.378 88.4165 138.732C89.3209 141.433 92.5024 142.772 95.514 141.727C98.5193 140.677 100.226 137.638 99.3153 134.937C98.5099 132.54 95.9126 131.217 93.2356 131.678C92.0355 129.524 90.6498 126.275 90.2061 122.133C90.1482 121.619 90.1094 121.116 90.0898 120.622C93.7717 119.377 97.2476 117.659 100.452 115.544C102.479 117.263 104.612 119.31 106.727 121.737C109.982 125.468 112.338 129.137 114.034 132.251C112.25 134.231 111.914 137.079 113.373 139.066C115.066 141.35 118.491 141.63 121.039 139.691C123.58 137.754 124.277 134.332 122.597 132.043C121.137 130.07 118.376 129.59 116.011 130.752C113.513 128.117 110.748 124.785 108.095 120.701C106.38 118.06 104.967 115.5 103.808 113.099C105.099 112.066 106.332 110.966 107.516 109.799C109.44 107.887 111.205 105.806 112.774 103.577C115.608 104.419 118.875 105.64 122.333 107.457C125.67 109.202 128.446 111.109 130.678 112.883C129.793 115.406 130.569 118.158 132.673 119.407C135.095 120.856 138.364 119.767 139.978 116.982C141.592 114.194 140.927 110.764 138.505 109.315C136.389 108.052 133.613 108.725 131.879 110.782C129.374 109.777 126.336 108.265 123.199 105.963C119.94 103.575 117.487 101.025 115.715 98.8298C116.957 96.5302 118.014 94.1089 118.867 91.5854C120.228 91.6497 121.671 91.7907 123.158 92.0366C126.996 92.6721 130.187 93.8165 132.639 94.9472C132.394 97.6492 133.866 100.144 136.24 100.795C138.954 101.54 141.828 99.6152 142.663 96.4944C143.491 93.3728 141.969 90.2414 139.249 89.4963C136.868 88.8401 134.353 90.2524 133.212 92.7288C130.601 92.4788 127.25 91.8539 123.602 90.3672C122.222 89.7997 120.945 89.172 119.785 88.5171C120.398 86.1765 120.838 83.7659 121.08 81.2923C123.452 81.1269 125.97 81.0345 128.622 81.0618C133.296 81.1054 137.543 81.4987 141.267 82.0474C141.684 84.6577 143.631 86.6649 146.038 86.7708C148.849 86.8855 151.237 84.3618 151.36 81.1325C151.489 77.9032 149.32 75.1905 146.515 75.0752Z" fill="#FA5652"/>
</svg>
