<svg width="254" height="259" viewBox="0 0 254 259" fill="none" xmlns="http://www.w3.org/2000/svg">
<path d="M245.688 123.117C241.61 122.998 238.096 126.146 237.098 130.474C230.786 130.967 223.574 131.134 215.657 130.632C211.254 130.345 207.067 129.883 203.152 129.31C203.174 128.553 203.185 127.788 203.185 127.023C203.185 123.301 202.913 119.644 202.415 116.065C204.41 114.526 206.905 112.909 209.93 111.523C215.169 109.1 220.071 108.24 223.856 107.992C225.711 112.239 229.973 114.71 234.051 113.634C238.649 112.424 241.285 107.187 239.918 101.936C238.562 96.6835 233.747 93.4004 229.149 94.6112C224.962 95.7191 222.403 100.166 223.01 104.924C219.702 106.821 214.778 108.876 208.683 109.028C205.679 109.108 203.044 108.701 200.907 108.176C199.551 102.62 197.61 97.297 195.126 92.2772C197.751 89.8862 200.853 87.3515 204.486 84.9046C209.746 81.3509 214.822 78.8088 219.279 76.9832C222.186 80.4109 226.817 81.5505 230.396 79.463C234.506 77.0708 235.656 71.3091 232.977 66.607C230.298 61.906 224.778 60.0409 220.667 62.4397C217.099 64.5195 215.754 69.1416 217.229 73.3976C213.401 76.3936 208.694 79.5571 203.044 82.3788C199.204 84.3074 195.528 85.7736 192.198 86.8892C189.476 82.2912 186.298 78.0033 182.719 74.0902C184.097 69.0539 186.417 63.1727 190.376 57.2752C194.096 51.7611 198.217 47.7362 201.72 44.9069C205.581 47.322 210.44 46.9473 213.206 43.7673C216.351 40.1654 215.635 34.3401 211.59 30.7547C207.566 27.1604 201.753 27.167 198.619 30.7699C195.853 33.95 196.07 38.8514 198.944 42.4281C196.677 46.2064 193.25 50.8922 188.218 55.3554C182.665 60.2799 177.09 63.2287 172.839 64.9819C168.002 61.2442 162.731 58.0718 157.102 55.5624C157.916 53.2744 159 50.9721 160.421 48.7093C161.56 46.9155 162.785 45.3376 164.022 43.959C168.306 45.72 173.11 44.4532 175.268 40.7637C177.698 36.6435 175.919 31.0483 171.299 28.2759C166.679 25.5025 160.974 26.5938 158.545 30.7217C156.419 34.3488 157.536 39.1134 160.974 42.0939C160.258 44.0072 159.391 45.9917 158.349 48.0146C157.167 50.3421 155.888 52.4866 154.532 54.47C153.957 54.2387 153.393 54.0163 152.818 53.8091C146.116 51.2746 138.969 49.6736 131.518 49.1311C130.292 45.7999 129.229 42.1082 128.481 38.0537C126.963 29.7804 127.245 22.58 127.95 17.1722C132.331 16.324 135.606 12.8504 135.606 8.68745C135.606 3.89004 131.258 0.000981974 125.889 0.000981992C120.51 0.00098201 116.15 3.89004 116.15 8.68745C116.15 12.9216 119.544 16.4435 124.034 17.2127C125.01 22.5427 125.65 30.0029 124.154 38.6509C123.481 42.4577 122.494 45.9271 121.345 49.0677C114.198 49.4742 107.332 50.8669 100.847 53.1111C99.9466 51.6625 99.1332 50.1415 98.4066 48.3477C96.975 44.7951 96.3568 41.4661 96.1073 38.6948C100.305 36.4868 102.463 31.8548 100.988 27.7576C99.361 23.2517 93.9491 21.1072 88.8951 22.9701C83.852 24.8329 81.0755 29.9952 82.7132 34.5022C84.1231 38.3901 88.342 40.5127 92.7127 39.8256C93.9925 42.4785 95.2181 45.5369 96.1725 49.0117C96.693 50.8516 97.0726 52.6509 97.3655 54.4108C91.4764 56.7678 85.956 59.8415 80.8804 63.5201C78.2124 61.5685 75.4793 59.3035 72.7788 56.6495C66.5643 50.5382 62.4213 44.2702 59.6991 39.2503C62.7141 35.8796 63.2456 31.0538 60.7186 27.7291C57.8229 23.9245 52.0205 23.5234 47.7583 26.8316C43.5069 30.1409 42.4006 35.906 45.2855 39.7095C47.8559 43.0703 52.6713 43.7694 56.7058 41.6041C60.6318 45.1622 65.7401 50.7738 69.6878 58.8411C71.499 62.5306 72.7571 66.1183 73.6464 69.4638C72.833 70.2199 72.0087 71 71.217 71.7956C67.2584 75.8095 63.7119 80.2541 60.6752 85.0635C58.8857 84.543 57.0311 83.9129 55.1332 83.1415C48.9621 80.631 44.1793 77.4303 40.7087 74.6415C42.1837 70.3043 40.7413 65.6251 37.0755 63.5957C32.9217 61.289 27.4556 63.2791 24.8744 68.0403C22.2823 72.7994 23.5621 78.5282 27.7376 80.8338C31.3925 82.861 36.056 81.5658 38.8867 77.9891C43.0947 79.4597 48.3439 81.8189 53.7558 85.6925C55.3718 86.8497 56.8468 88.0397 58.2241 89.2363C53.9402 97.0363 50.9468 105.657 49.5261 114.809C45.8278 115.128 41.8367 115.281 37.5527 115.148C31.4359 114.958 25.9155 114.234 21.0892 113.291C20.9808 108.505 17.8139 104.499 13.5191 104.043C8.79052 103.541 4.50658 107.512 3.94262 112.911C3.3895 118.31 6.76244 123.092 11.4802 123.592C15.6882 124.038 19.5275 120.939 20.7314 116.447C25.6769 116.548 31.2298 116.995 37.249 118.042C41.4245 118.766 45.2747 119.69 48.8428 120.717C48.6693 122.795 48.5934 124.897 48.5934 127.023C48.5934 132.071 49.0598 137.008 49.9708 141.794C45.8712 144.533 40.2315 147.638 33.041 149.819C26.7398 151.731 21.0676 152.382 16.5451 152.522C14.9182 148.266 10.8837 145.611 6.79495 146.408C2.14225 147.317 -0.81854 152.374 0.200933 157.704C1.22041 163.035 5.8297 166.618 10.4824 165.709C14.5169 164.922 17.2609 161.035 17.2717 156.554C21.9027 155.033 27.3688 153.605 33.5832 152.676C40.7196 151.608 47.1292 151.455 52.5303 151.691C54.6885 158.297 57.7253 164.501 61.467 170.181C59.6992 171.593 57.7361 172.987 55.5128 174.29C51.2722 176.786 47.2051 178.339 43.6695 179.343C41.2835 175.487 36.8152 173.677 32.9542 175.252C28.5618 177.054 26.6205 182.592 28.6378 187.621C29.9067 190.776 32.4336 192.992 35.2318 193.749C36.8803 194.203 38.6264 194.148 40.2641 193.479C40.7413 193.279 41.2076 193.032 41.6306 192.737C44.8408 190.587 46.2074 186.129 44.8517 181.876C48.1921 180.135 52.0965 178.41 56.5865 176.988C59.4823 176.076 62.237 175.41 64.8291 174.915C67.1934 178.005 69.7963 180.904 72.5836 183.58C72.8439 183.836 73.115 184.091 73.3753 184.329C71.4882 188.585 68.6466 193.757 64.3626 199C60.1654 204.133 55.8056 207.87 52.129 210.51C48.4524 207.87 43.6261 207.927 40.6653 210.883C37.2815 214.254 37.6069 220.12 41.392 223.985C45.1553 227.841 50.9686 228.241 54.3415 224.869C57.2806 221.943 57.4215 217.132 54.9271 213.394C57.812 209.591 61.5754 205.305 66.38 201.073C71.5532 196.531 76.6506 193.168 81.0973 190.689C86.9755 194.912 93.4719 198.331 100.402 200.778C100.131 203.415 99.6647 206.26 98.8946 209.249C97.2244 215.761 94.73 220.98 92.4633 224.822C88.0058 223.92 83.6025 225.977 82.095 229.914C80.3922 234.385 83.0711 239.597 88.0817 241.557C93.0814 243.517 98.5259 241.477 100.25 236.998C101.736 233.109 99.9141 228.663 96.1073 226.287C97.181 221.657 98.8838 216.182 101.573 210.3C102.897 207.433 104.296 204.818 105.727 202.436C111.074 203.894 116.638 204.787 122.386 205.034C123.319 209.577 124.078 214.661 124.446 220.215C125 228.479 124.555 235.795 123.774 241.835C119.414 242.689 116.15 246.163 116.15 250.316C116.15 255.113 120.499 259.001 125.889 259.001C131.258 259.001 135.607 255.113 135.607 250.316C135.607 246.179 132.364 242.712 128.025 241.843C127.299 235.667 126.908 228.368 127.321 220.215C127.603 214.715 128.221 209.64 129.002 205.049C135.01 204.818 140.834 203.887 146.398 202.332C146.875 203.16 147.341 204.021 147.797 204.907C150.823 210.747 152.45 216.223 153.328 220.605C149.456 222.877 147.482 227.292 148.881 231.229C150.465 235.747 155.866 237.931 160.931 236.113C165.985 234.289 168.804 229.148 167.21 224.63C165.8 220.622 161.386 218.453 156.874 219.283C154.803 215.688 152.395 210.261 151.56 203.312C151.452 202.451 151.376 201.607 151.332 200.778C157.525 198.61 163.36 195.654 168.729 192.036C172.188 194.88 175.832 198.275 179.455 202.308C185.029 208.508 189.085 214.621 192.014 219.816C189.042 223.179 188.532 227.969 191.038 231.276C193.944 235.077 199.736 235.476 203.998 232.168C208.249 228.862 209.356 223.1 206.471 219.291C203.965 216.007 199.291 215.258 195.322 217.259C191.048 212.883 186.309 207.345 181.743 200.539C178.793 196.139 176.353 191.869 174.347 187.859C176.505 186.099 178.565 184.226 180.539 182.241C183.749 178.99 186.689 175.459 189.292 171.682C194.096 173.038 199.638 175.022 205.516 178.002C211.188 180.864 215.917 184.011 219.724 186.943C218.281 191.199 219.648 195.805 223.227 197.861C227.348 200.244 232.847 198.347 235.515 193.638C238.183 188.92 236.99 183.174 232.869 180.79C229.268 178.712 224.594 179.9 221.709 183.39C217.457 181.755 212.295 179.277 206.948 175.476C201.395 171.531 197.198 167.299 194.161 163.649C196.211 159.761 197.946 155.673 199.334 151.416C201.634 151.496 204.074 151.704 206.59 152.086C213.086 153.074 218.498 154.931 222.663 156.779C222.305 161.323 224.843 165.482 228.867 166.526C233.465 167.722 238.28 164.43 239.625 159.171C240.959 153.912 238.324 148.684 233.715 147.488C229.68 146.435 225.461 148.859 223.585 153.042C219.171 152.676 213.499 151.695 207.306 149.273C204.963 148.348 202.794 147.32 200.82 146.244C201.807 142.3 202.501 138.243 202.859 134.083C206.861 133.757 211.113 133.549 215.592 133.541C223.487 133.518 230.667 134.091 236.968 134.936C237.727 139.311 241.057 142.642 245.124 142.771C249.874 142.905 253.855 138.617 253.996 133.191C254.147 127.765 250.427 123.253 245.688 123.117Z" fill="#FFD0D0"/>
</svg>
