<svg width="1792" height="895" viewBox="0 0 1792 895" fill="none" xmlns="http://www.w3.org/2000/svg">
<path d="M108.78 656.506C122.117 663.318 171.374 678.448 163.79 647.135C161.89 639.337 156.346 632.765 150.033 628.383C142.804 623.349 135.68 621.607 129.36 615.175C121.66 607.427 113.386 600.425 104.645 594.259C86.6963 581.361 66.8278 570.33 45.8883 568.678C31.2028 567.525 8.84368 574.849 7.11542 593.738C4.59196 621.236 45.4726 615.113 60.022 620.959C73.8237 626.483 84.3216 639.544 96.59 648.864C100.465 651.802 104.545 654.36 108.78 656.506Z" fill="url(#paint0_linear)"/>
<path d="M1725.16 728.124C1693.8 725.688 1663.63 728.779 1634.37 742.922C1601.76 758.688 1579.85 796.084 1570.9 829.913C1567.57 842.479 1565.86 855.979 1569.88 868.335C1579.19 896.877 1607.44 892.751 1629.42 881.82C1641.81 875.665 1652.22 866.436 1662.52 857.302C1679.61 842.131 1701.46 831.054 1715.49 812.624C1720.19 806.427 1723.16 799.7 1729.16 794.497C1738.5 786.4 1750.09 780.645 1759.84 772.938C1768.16 766.338 1776.88 756.815 1774.14 746.568C1771.32 736.063 1758.54 732.318 1747.78 730.728C1740.15 729.583 1732.63 728.693 1725.16 728.124Z" fill="url(#paint1_linear)"/>
<path d="M825.104 722.83C789.933 743.162 753.065 756.385 711.087 756.212C664.298 756.015 617.915 724.62 588.603 690.164C577.712 677.367 568.188 662.576 565.98 645.921C560.894 607.443 596.105 596.498 627.809 596.986C645.679 597.253 662.962 602.205 680.052 607.115C708.425 615.276 740.066 616.004 766.685 629.677C775.62 634.282 782.837 640.469 792.731 643.189C808.123 647.425 824.84 647.671 840.5 651.22C853.875 654.277 869.35 660.518 871.872 673.998C874.443 687.826 861.653 699.318 849.999 707.177C841.754 712.766 833.485 718.002 825.104 722.83Z" fill="url(#paint2_linear)"/>
<path d="M576.8 267.685C617.798 157.432 741.155 86.9824 857.386 96.193C913.435 100.643 965.635 125.71 1014.79 152.964C1058.12 176.983 1101.03 203.828 1135.44 239.921C1158.93 264.556 1179.14 296.034 1195.33 326.078C1219.54 371.069 1223.39 435.735 1160.18 446.409C1145.35 448.915 1131.47 446.763 1116.72 445.517C1104.78 444.5 1094.53 449.375 1082.64 450.363C1052.72 452.856 1022.37 449.047 993.089 443.053C933.407 430.811 876.113 408.354 815.679 399.62C766.158 392.486 715.73 394.892 667.114 406.707C646.604 411.695 625.399 418.409 604.815 413.734C554.076 402.189 559.467 336.23 567.946 297.792C570.181 287.559 573.14 277.498 576.8 267.685V267.685Z" fill="url(#paint3_linear)"/>
<path d="M1076.51 161.678C1088.57 168.201 1133.33 183.109 1127.06 154.285C1125.49 147.106 1120.56 140.971 1114.87 136.824C1108.37 132.06 1101.88 130.313 1096.24 124.29C1089.35 117.032 1081.93 110.445 1074.06 104.613C1057.91 92.4207 1039.96 81.8962 1020.83 79.9338C1007.41 78.5628 986.791 84.785 984.803 102.037C981.901 127.153 1019.45 122.428 1032.64 128.092C1045.16 133.445 1054.49 145.626 1065.52 154.421C1069 157.193 1072.68 159.622 1076.51 161.678V161.678Z" fill="url(#paint4_linear)"/>
<path d="M872.693 174.827C898.29 182.519 919.899 198.123 944.184 209.005C984.615 227.119 1032.48 221.127 1075.93 229.97C1120.23 238.999 1157.35 260.8 1181.19 299.486C1211.98 349.417 1229.44 413.489 1228.21 472.875C1226.85 538.245 1198.36 588.427 1148.75 629.388C1099.17 670.324 1039.99 698.257 978.502 716.088C972.57 717.814 966.619 719.418 960.619 720.928C825.845 754.768 634.563 751.26 553.103 617.527C552.357 616.305 551.629 615.08 550.895 613.835C542.204 598.842 535.339 582.862 530.447 566.236C512.958 507.333 507.276 438.982 514.489 377.98C519.331 336.915 544.321 304.897 570.665 274.419C607.678 231.601 657.853 202.876 711.337 185.727C750.943 173.03 796.012 160.896 837.895 166.977C849.674 168.721 861.306 171.344 872.693 174.827Z" fill="url(#paint5_linear)"/>
<path d="M1186.26 591.85C1162.6 624.875 1134.47 652.125 1096.15 669.277C1053.44 688.391 998.243 678.915 957.331 659.612C942.132 652.444 927.356 642.897 918.477 628.634C897.977 595.677 925.541 571.187 954.626 558.558C971.016 551.432 988.803 548.817 1006.4 546.244C1035.61 541.978 1064.74 529.595 1094.63 531.075C1104.66 531.586 1113.79 534.246 1123.93 532.644C1139.7 530.157 1155.03 523.487 1170.76 520.263C1184.2 517.533 1200.87 516.837 1208.73 528.078C1216.77 539.615 1209.86 555.359 1202.48 567.324C1197.28 575.815 1191.9 583.995 1186.26 591.85Z" fill="url(#paint6_linear)"/>
<path d="M790.432 412.302C790.091 412.302 789.748 412.194 789.455 411.968C789.188 411.758 782.859 406.759 778.026 396.562C773.594 387.211 769.658 371.534 776.066 349.921C780.412 335.259 784.768 324.836 788.609 315.634C795.583 298.94 800.623 286.878 801.03 261.306C801.043 260.431 801.689 259.68 802.643 259.741C803.525 259.757 804.225 260.476 804.212 261.357C803.795 287.54 798.389 300.48 791.545 316.863C787.734 325.988 783.416 336.328 779.117 350.828C767.431 390.23 791.17 409.27 791.412 409.454C792.102 409.995 792.226 410.994 791.689 411.688C791.374 412.092 790.906 412.302 790.432 412.302Z" fill="#000C3E"/>
<path d="M920.799 161.035C920.561 178.369 906.316 192.232 888.979 191.994C871.645 191.755 857.785 177.51 858.021 160.173C858.259 142.839 872.507 128.979 889.841 129.215C907.175 129.454 921.038 143.701 920.799 161.035Z" fill="#000C3E"/>
<path d="M787.394 401.089C787.394 401.089 797.051 419.858 834.808 425.645C872.563 431.43 901.749 417.125 931.024 426.963C960.299 436.804 1001.91 422.091 1009.93 409.699C1017.95 397.306 1013 262.282 989.577 240.179C966.153 218.075 845.792 202.02 820.433 229.138C795.075 256.259 770.55 386.268 787.394 401.089Z" fill="#000C3E"/>
<path d="M1001.94 289.38C1001.16 346.508 954.209 392.185 897.078 391.402C839.95 390.62 794.273 343.67 795.055 286.542C795.841 229.414 842.788 183.737 899.916 184.52C957.044 185.306 1002.72 232.252 1001.94 289.38Z" fill="#000C3E"/>
<path d="M813.966 286.087C813.966 286.087 821.198 411.52 906.201 414.925C991.201 418.329 986.915 241.46 955.801 225.363C924.687 209.27 796.587 215.471 813.966 286.087Z" fill="#FFCEB0"/>
<path d="M901.744 310.891C901.744 310.891 918.871 349.145 914.761 351.805C910.65 354.462 898.432 354.296 895.075 351.534C891.719 348.773 895.012 306.726 901.744 310.891Z" fill="#F5A473"/>
<path d="M876.633 324.426C876.522 328.83 872.863 332.31 868.46 332.199C864.056 332.091 860.575 328.432 860.687 324.028C860.795 319.625 864.454 316.144 868.86 316.252C873.264 316.364 876.745 320.023 876.633 324.426Z" fill="#41294A"/>
<path d="M945.01 319.045C944.899 323.449 941.24 326.929 936.836 326.818C932.433 326.71 928.952 323.051 929.064 318.647C929.172 314.244 932.831 310.763 937.237 310.871C941.641 310.982 945.122 314.641 945.01 319.045Z" fill="#41294A"/>
<path d="M879.202 217.554C879.202 217.554 849.118 232.995 843.986 260.758C838.851 288.522 843.525 359.192 811.205 356.713C811.205 356.713 745.451 218.196 879.202 217.554Z" fill="#41294A"/>
<path d="M895.256 217.774C892.542 219.816 926.679 218.922 946.759 242.12C966.842 265.318 972.881 324.343 975.926 325.367C978.971 326.395 989.257 251.735 967.329 229.899C945.4 208.066 910.7 206.151 895.256 217.774Z" fill="#41294A"/>
<path d="M968.725 330.584C968.725 330.584 976.103 298.964 990.542 309.813C1004.98 320.663 992.938 353.807 978.998 357.119C965.062 360.432 961.372 346.966 968.725 330.584Z" fill="#FFCEB0"/>
<path d="M834.746 328.746C834.746 328.746 828.236 296.935 813.505 307.384C798.777 317.833 809.906 351.299 823.747 354.993C837.591 358.683 841.647 345.326 834.746 328.746Z" fill="#FFCEB0"/>
<path d="M933.183 290.911C933.183 290.911 948.195 282.991 957.444 294.369C965.58 304.372 947.011 296.265 940.177 297.56C933.339 298.859 924.31 298.292 933.183 290.911Z" fill="#41294A"/>
<path d="M873.527 293.793C873.527 293.793 858.13 286.65 849.473 298.483C841.859 308.89 859.989 299.845 866.883 300.793C873.775 301.738 882.767 300.71 873.527 293.793Z" fill="#41294A"/>
<path d="M927.732 375.18C927.732 375.18 917.939 360.382 907.344 361.314C896.745 362.249 888.622 375.889 887.197 376.462C887.197 376.462 903.736 384.229 927.732 375.18Z" fill="#41294A"/>
<path d="M868.172 306.667C854.914 306.667 843.979 317.46 843.794 330.721C843.708 337.231 846.158 343.391 850.702 348.062C855.245 352.729 861.332 355.348 867.845 355.437L868.185 355.44C881.443 355.44 892.379 344.651 892.56 331.389C892.745 317.947 881.959 306.858 868.513 306.671L868.172 306.667ZM868.185 358.622L867.8 358.619C860.438 358.52 853.556 355.555 848.42 350.279C843.285 345.001 840.514 338.039 840.612 330.677C840.819 315.684 853.183 303.486 868.172 303.486L868.557 303.489C883.757 303.699 895.949 316.235 895.742 331.431C895.539 346.423 883.174 358.622 868.185 358.622Z" fill="#FFFCF6"/>
<path d="M937.038 301.156C923.777 301.156 912.841 311.948 912.66 325.209C912.475 338.649 923.264 349.741 936.707 349.925L937.048 349.928C950.309 349.928 961.245 339.139 961.426 325.878C961.515 319.365 959.062 313.205 954.522 308.534C949.978 303.87 943.891 301.248 937.378 301.159L937.038 301.156ZM937.048 353.11L936.666 353.107C921.463 352.897 909.271 340.361 909.478 325.165C909.685 310.173 922.046 297.974 937.038 297.974L937.423 297.977C944.786 298.076 951.668 301.041 956.8 306.316C961.938 311.595 964.71 318.556 964.608 325.919C964.401 340.911 952.037 353.11 937.048 353.11Z" fill="#FFFCF6"/>
<path d="M842.887 326.727C842.705 326.727 842.517 326.695 842.339 326.631L832.135 322.883C831.311 322.578 830.888 321.665 831.191 320.838C831.493 320.017 832.412 319.6 833.233 319.896L843.434 323.641C844.261 323.946 844.681 324.859 844.379 325.687C844.143 326.329 843.536 326.727 842.887 326.727Z" fill="#FFFCF6"/>
<path d="M961.873 319.496C961.196 319.496 960.566 319.061 960.356 318.38C960.092 317.543 960.559 316.649 961.399 316.385L975.345 312.032C976.178 311.765 977.076 312.239 977.337 313.076C977.601 313.916 977.133 314.807 976.293 315.071L962.347 319.426C962.192 319.474 962.029 319.496 961.873 319.496Z" fill="#FFFCF6"/>
<path d="M894.759 246.942C894.759 246.942 894.788 278.673 913.69 284.404C932.59 290.137 981.21 287.608 980.717 279.854C976.265 209.846 943.357 213.368 915.873 204.408C867.673 188.7 828.251 267.4 834.153 286.001C840.055 304.598 880.737 287.232 889.445 284.617C898.151 281.998 893.327 260.436 894.759 246.942Z" fill="#000C3E"/>
<g opacity="0.210007">
<g opacity="0.210007">
<path opacity="0.210007" d="M846.015 354.112C846.015 354.112 888.895 329.37 907.715 332.829C926.535 336.291 959.565 336.832 961.06 343.583C962.559 350.332 919.185 347.29 905.844 348.588C892.503 349.886 841.287 365.244 846.015 354.112Z" fill="#DB5C5D"/>
</g>
</g>
<path d="M870.013 337.556C869.386 337.556 868.791 337.183 868.539 336.563C868.209 335.752 868.6 334.823 869.414 334.492C873.726 332.735 874.524 331.351 874.531 331.339C874.814 330.505 875.686 330.117 876.526 330.413C877.356 330.696 877.773 331.663 877.49 332.497C877.289 333.082 876.204 335.163 870.611 337.438C870.413 337.518 870.213 337.556 870.013 337.556Z" fill="#DB5C5D"/>
<path d="M935.524 334.188C934.242 334.188 932.078 333.8 928.68 332.142C927.888 331.76 927.56 330.809 927.945 330.016C928.327 329.227 929.284 328.903 930.07 329.285C934.261 331.324 935.82 330.984 935.839 330.984C936.65 330.643 937.516 331.041 937.859 331.849C938.203 332.657 937.764 333.612 936.952 333.959C936.742 334.048 936.291 334.188 935.524 334.188Z" fill="#DB5C5D"/>
<path d="M894.128 331.541C893.323 331.541 892.629 330.933 892.546 330.112C892.457 329.237 893.094 328.454 893.969 328.368L911.042 326.625C911.898 326.517 912.696 327.169 912.785 328.044C912.875 328.919 912.238 329.702 911.363 329.788L894.29 331.531C894.236 331.537 894.182 331.541 894.128 331.541Z" fill="#FFFCF6"/>
<path d="M870.487 191.565C870.255 191.565 870.016 191.515 869.794 191.403C860.767 187.016 855.307 180.757 853.557 172.8C849.676 155.131 865.46 135.583 866.135 134.759C866.695 134.078 867.694 133.979 868.371 134.536C869.052 135.093 869.154 136.092 868.597 136.773C868.441 136.964 853.112 155.968 856.666 172.125C858.196 179.08 863.08 184.604 871.184 188.546C871.973 188.928 872.304 189.882 871.919 190.671C871.645 191.235 871.079 191.565 870.487 191.565Z" fill="#000C3E"/>
<path d="M906.817 196.294C906.375 196.294 905.936 196.109 905.621 195.753C905.041 195.091 905.105 194.089 905.767 193.507C905.951 193.344 924.196 177.121 923.343 160.598C922.977 153.487 919.067 147.235 911.72 142.014C911.004 141.508 910.835 140.515 911.345 139.796C911.854 139.083 912.846 138.915 913.562 139.424C921.742 145.233 926.105 152.306 926.521 160.445C927.444 178.508 908.665 195.196 907.864 195.899C907.561 196.163 907.189 196.294 906.817 196.294Z" fill="#000C3E"/>
<path d="M1001.45 405.181C1000.99 405.181 1000.53 404.983 1000.21 404.592C999.659 403.914 999.761 402.912 1000.44 402.355C1000.65 402.184 1021.58 384.706 1015.52 357.057C1013.18 346.398 1009.09 334.67 1004.75 322.255C997.231 300.724 989.455 278.459 988.822 256.874C988.797 255.992 989.49 255.264 990.368 255.235C991.192 255.264 991.978 255.9 992.004 256.778C992.624 277.873 1000.31 299.904 1007.75 321.205C1012.12 333.716 1016.25 345.53 1018.63 356.373C1025.11 385.979 1002.68 404.64 1002.45 404.824C1002.15 405.063 1001.8 405.181 1001.45 405.181Z" fill="#000C3E"/>
<path d="M1007.1 291.551C1007.05 291.551 1006.99 291.548 1006.94 291.545C1006.07 291.459 1005.43 290.679 1005.51 289.804C1008.26 261.967 1002.4 239.374 988.109 222.641C965.09 195.708 927.691 193.236 927.319 193.213C926.441 193.162 925.77 192.412 925.824 191.53C925.871 190.655 926.626 189.962 927.501 190.038C927.892 190.06 966.639 192.618 990.527 220.573C1005.41 237.99 1011.52 261.388 1008.68 290.116C1008.6 290.94 1007.91 291.551 1007.1 291.551Z" fill="#000C3E"/>
<path d="M893.154 378.321C893.154 378.321 909.008 367.197 923.167 376.733C923.167 376.733 906.635 382.928 893.154 378.321Z" fill="#DB5C5D"/>
<path d="M903.644 389.741C902.079 389.741 900.733 389.725 899.903 389.712C899.025 389.699 898.325 388.977 898.337 388.096C898.35 387.217 898.951 386.505 899.954 386.53C905.961 386.61 913.139 386.463 914.256 386.04C915.073 385.728 915.996 386.136 916.311 386.953C916.626 387.774 916.225 388.687 915.407 389.006C913.816 389.623 907.911 389.741 903.644 389.741Z" fill="#DB5C5D"/>
<path d="M826.48 346.203C826.337 346.203 826.194 346.184 826.051 346.143C825.204 345.907 824.711 345.032 824.946 344.183C829.299 328.583 817.743 318.538 817.625 318.436C816.957 317.87 816.874 316.865 817.444 316.193C818.01 315.525 819.016 315.442 819.687 316.015C820.228 316.473 832.907 327.498 828.01 345.042C827.813 345.742 827.177 346.203 826.48 346.203Z" fill="#DB5C5D"/>
<path d="M974.92 350.003C974.885 350.003 974.853 350.003 974.815 350C973.94 349.943 973.275 349.185 973.329 348.31C974.519 329.847 983.367 319.977 983.746 319.567C984.338 318.917 985.343 318.873 985.989 319.465C986.638 320.057 986.683 321.062 986.094 321.711C986.008 321.806 977.618 331.234 976.508 348.514C976.45 349.357 975.75 350.003 974.92 350.003Z" fill="#DB5C5D"/>
<path d="M942.972 401.941C942.972 401.941 948.031 458.534 941.318 467.485C934.604 476.438 892.084 469.721 880.893 467.485C869.703 465.248 869.681 371.648 871.94 377.97C890.623 430.185 941.684 383.977 942.972 401.941Z" fill="#FFCEB0"/>
<path d="M875.986 407.539C875.986 407.539 906.152 422.038 940.445 404.487C940.445 404.487 943.111 425.57 940.445 430.431C937.782 435.293 883.46 438.767 872.766 414.806C872.766 414.806 872.9 406.498 875.986 407.539Z" fill="#F5A473"/>
<path d="M711.249 850.876H1101.62C1101.62 850.876 1121.56 511.474 1072.66 474.566C1023.76 437.655 808.486 456.093 757.804 487.621C707.122 519.149 711.249 850.876 711.249 850.876Z" fill="#FB4C47"/>
<path d="M906.153 460.778C906.153 460.778 891.106 591.241 897.674 609.399C904.237 627.558 895.828 708.065 893.155 718.53C890.48 728.994 809.374 733.439 788.445 725.068C767.515 716.697 793.777 491.045 805.492 449.298C817.211 407.547 904.864 432.145 906.153 460.778Z" fill="#05BA6E"/>
<path d="M667.969 300.932C667.969 300.932 700.598 363.425 723.465 364.004C746.335 364.583 823.454 270.668 851.889 269.7C880.328 268.736 904.747 271.495 904.859 264.718C904.97 257.937 865.307 250.537 865.307 250.537C865.307 250.537 922.667 254.189 910.802 247.915C898.941 241.641 870.515 235.999 870.515 235.999C870.515 235.999 911.741 237.663 912.04 233.254C912.339 228.844 869.118 222.35 869.118 222.35C869.118 222.35 921.712 220.67 912.094 213.435C902.472 206.199 884.365 209.34 835.389 216.82C786.409 224.3 675.602 289.688 667.969 300.932Z" fill="#FFCEB0"/>
<path d="M725.214 297.938C725.214 297.938 777.41 329.03 754.683 364.265C730.483 401.784 731.838 390.638 727.654 405.818C723.467 420.998 792.441 450.563 795.578 463.557C798.715 476.548 766.201 636.332 735.745 629.774C709.235 624.069 561.915 540.466 540.743 456.92C524.332 392.15 658.102 233.722 725.214 297.938Z" fill="#FB4C47"/>
<path d="M861.845 662.398C861.845 662.398 804.011 789.801 825.274 806.862C846.538 823.919 863.672 812.805 882.476 823.878C901.283 834.95 919.323 829.414 934.43 819.78C949.537 810.142 910.22 683.391 893.958 671.323C877.697 659.252 864.776 655.777 861.845 662.398Z" fill="white"/>
<path d="M1054 465.5C1054 465.5 1085.1 469.296 1109.51 514C1127.82 547.541 1163.3 743.529 1109.51 771.454C1055.72 799.377 1005.26 784.771 985.736 765.953C966.209 747.135 1000.95 650.154 1024.11 642.915C1047.27 635.679 1054 465.5 1054 465.5Z" fill="#FB4C47"/>
<path d="M1064.07 462.496C1064.07 462.496 1065.52 453.434 1020.74 434.055C985.005 418.588 954.393 444.691 899.88 447.501C845.368 450.313 850.287 428.706 811.727 438.748C752.223 454.239 799.599 493.244 818.772 497.622C837.945 502 902.181 609.985 1064.07 462.496Z" fill="#05BA6E"/>
<path d="M907.78 353.6C907.78 353.6 907.614 357.291 909.733 357.625C911.852 357.959 915.769 356.776 914.76 351.803C914.76 351.803 909.447 353.511 907.78 353.6Z" fill="white"/>
<path d="M1128.51 659.318C1128.36 659.318 1128.21 659.309 1128.06 659.287C1126.59 659.077 1125.5 657.893 1125.35 656.483C1122.69 653.419 1104.9 647.002 1093.03 642.719C1069.51 634.234 1058.96 630.037 1056.69 625.446C1054.77 621.554 1055.63 615.942 1056.72 608.837C1058.45 597.593 1060.6 583.593 1053.46 570.109C1041.13 546.822 1042.31 512.281 1042.37 510.824C1042.44 509.067 1043.95 507.661 1045.67 507.766C1047.42 507.833 1048.79 509.312 1048.73 511.065C1048.71 511.409 1047.56 545.371 1059.09 567.131C1067.21 582.479 1064.78 598.27 1063.01 609.801C1062.16 615.321 1061.36 620.536 1062.4 622.627C1064.33 625.601 1082.9 632.302 1095.19 636.734C1122.88 646.725 1132.49 650.744 1131.66 656.588C1131.43 658.176 1130.07 659.318 1128.51 659.318Z" fill="#B31B1F"/>
<path d="M1045.5 633.159C1045.22 633.159 1044.94 633.124 1044.66 633.047C1034.15 630.18 1017.82 627.196 1017.65 627.164C1015.92 626.852 1014.78 625.195 1015.09 623.467C1015.41 621.736 1017.06 620.572 1018.79 620.906C1019.47 621.027 1035.55 623.967 1046.33 626.906C1048.03 627.371 1049.03 629.118 1048.57 630.814C1048.18 632.23 1046.9 633.159 1045.5 633.159Z" fill="#B31B1F"/>
<path d="M1102.65 790.54C1102.6 790.54 1102.55 790.54 1102.51 790.536C1043.61 787.867 984.936 762.779 981.763 738.916C980.768 731.417 980.048 727.665 979.603 725.81C978.413 725.219 977.691 723.952 977.904 722.568C978.308 719.947 980.083 719.017 981.493 719.017H981.528C984.732 719.052 985.795 720.93 988.073 738.079C990.535 756.603 1043.96 781.513 1102.79 784.179C1104.55 784.259 1105.91 785.745 1105.83 787.501C1105.75 789.21 1104.34 790.54 1102.65 790.54Z" fill="#B31B1F"/>
<path d="M997.077 734.226C996.845 734.226 996.609 734.2 996.371 734.149C994.659 733.761 993.584 732.056 993.972 730.341C994.109 729.727 1008.03 668.383 1021.03 624.256C1021.53 622.569 1023.31 621.602 1024.98 622.105C1026.67 622.601 1027.63 624.37 1027.13 626.056C1014.19 669.987 1000.32 731.133 1000.18 731.747C999.842 733.224 998.531 734.226 997.077 734.226Z" fill="#B31B1F"/>
<path d="M721 600.994C720.845 600.994 720.682 600.982 720.523 600.959C718.786 600.699 717.59 599.076 717.851 597.342C718.178 595.146 726.034 543.3 736.814 519.039C747.294 495.463 752.659 471.558 752.713 471.32C753.088 469.605 754.784 468.532 756.509 468.902C758.224 469.283 759.305 470.986 758.924 472.701C758.704 473.7 753.365 497.467 742.63 521.626C732.2 545.098 724.22 597.755 724.141 598.284C723.905 599.865 722.547 600.994 721 600.994Z" fill="#B31B1F"/>
<path d="M672.497 419.977C664.028 419.977 654.536 419.462 644.088 418.132C642.344 417.909 641.11 416.318 641.332 414.575C641.552 412.831 643.184 411.619 644.889 411.819C676.707 415.873 699.31 412.141 710.961 409.598C705.158 407.743 697.028 405.936 688.915 406.378C670.658 407.237 643.944 390.928 642.815 390.228C641.32 389.305 640.858 387.345 641.781 385.85C642.704 384.354 644.667 383.887 646.159 384.816C646.42 384.975 672.351 400.817 688.587 400.021C704.054 399.207 722.371 406.095 724.035 409.051C724.63 410.104 724.582 411.472 723.905 412.475C723.275 413.4 721.97 413.957 720.825 413.887C720.322 413.945 718.833 414.301 717.385 414.645C710.427 416.312 695.091 419.974 672.497 419.977Z" fill="#B31B1F"/>
<path d="M750.708 351.594C749.525 351.594 748.389 350.932 747.842 349.799C747.762 349.637 739.817 333.499 726.289 327.104C710.93 319.84 693.561 294.523 692.829 293.451C691.84 291.997 692.215 290.015 693.666 289.028C695.123 288.042 697.099 288.421 698.086 289.865C698.257 290.113 715.213 314.823 729.012 321.348C744.603 328.727 753.212 346.287 753.572 347.028C754.335 348.613 753.671 350.509 752.089 351.273C751.644 351.492 751.173 351.594 750.708 351.594Z" fill="#B31B1F"/>
<path d="M898.497 536.501C898.379 536.501 898.259 536.488 898.141 536.46C897.285 536.265 896.747 535.41 896.944 534.557C897.021 534.22 904.609 501.047 906.83 484.196C910.289 457.925 898.523 448.761 898.405 448.672C897.702 448.144 897.555 447.151 898.077 446.448C898.599 445.742 899.585 445.592 900.292 446.111C900.842 446.515 913.709 456.318 909.983 484.61C907.746 501.613 900.123 534.932 900.047 535.263C899.878 536.005 899.223 536.501 898.497 536.501Z" fill="#08824F"/>
<path d="M804.663 488.657L801.503 488.291C801.503 488.291 803.972 466.811 805.261 456.251C806.562 445.599 809.601 438.325 809.731 438.02C810.072 437.205 811.007 436.836 811.815 437.17C812.623 437.514 813.002 438.449 812.662 439.257C812.63 439.327 809.661 446.454 808.42 456.639C807.132 467.19 804.663 488.654 804.663 488.657Z" fill="#08824F"/>
<path d="M895.008 841.386C876.863 841.386 866.885 840.787 853.076 839.96C835.312 838.894 810.988 837.437 754.143 836.553C752.387 836.527 750.984 835.083 751.012 833.323C751.041 831.567 752.587 830.103 754.242 830.189C811.227 831.074 835.634 832.54 853.455 833.609C867.155 834.427 877.05 835.022 895.008 835.022C917.487 835.022 937.653 832.559 957.157 830.18C974.278 828.086 990.447 826.113 1007.78 825.728C1044.75 824.914 1072.37 825.725 1072.65 825.728C1074.4 825.786 1075.78 827.252 1075.73 829.005C1075.68 830.762 1074.19 832.063 1072.46 832.092C1072.18 832.082 1044.71 831.268 1007.92 832.092C990.906 832.467 974.886 834.424 957.927 836.495C938.235 838.901 917.875 841.386 895.008 841.386Z" fill="#B31B1F"/>
<path d="M1039.14 798.932C1037.56 798.932 1035.98 798.223 1034.6 796.136C1030.3 789.642 1029 789.107 1020.69 790.386C1013.17 791.56 1010.2 786.231 1008.24 782.709C1007.58 781.531 1006.96 780.421 1006.41 779.991C1004.95 778.837 1001.29 780.224 999.747 781.076L998.204 778.296C998.879 777.92 1004.87 774.723 1008.39 777.494C1009.43 778.318 1010.16 779.635 1011.01 781.156C1012.91 784.551 1014.88 788.048 1020.2 787.243C1029.72 785.773 1032.26 786.845 1037.25 794.379C1038.57 796.384 1039.72 796.11 1043.25 794.052C1045.93 792.48 1049.99 790.109 1053.02 794.341L1050.44 796.193C1049.25 794.554 1048.19 794.85 1044.85 796.797C1043.26 797.73 1041.2 798.932 1039.14 798.932Z" fill="white"/>
<path d="M1002.12 649.085C1002.12 649.085 926.125 621.604 893.153 635.661C860.181 649.715 833.009 685.948 838.042 688.344C843.076 690.743 870.012 669.852 870.012 669.852C870.012 669.852 842.544 697.609 847.638 700.387C852.732 703.164 879.201 688.344 879.201 688.344C879.201 688.344 860.725 708.096 868.66 709.607C876.595 711.119 893.608 694.844 911.349 694.233C929.094 693.619 951.455 707.641 973.638 711.59C995.818 715.535 1002.12 649.085 1002.12 649.085Z" fill="#FFCEB0"/>
<path d="M1116.82 634.84C1116.62 634.84 1116.42 634.821 1116.22 634.783C1116 634.744 1093.62 630.513 1066.86 625.072C1065.14 624.722 1064.03 623.042 1064.38 621.321C1064.73 619.599 1066.4 618.486 1068.13 618.839C1094.84 624.267 1117.18 628.489 1117.41 628.534C1119.13 628.858 1120.27 630.522 1119.94 632.25C1119.65 633.777 1118.32 634.84 1116.82 634.84Z" fill="#B31B1F"/>
<path fill-rule="evenodd" clip-rule="evenodd" d="M904.41 134.769C903.579 134.769 902.676 134.866 901.697 135.059C899.312 135.538 897.767 136.697 896.839 138.708C892.702 147.662 901.424 168.986 907.656 181.585C911.507 167.609 916.122 144.248 909.601 136.886C908.345 135.471 906.636 134.769 904.41 134.769ZM907.839 192.049C907.939 192.068 908.04 192.082 908.142 192.09C908.474 192.218 908.828 192.284 909.186 192.284C909.517 192.284 909.849 192.229 910.172 192.111C914.422 190.562 951.844 176.527 956.505 160.355C957.626 156.467 956.837 152.632 954.225 149.273C949.782 143.553 944.982 142.873 941.735 143.305C932.524 144.534 923.457 156.434 916.808 167.74C919.16 154.863 920.066 139.992 913.922 133.056C911.755 130.608 907.673 127.983 900.568 129.398C896.398 130.23 893.294 132.615 891.598 136.29C885.32 149.887 899.762 179.169 904.575 188.244C898.506 189.415 892.402 189.679 886.563 189.283C873.984 188.428 862.834 184.516 856.177 180.237L853.798 183.938C861.164 188.673 873.052 192.775 886.265 193.673C893.194 194.143 900.543 193.737 907.839 192.049ZM943.327 148.971C943.054 148.971 942.777 148.987 942.5 149.029C932.744 150.327 920.957 171.018 914.725 184.107C927.68 178.652 948.228 168.233 950.957 158.759C951.571 156.626 951.159 154.741 949.668 152.817C947.661 150.235 945.582 148.971 943.327 148.971Z" fill="#FFD310"/>
<path d="M481.27 243.75H594.515C601.784 243.75 608.662 247.045 613.218 252.71L646.458 294.048C651.173 299.91 658.363 303.223 665.883 302.997L878.85 296.596" stroke="#FFB2B1" stroke-width="5" stroke-linejoin="round"/>
<path d="M493.361 244.265C493.361 249.301 489.279 253.384 484.243 253.384C479.207 253.384 475.124 249.301 475.124 244.265C475.124 239.229 479.207 235.147 484.243 235.147C489.279 235.147 493.361 239.229 493.361 244.265Z" fill="#FF383D"/>
<path d="M295.001 244.366C295.001 205.356 326.625 173.732 365.635 173.732C404.645 173.732 436.266 205.356 436.266 244.366C436.266 283.376 404.645 315 365.635 315C326.625 315 295.001 283.376 295.001 244.366Z" fill="#FFE1E2"/>
<path d="M365.33 156.49C414.103 156.49 453.64 196.028 453.64 244.8C453.64 293.573 414.103 333.113 365.33 333.113V376.724" stroke="#FFD6D7" stroke-width="2.4" stroke-miterlimit="10"/>
<path d="M358.068 378.928C358.068 374.916 361.318 371.665 365.33 371.665C369.342 371.665 372.592 374.916 372.592 378.928C372.592 382.939 369.342 386.19 365.33 386.19C361.318 386.19 358.068 382.939 358.068 378.928Z" fill="#F2AEB0"/>
<path d="M337.158 242.248V245.997H342.572V248.232H337.158V254H334.58V239.896H343.603V242.248H337.158ZM348.394 242.248V245.772H354.184V248.017H348.394V251.648H354.84V254H345.816V239.896H354.84V242.248H348.394ZM359.072 239.896L361.113 245.116C361.421 245.94 361.79 246.971 362.219 248.21C362.656 249.442 362.961 250.323 363.133 250.853C363.326 250.323 363.637 249.435 364.067 248.189C364.504 246.942 364.876 245.911 365.184 245.095L367.204 239.896H369.954L364.475 254H361.822L356.268 239.896H359.072ZM374.326 242.248V245.772H380.116V248.017H374.326V251.648H380.771V254H371.748V239.896H380.771V242.248H374.326ZM383.5 239.896H389.096C390.815 239.896 392.119 240.279 393.007 241.045C393.902 241.804 394.349 242.889 394.349 244.3C394.349 245.281 394.12 246.119 393.662 246.814C393.211 247.501 392.573 247.999 391.75 248.307L394.435 254H391.556L389.182 248.747H386.078V254H383.5V239.896ZM389.096 246.502C389.934 246.502 390.568 246.301 390.998 245.9C391.427 245.492 391.642 244.966 391.642 244.321C391.642 243.677 391.424 243.158 390.987 242.764C390.557 242.363 389.927 242.162 389.096 242.162H386.078V246.502H389.096Z" fill="#FF383D"/>
<path d="M934.77 358.046H1103.58C1112.4 358.046 1120.5 362.877 1124.7 370.63L1155.94 428.419C1160.14 436.172 1168.24 441.004 1177.06 441.004H1259.84" stroke="#FFB2B1" stroke-width="5" stroke-linejoin="round"/>
<path d="M1263.94 440.905C1263.94 445.941 1259.86 450.023 1254.83 450.023C1249.79 450.023 1245.71 445.941 1245.71 440.905C1245.71 435.868 1249.79 431.786 1254.83 431.786C1259.86 431.786 1263.94 435.868 1263.94 440.905Z" fill="#FF383D"/>
<path opacity="0.15" d="M1289.73 459.366C1289.73 420.356 1321.36 388.732 1360.37 388.732C1399.38 388.732 1431 420.356 1431 459.366C1431 498.376 1399.38 530 1360.37 530C1321.36 530 1289.73 498.376 1289.73 459.366Z" fill="#FF383D"/>
<path d="M1326.72 439.896H1332.32C1334.04 439.896 1335.34 440.279 1336.23 441.045C1337.12 441.804 1337.57 442.889 1337.57 444.3C1337.57 445.281 1337.34 446.119 1336.88 446.814C1336.43 447.501 1335.79 447.999 1334.97 448.307L1337.66 454H1334.78L1332.4 448.747H1329.3V454H1326.72V439.896ZM1332.32 446.502C1333.15 446.502 1333.79 446.301 1334.22 445.9C1334.65 445.492 1334.86 444.966 1334.86 444.321C1334.86 443.677 1334.64 443.158 1334.21 442.764C1333.78 442.363 1333.15 442.162 1332.32 442.162H1329.3V446.502H1332.32ZM1339.93 439.896H1342.51V448.812C1342.51 449.9 1342.82 450.691 1343.43 451.186C1344.05 451.68 1344.83 451.927 1345.79 451.927C1346.8 451.927 1347.6 451.665 1348.19 451.143C1348.79 450.613 1349.09 449.836 1349.09 448.812V439.896H1351.66V448.919C1351.66 450.079 1351.41 451.064 1350.9 451.873C1350.39 452.675 1349.69 453.28 1348.81 453.689C1347.92 454.09 1346.92 454.29 1345.79 454.29C1344.64 454.29 1343.63 454.086 1342.75 453.678C1341.87 453.262 1341.18 452.654 1340.67 451.852C1340.18 451.042 1339.93 450.065 1339.93 448.919V439.896ZM1366.18 439.896V454H1363.76L1357.27 444.343V454H1354.71V439.896H1357.14L1363.63 449.574V439.896H1366.18ZM1380.81 439.896V454H1378.39L1371.9 444.343V454H1369.34V439.896H1371.77L1378.26 449.574V439.896H1380.81ZM1385.59 439.896L1387.26 442.753C1387.67 443.469 1388.03 444.132 1388.35 444.74C1388.66 445.342 1388.86 445.721 1388.93 445.879C1389.01 445.714 1389.21 445.356 1389.51 444.805C1389.82 444.246 1390.2 443.562 1390.65 442.753L1392.32 439.896H1395.2L1390.21 448.35V454H1387.63V448.35L1382.61 439.896H1385.59ZM1345.75 468.896V483H1343.34L1336.85 473.343V483H1334.29V468.896H1336.72L1343.21 478.574V468.896H1345.75ZM1363.01 475.942C1363.01 477.36 1362.68 478.628 1362.04 479.745C1361.4 480.862 1360.5 481.732 1359.37 482.356C1358.23 482.979 1356.96 483.29 1355.55 483.29C1354.14 483.29 1352.87 482.982 1351.74 482.366C1350.61 481.75 1349.73 480.884 1349.1 479.767C1348.46 478.649 1348.14 477.382 1348.14 475.964C1348.14 474.539 1348.46 473.271 1349.1 472.161C1349.73 471.044 1350.61 470.174 1351.74 469.551C1352.87 468.928 1354.15 468.616 1355.57 468.616C1356.98 468.616 1358.25 468.928 1359.38 469.551C1360.51 470.174 1361.4 471.04 1362.04 472.15C1362.68 473.253 1363.01 474.517 1363.01 475.942ZM1360.28 475.942C1360.28 474.983 1360.08 474.131 1359.68 473.386C1359.28 472.641 1358.71 472.061 1357.99 471.646C1357.27 471.223 1356.47 471.012 1355.57 471.012C1354.66 471.012 1353.85 471.223 1353.12 471.646C1352.41 472.061 1351.85 472.641 1351.44 473.386C1351.03 474.131 1350.83 474.99 1350.83 475.964C1350.83 476.916 1351.03 477.769 1351.44 478.521C1351.85 479.265 1352.41 479.845 1353.12 480.261C1353.85 480.676 1354.66 480.884 1355.57 480.884C1356.47 480.884 1357.27 480.676 1357.99 480.261C1358.71 479.845 1359.28 479.265 1359.68 478.521C1360.08 477.769 1360.28 476.909 1360.28 475.942ZM1364.85 472.902C1364.85 472.036 1365.06 471.28 1365.48 470.636C1365.9 469.991 1366.49 469.494 1367.25 469.143C1368.02 468.792 1368.9 468.616 1369.89 468.616C1370.87 468.616 1371.75 468.788 1372.51 469.132C1373.28 469.476 1373.88 469.963 1374.31 470.593C1374.74 471.223 1374.95 471.957 1374.95 472.795H1372.3C1372.28 472.193 1372.04 471.71 1371.58 471.345C1371.12 470.972 1370.52 470.786 1369.76 470.786C1369.08 470.786 1368.52 470.958 1368.11 471.302C1367.7 471.638 1367.5 472.075 1367.5 472.612C1367.5 473.142 1367.68 473.533 1368.03 473.783C1368.4 474.034 1368.88 474.231 1369.48 474.374L1371.79 474.943C1372.85 475.194 1373.7 475.656 1374.35 476.329C1375 476.995 1375.33 477.855 1375.33 478.907C1375.33 479.788 1375.11 480.558 1374.66 481.217C1374.23 481.876 1373.6 482.388 1372.79 482.753C1371.99 483.111 1371.06 483.29 1369.99 483.29C1368.41 483.29 1367.12 482.907 1366.12 482.141C1365.13 481.367 1364.6 480.318 1364.51 478.993H1367.16C1367.19 479.652 1367.47 480.171 1367.99 480.551C1368.51 480.923 1369.19 481.109 1370.03 481.109C1370.84 481.109 1371.48 480.938 1371.93 480.594C1372.39 480.25 1372.62 479.777 1372.62 479.176C1372.62 478.66 1372.46 478.27 1372.14 478.005C1371.82 477.74 1371.39 477.543 1370.87 477.414L1368.51 476.845C1367.35 476.565 1366.45 476.1 1365.81 475.448C1365.17 474.789 1364.85 473.941 1364.85 472.902ZM1380.25 471.248V474.772H1386.04V477.017H1380.25V480.648H1386.69V483H1377.67V468.896H1386.69V471.248H1380.25Z" fill="#FF383D"/>
<path d="M1365.03 371.265C1413.8 371.265 1453.34 410.803 1453.34 459.578C1453.34 508.35 1413.8 547.888 1365.03 547.888V591.502" stroke="#FFD6D7" stroke-width="2.4" stroke-miterlimit="10"/>
<path d="M1357.77 593.704C1357.77 589.692 1361.02 586.442 1365.03 586.442C1369.04 586.442 1372.29 589.692 1372.29 593.704C1372.29 597.716 1369.04 600.966 1365.03 600.966C1361.02 600.966 1357.77 597.716 1357.77 593.704Z" fill="#F2AEB0"/>
<path opacity="0.15" d="M295.001 730.366C295.001 691.356 326.625 659.732 365.635 659.732C404.645 659.732 436.266 691.356 436.266 730.366C436.266 769.376 404.645 801 365.635 801C326.625 801 295.001 769.376 295.001 730.366Z" fill="#FF383D"/>
<g filter="url(#filter0_d)">
<path d="M315.822 726.896C317.197 726.896 318.422 727.196 319.496 727.798C320.577 728.399 321.419 729.241 322.02 730.322C322.622 731.397 322.923 732.618 322.923 733.985C322.923 735.346 322.625 736.56 322.031 737.627C321.437 738.687 320.599 739.514 319.517 740.108C318.443 740.703 317.211 741 315.822 741H310.58V726.896H315.822ZM315.596 738.648C316.52 738.648 317.33 738.454 318.024 738.067C318.726 737.674 319.267 737.126 319.646 736.424C320.026 735.722 320.216 734.909 320.216 733.985C320.216 733.047 320.026 732.224 319.646 731.515C319.267 730.799 318.726 730.244 318.024 729.85C317.33 729.449 316.52 729.248 315.596 729.248H313.158V738.648H315.596ZM325.941 726.896L327.617 729.753C328.025 730.469 328.387 731.132 328.702 731.74C329.017 732.342 329.21 732.721 329.282 732.879C329.368 732.714 329.561 732.356 329.862 731.805C330.17 731.246 330.55 730.562 331.001 729.753L332.677 726.896H335.555L330.56 735.35V741H327.982V735.35L322.966 726.896H325.941ZM343.139 726.896C344.622 726.896 345.786 727.315 346.631 728.152C347.483 728.99 347.909 730.111 347.909 731.515C347.909 732.424 347.716 733.23 347.329 733.932C346.942 734.626 346.384 735.171 345.653 735.565C344.93 735.958 344.078 736.155 343.096 736.155H339.927V741H337.349V726.896H343.139ZM342.613 733.942C343.48 733.942 344.128 733.71 344.557 733.244C344.994 732.772 345.213 732.181 345.213 731.472C345.213 730.827 344.994 730.283 344.557 729.839C344.128 729.388 343.501 729.162 342.677 729.162H339.927V733.942H342.613ZM349.628 730.902C349.628 730.036 349.835 729.28 350.251 728.636C350.673 727.991 351.264 727.494 352.023 727.143C352.789 726.792 353.67 726.616 354.666 726.616C355.647 726.616 356.521 726.788 357.287 727.132C358.053 727.476 358.651 727.963 359.081 728.593C359.51 729.223 359.725 729.957 359.725 730.795H357.072C357.058 730.193 356.818 729.71 356.352 729.345C355.894 728.972 355.289 728.786 354.537 728.786C353.849 728.786 353.298 728.958 352.883 729.302C352.474 729.638 352.27 730.075 352.27 730.612C352.27 731.142 352.449 731.533 352.807 731.783C353.173 732.034 353.656 732.231 354.258 732.374L356.567 732.943C357.62 733.194 358.472 733.656 359.124 734.329C359.775 734.995 360.101 735.855 360.101 736.907C360.101 737.788 359.879 738.558 359.435 739.217C358.998 739.876 358.375 740.388 357.566 740.753C356.764 741.111 355.83 741.29 354.762 741.29C353.18 741.29 351.891 740.907 350.895 740.141C349.907 739.367 349.37 738.318 349.284 736.993H351.937C351.966 737.652 352.242 738.171 352.764 738.551C353.287 738.923 353.968 739.109 354.805 739.109C355.615 739.109 356.248 738.938 356.707 738.594C357.165 738.25 357.394 737.777 357.394 737.176C357.394 736.66 357.233 736.27 356.911 736.005C356.589 735.74 356.166 735.543 355.643 735.414L353.28 734.845C352.12 734.565 351.221 734.1 350.584 733.448C349.946 732.789 349.628 731.941 349.628 730.902ZM373.905 726.896V741H371.488L365 731.343V741H362.443V726.896H364.871L371.359 736.574V726.896H373.905ZM391.157 733.942C391.157 735.36 390.835 736.628 390.19 737.745C389.546 738.862 388.654 739.732 387.515 740.356C386.384 740.979 385.113 741.29 383.702 741.29C382.291 741.29 381.02 740.982 379.888 740.366C378.764 739.75 377.883 738.884 377.246 737.767C376.608 736.649 376.29 735.382 376.29 733.964C376.29 732.539 376.608 731.271 377.246 730.161C377.883 729.044 378.764 728.174 379.888 727.551C381.02 726.928 382.298 726.616 383.723 726.616C385.134 726.616 386.402 726.928 387.526 727.551C388.658 728.174 389.546 729.04 390.19 730.15C390.835 731.253 391.157 732.517 391.157 733.942ZM388.428 733.942C388.428 732.983 388.228 732.131 387.827 731.386C387.426 730.641 386.864 730.061 386.14 729.646C385.424 729.223 384.619 729.012 383.723 729.012C382.814 729.012 381.997 729.223 381.274 729.646C380.558 730.061 379.996 730.641 379.588 731.386C379.179 732.131 378.975 732.99 378.975 733.964C378.975 734.916 379.179 735.769 379.588 736.521C379.996 737.265 380.558 737.845 381.274 738.261C381.997 738.676 382.814 738.884 383.723 738.884C384.619 738.884 385.424 738.676 386.14 738.261C386.864 737.845 387.426 737.265 387.827 736.521C388.228 735.769 388.428 734.909 388.428 733.942ZM396.109 729.248V732.772H401.899V735.017H396.109V738.648H402.554V741H393.531V726.896H402.554V729.248H396.109ZM409.161 726.896H411.782L417.013 741H414.285L413.146 737.788H407.754L406.561 741H403.897L409.161 726.896ZM412.394 735.65L411.492 733.169C411.406 732.933 411.17 732.234 410.783 731.074L410.482 730.193C410.425 730.387 410.289 730.791 410.074 731.407C409.859 732.023 409.641 732.61 409.419 733.169L408.495 735.65H412.394Z" fill="#FF383D"/>
</g>
<path d="M365.333 642.642C414.105 642.642 453.643 682.18 453.643 730.952C453.643 779.727 414.105 819.265 365.333 819.265V862.876" stroke="#FFD6D7" stroke-width="2.4" stroke-miterlimit="10"/>
<path d="M358.07 865.08C358.07 861.068 361.321 857.818 365.332 857.818C369.344 857.818 372.595 861.068 372.595 865.08C372.595 869.089 369.344 872.342 365.332 872.342C361.321 872.342 358.07 869.089 358.07 865.08Z" fill="#F2AEB0"/>
<path d="M470.74 742.834H649.033C658.666 742.834 667.365 737.075 671.127 728.207L727.54 595.233C731.302 586.365 740.002 580.606 749.634 580.606H956.809" stroke="#FFB2B1" stroke-width="5" stroke-linejoin="round"/>
<path d="M485.987 743.241C485.987 748.277 481.904 752.359 476.868 752.359C471.832 752.359 467.75 748.277 467.75 743.241C467.75 738.205 471.832 734.122 476.868 734.122C481.904 734.122 485.987 738.205 485.987 743.241Z" fill="#FF383D"/>
<path opacity="0.15" d="M443.268 488.366C443.268 449.356 411.644 417.732 372.634 417.732C333.624 417.732 302 449.356 302 488.366C302 527.376 333.624 559 372.634 559C411.644 559 443.268 527.376 443.268 488.366Z" fill="#FF383D"/>
<path d="M342.203 474.227H337.938V486H335.36V474.227H331.052V471.896H342.203V474.227ZM344.115 471.896H346.693V477.75L352.945 477.771V471.896H355.534V486H352.945V479.995H346.693V486H344.115V471.896ZM358.574 471.896H364.17C365.889 471.896 367.193 472.279 368.081 473.045C368.976 473.804 369.423 474.889 369.423 476.3C369.423 477.281 369.194 478.119 368.736 478.813C368.285 479.501 367.647 479.999 366.824 480.307L369.509 486H366.63L364.256 480.747H361.152V486H358.574V471.896ZM364.17 478.502C365.008 478.502 365.642 478.301 366.072 477.9C366.501 477.492 366.716 476.966 366.716 476.321C366.716 475.677 366.498 475.158 366.061 474.764C365.631 474.363 365.001 474.162 364.17 474.162H361.152V478.502H364.17ZM385.87 478.942C385.87 480.36 385.547 481.628 384.903 482.745C384.258 483.862 383.367 484.732 382.228 485.355C381.097 485.979 379.825 486.29 378.415 486.29C377.004 486.29 375.733 485.982 374.601 485.366C373.477 484.75 372.596 483.884 371.958 482.767C371.321 481.649 371.002 480.382 371.002 478.964C371.002 477.539 371.321 476.271 371.958 475.161C372.596 474.044 373.477 473.174 374.601 472.551C375.733 471.928 377.011 471.616 378.436 471.616C379.847 471.616 381.114 471.928 382.239 472.551C383.37 473.174 384.258 474.04 384.903 475.15C385.547 476.253 385.87 477.517 385.87 478.942ZM383.141 478.942C383.141 477.983 382.941 477.131 382.54 476.386C382.139 475.641 381.576 475.061 380.853 474.646C380.137 474.223 379.331 474.012 378.436 474.012C377.527 474.012 376.71 474.223 375.987 474.646C375.271 475.061 374.708 475.641 374.3 476.386C373.892 477.131 373.688 477.99 373.688 478.964C373.688 479.916 373.892 480.769 374.3 481.521C374.708 482.265 375.271 482.845 375.987 483.261C376.71 483.676 377.527 483.884 378.436 483.884C379.331 483.884 380.137 483.676 380.853 483.261C381.576 482.845 382.139 482.265 382.54 481.521C382.941 480.769 383.141 479.909 383.141 478.942ZM391.456 471.896H394.077L399.308 486H396.58L395.441 482.788H390.048L388.856 486H386.192L391.456 471.896ZM394.689 480.65L393.787 478.169C393.701 477.933 393.464 477.234 393.078 476.074L392.777 475.193C392.72 475.387 392.583 475.791 392.369 476.407C392.154 477.023 391.935 477.61 391.713 478.169L390.79 480.65H394.689ZM409.707 474.227H405.442V486H402.864V474.227H398.556V471.896H409.707V474.227ZM357.682 500.896C359.165 500.896 360.328 501.314 361.173 502.152C362.026 502.99 362.452 504.111 362.452 505.515C362.452 506.424 362.258 507.23 361.872 507.932C361.485 508.626 360.926 509.171 360.196 509.564C359.472 509.958 358.62 510.155 357.639 510.155H354.47V515H351.892V500.896H357.682ZM357.156 507.942C358.022 507.942 358.67 507.71 359.1 507.244C359.537 506.771 359.755 506.181 359.755 505.472C359.755 504.827 359.537 504.283 359.1 503.839C358.67 503.388 358.044 503.162 357.22 503.162H354.47V507.942H357.156ZM367.372 500.896H369.993L375.224 515H372.496L371.357 511.788H365.964L364.772 515H362.108L367.372 500.896ZM370.605 509.65L369.703 507.169C369.617 506.933 369.38 506.234 368.994 505.074L368.693 504.193C368.636 504.387 368.5 504.791 368.285 505.407C368.07 506.023 367.851 506.61 367.629 507.169L366.706 509.65H370.605ZM377.029 515V500.896H379.607V515H377.029ZM394.098 500.896V515H391.681L385.193 505.343V515H382.636V500.896H385.064L391.552 510.574V500.896H394.098Z" fill="#FF383D"/>
<path d="M373.973 400.026C325.2 400.026 285.663 439.563 285.663 488.338C285.663 537.111 325.2 576.648 373.973 576.648V620.262" stroke="#FFD6D7" stroke-width="2.4" stroke-miterlimit="10"/>
<path d="M381.433 622.545C381.433 618.533 378.182 615.283 374.17 615.283C370.161 615.283 366.908 618.533 366.908 622.545C366.908 626.556 370.161 629.807 374.17 629.807C378.182 629.807 381.433 626.556 381.433 622.545Z" fill="#F2AEB0"/>
<path d="M474.511 503.07H677.822C685.243 503.07 692.246 499.638 696.792 493.772L739.528 438.629C744.074 432.763 751.077 429.331 758.498 429.331H915.721" stroke="#FFB2B1" stroke-width="5" stroke-linejoin="round"/>
<path d="M484.761 503.586C484.761 508.622 480.678 512.704 475.642 512.704C470.606 512.704 466.524 508.622 466.524 503.586C466.524 498.55 470.606 494.468 475.642 494.468C480.678 494.468 484.761 498.55 484.761 503.586Z" fill="#FF383D"/>
<path opacity="0.13" d="M1444 700.366C1444 661.356 1412.38 629.732 1373.37 629.732C1334.36 629.732 1302.74 661.356 1302.74 700.366C1302.74 739.376 1334.36 771 1373.37 771C1412.38 771 1444 739.376 1444 700.366Z" fill="#FF383D"/>
<path d="M1329.72 683.902C1329.72 683.036 1329.92 682.28 1330.34 681.636C1330.76 680.991 1331.35 680.493 1332.11 680.143C1332.88 679.792 1333.76 679.616 1334.75 679.616C1335.74 679.616 1336.61 679.788 1337.38 680.132C1338.14 680.476 1338.74 680.963 1339.17 681.593C1339.6 682.223 1339.81 682.957 1339.81 683.795H1337.16C1337.15 683.193 1336.91 682.71 1336.44 682.345C1335.98 681.972 1335.38 681.786 1334.63 681.786C1333.94 681.786 1333.39 681.958 1332.97 682.302C1332.56 682.638 1332.36 683.075 1332.36 683.612C1332.36 684.142 1332.54 684.532 1332.9 684.783C1333.26 685.034 1333.74 685.231 1334.35 685.374L1336.66 685.943C1337.71 686.194 1338.56 686.656 1339.21 687.329C1339.86 687.995 1340.19 688.854 1340.19 689.907C1340.19 690.788 1339.97 691.558 1339.52 692.217C1339.09 692.876 1338.46 693.388 1337.65 693.753C1336.85 694.111 1335.92 694.29 1334.85 694.29C1333.27 694.29 1331.98 693.907 1330.98 693.141C1330 692.367 1329.46 691.318 1329.37 689.993H1332.03C1332.05 690.652 1332.33 691.171 1332.85 691.551C1333.38 691.923 1334.06 692.109 1334.89 692.109C1335.7 692.109 1336.34 691.937 1336.8 691.594C1337.25 691.25 1337.48 690.777 1337.48 690.176C1337.48 689.66 1337.32 689.27 1337 689.005C1336.68 688.74 1336.25 688.543 1335.73 688.414L1333.37 687.845C1332.21 687.565 1331.31 687.1 1330.67 686.448C1330.03 685.789 1329.72 684.941 1329.72 683.902ZM1342.53 679.895H1345.11V685.75L1351.36 685.771V679.895H1353.95V694H1351.36V687.995H1345.11V694H1342.53V679.895ZM1360.87 679.895H1363.49L1368.72 694H1365.99L1364.85 690.788H1359.46L1358.27 694H1355.6L1360.87 679.895ZM1364.1 688.65L1363.2 686.169C1363.11 685.933 1362.88 685.234 1362.49 684.074L1362.19 683.193C1362.13 683.387 1362 683.791 1361.78 684.407C1361.57 685.023 1361.35 685.61 1361.13 686.169L1360.2 688.65H1364.1ZM1377.22 685.965L1382.08 694H1378.98L1375.46 688.145L1373.13 691.035V694.043H1370.53V679.895H1373.13V687.071L1378.89 679.895H1382.11L1377.22 685.965ZM1383.95 694V679.895H1386.53V694H1383.95ZM1401.02 679.895V694H1398.61L1392.12 684.343V694H1389.56V679.895H1391.99L1398.48 689.574V679.895H1401.02ZM1417.62 686.341V687.684C1417.62 688.987 1417.32 690.14 1416.72 691.143C1416.12 692.138 1415.28 692.911 1414.2 693.463C1413.14 694.014 1411.92 694.29 1410.55 694.29C1409.13 694.29 1407.88 693.989 1406.8 693.388C1405.73 692.786 1404.89 691.941 1404.3 690.852C1403.7 689.757 1403.41 688.489 1403.41 687.05C1403.41 685.582 1403.71 684.289 1404.32 683.172C1404.93 682.047 1405.78 681.174 1406.88 680.551C1407.98 679.928 1409.24 679.616 1410.67 679.616C1411.82 679.616 1412.85 679.817 1413.78 680.218C1414.72 680.619 1415.5 681.185 1416.12 681.915C1416.73 682.638 1417.14 683.469 1417.33 684.407H1414.58C1414.3 683.648 1413.81 683.057 1413.1 682.635C1412.39 682.205 1411.55 681.99 1410.59 681.99C1409.2 681.99 1408.09 682.449 1407.29 683.365C1406.48 684.282 1406.07 685.496 1406.07 687.007C1406.07 688.518 1406.48 689.71 1407.3 690.584C1408.12 691.45 1409.23 691.884 1410.62 691.884C1411.78 691.884 1412.74 691.594 1413.49 691.014C1414.26 690.426 1414.72 689.603 1414.87 688.543H1410.4V686.341H1417.62ZM1346.97 723.29C1345.56 723.29 1344.3 722.986 1343.2 722.377C1342.1 721.768 1341.25 720.905 1340.63 719.788C1340.01 718.671 1339.71 717.389 1339.71 715.942C1339.71 714.503 1340.01 713.228 1340.62 712.118C1341.23 711.001 1342.08 710.138 1343.18 709.529C1344.28 708.921 1345.54 708.616 1346.97 708.616C1348.14 708.616 1349.22 708.817 1350.19 709.218C1351.16 709.619 1351.97 710.199 1352.61 710.958C1353.25 711.71 1353.65 712.584 1353.83 713.579H1350.96C1350.74 712.82 1350.27 712.2 1349.55 711.721C1348.82 711.234 1347.96 710.99 1346.95 710.99C1346.04 710.99 1345.24 711.194 1344.54 711.602C1343.85 712.011 1343.32 712.594 1342.95 713.353C1342.58 714.105 1342.39 714.976 1342.39 715.964C1342.39 716.959 1342.58 717.833 1342.96 718.585C1343.34 719.33 1343.87 719.899 1344.56 720.293C1345.26 720.687 1346.05 720.884 1346.95 720.884C1347.93 720.884 1348.78 720.647 1349.51 720.175C1350.25 719.695 1350.74 719.061 1350.96 718.273H1353.83C1353.67 719.254 1353.27 720.128 1352.64 720.894C1352.01 721.654 1351.21 722.244 1350.23 722.667C1349.26 723.082 1348.17 723.29 1346.97 723.29ZM1356.17 708.895H1358.75V714.75L1365 714.771V708.895H1367.59V723H1365V716.995H1358.75V723H1356.17V708.895ZM1370.63 723V708.895H1373.21V723H1370.63ZM1384.67 720.669V723H1376.24V708.895H1378.84V720.669H1384.67ZM1395.18 720.669V723H1386.75V708.895H1389.35V720.669H1395.18ZM1396.85 712.902C1396.85 712.036 1397.06 711.28 1397.48 710.636C1397.9 709.991 1398.49 709.493 1399.25 709.143C1400.02 708.792 1400.9 708.616 1401.89 708.616C1402.87 708.616 1403.75 708.788 1404.51 709.132C1405.28 709.476 1405.88 709.963 1406.31 710.593C1406.74 711.223 1406.95 711.957 1406.95 712.795H1404.3C1404.28 712.193 1404.05 711.71 1403.58 711.345C1403.12 710.972 1402.52 710.786 1401.76 710.786C1401.08 710.786 1400.53 710.958 1400.11 711.302C1399.7 711.638 1399.5 712.075 1399.5 712.612C1399.5 713.142 1399.68 713.532 1400.03 713.783C1400.4 714.034 1400.88 714.231 1401.48 714.374L1403.79 714.943C1404.85 715.194 1405.7 715.656 1406.35 716.329C1407 716.995 1407.33 717.854 1407.33 718.907C1407.33 719.788 1407.11 720.558 1406.66 721.217C1406.23 721.876 1405.6 722.388 1404.79 722.753C1403.99 723.111 1403.06 723.29 1401.99 723.29C1400.41 723.29 1399.12 722.907 1398.12 722.141C1397.13 721.367 1396.6 720.318 1396.51 718.993H1399.16C1399.19 719.652 1399.47 720.171 1399.99 720.551C1400.51 720.923 1401.19 721.109 1402.03 721.109C1402.84 721.109 1403.48 720.937 1403.93 720.594C1404.39 720.25 1404.62 719.777 1404.62 719.176C1404.62 718.66 1404.46 718.27 1404.14 718.005C1403.82 717.74 1403.39 717.543 1402.87 717.414L1400.51 716.845C1399.35 716.565 1398.45 716.1 1397.81 715.448C1397.17 714.789 1396.85 713.941 1396.85 712.902Z" fill="#FA5652"/>
<path d="M1373.87 613.801C1325.1 613.801 1285.56 653.339 1285.56 702.111C1285.56 750.886 1325.1 790.424 1373.87 790.424V834.035" stroke="#FFD6D7" stroke-width="2.4" stroke-miterlimit="10"/>
<path d="M1381.13 836.239C1381.13 832.227 1377.88 828.976 1373.86 828.976C1369.85 828.976 1366.6 832.227 1366.6 836.239C1366.6 840.248 1369.85 843.501 1373.86 843.501C1377.88 843.501 1381.13 840.248 1381.13 836.239Z" fill="#F2AEB0"/>
<path d="M1009.74 754.401H1100.85C1108.12 754.401 1115.01 751.098 1119.56 745.421L1145.1 713.605C1149.65 707.929 1156.54 704.626 1163.81 704.626H1258" stroke="#FFA6A6" stroke-width="5" stroke-linejoin="round"/>
<path d="M1263.94 703.913C1263.94 708.949 1259.86 713.031 1254.82 713.031C1249.79 713.031 1245.71 708.949 1245.71 703.913C1245.71 698.876 1249.79 694.794 1254.82 694.794C1259.86 694.794 1263.94 698.876 1263.94 703.913Z" fill="#FF383D"/>
<path opacity="0.15" d="M1444 214.366C1444 175.356 1412.38 143.732 1373.37 143.732C1334.36 143.732 1302.74 175.356 1302.74 214.366C1302.74 253.376 1334.36 285 1373.37 285C1412.38 285 1444 253.376 1444 214.366Z" fill="#FF383D"/>
<path d="M1320.58 210.896H1323.16V216.75L1329.41 216.772V210.896H1332V225H1329.41V218.995H1323.16V225H1320.58V210.896ZM1337.62 213.248V216.772H1343.41V219.017H1337.62V222.648H1344.06V225H1335.04V210.896H1344.06V213.248H1337.62ZM1350.67 210.896H1353.29L1358.52 225H1355.79L1354.65 221.788H1349.26L1348.07 225H1345.41L1350.67 210.896ZM1353.9 219.65L1353 217.169C1352.91 216.933 1352.68 216.234 1352.29 215.074L1351.99 214.193C1351.93 214.387 1351.8 214.791 1351.58 215.407C1351.37 216.023 1351.15 216.61 1350.93 217.169L1350 219.65H1353.9ZM1365.57 210.896C1366.94 210.896 1368.17 211.196 1369.24 211.798C1370.32 212.399 1371.17 213.241 1371.77 214.322C1372.37 215.397 1372.67 216.618 1372.67 217.985C1372.67 219.346 1372.37 220.56 1371.78 221.627C1371.18 222.687 1370.35 223.514 1369.26 224.108C1368.19 224.703 1366.96 225 1365.57 225H1360.33V210.896H1365.57ZM1365.34 222.648C1366.27 222.648 1367.08 222.454 1367.77 222.067C1368.47 221.674 1369.01 221.126 1369.39 220.424C1369.77 219.722 1369.96 218.909 1369.96 217.985C1369.96 217.047 1369.77 216.224 1369.39 215.515C1369.01 214.799 1368.47 214.244 1367.77 213.85C1367.08 213.449 1366.27 213.248 1365.34 213.248H1362.9V222.648H1365.34ZM1378.26 210.896H1380.88L1386.11 225H1383.38L1382.24 221.788H1376.85L1375.66 225H1372.99L1378.26 210.896ZM1381.49 219.65L1380.59 217.169C1380.5 216.933 1380.26 216.234 1379.88 215.074L1379.58 214.193C1379.52 214.387 1379.38 214.791 1379.17 215.407C1378.95 216.023 1378.73 216.61 1378.51 217.169L1377.59 219.65H1381.49ZM1393.72 225.29C1392.31 225.29 1391.06 224.986 1389.95 224.377C1388.86 223.768 1388 222.905 1387.39 221.788C1386.77 220.671 1386.46 219.389 1386.46 217.942C1386.46 216.503 1386.77 215.228 1387.38 214.118C1387.98 213.001 1388.84 212.138 1389.93 211.529C1391.03 210.921 1392.3 210.616 1393.72 210.616C1394.9 210.616 1395.97 210.817 1396.95 211.218C1397.92 211.619 1398.73 212.199 1399.36 212.958C1400 213.71 1400.41 214.584 1400.59 215.579H1397.72C1397.5 214.82 1397.03 214.201 1396.3 213.721C1395.58 213.234 1394.71 212.99 1393.7 212.99C1392.79 212.99 1391.99 213.194 1391.3 213.603C1390.61 214.011 1390.08 214.594 1389.71 215.354C1389.33 216.106 1389.15 216.976 1389.15 217.964C1389.15 218.959 1389.34 219.833 1389.72 220.585C1390.1 221.33 1390.63 221.899 1391.32 222.293C1392.01 222.687 1392.81 222.884 1393.7 222.884C1394.68 222.884 1395.54 222.648 1396.27 222.175C1397.01 221.695 1397.49 221.061 1397.72 220.273H1400.59C1400.42 221.255 1400.03 222.128 1399.4 222.895C1398.77 223.654 1397.96 224.245 1396.99 224.667C1396.02 225.082 1394.93 225.29 1393.72 225.29ZM1402.93 210.896H1405.51V216.75L1411.76 216.772V210.896H1414.35V225H1411.76V218.995H1405.51V225H1402.93V210.896ZM1419.97 213.248V216.772H1425.76V219.017H1419.97V222.648H1426.41V225H1417.39V210.896H1426.41V213.248H1419.97Z" fill="#FF383D"/>
<path d="M1373.87 127.65C1325.1 127.65 1285.56 167.187 1285.56 215.96C1285.56 264.732 1325.1 304.272 1373.87 304.272V347.883" stroke="#FFD6D7" stroke-width="2.4" stroke-miterlimit="10"/>
<path d="M1381.13 350.087C1381.13 346.075 1377.88 342.825 1373.87 342.825C1369.86 342.825 1366.61 346.075 1366.61 350.087C1366.61 354.099 1369.86 357.349 1373.87 357.349C1377.88 357.349 1381.13 354.099 1381.13 350.087Z" fill="#F2AEB0"/>
<path d="M1259.84 222.859H1133.56C1127.44 222.859 1121.56 225.195 1117.1 229.39L1088.57 256.271C1084.11 260.466 1078.23 262.802 1072.11 262.802H958.12" stroke="#FFB2B1" stroke-width="5" stroke-linejoin="round"/>
<path d="M1263.94 222.146C1263.94 227.182 1259.86 231.264 1254.82 231.264C1249.79 231.264 1245.7 227.182 1245.7 222.146C1245.7 217.11 1249.79 213.027 1254.82 213.027C1259.86 213.027 1263.94 217.11 1263.94 222.146Z" fill="#FF383D"/>
<defs>
<filter id="filter0_d" x="310.58" y="726.616" width="106.434" height="14.6738" filterUnits="userSpaceOnUse" color-interpolation-filters="sRGB">
<feFlood flood-opacity="0" result="BackgroundImageFix"/>
<feColorMatrix in="SourceAlpha" type="matrix" values="0 0 0 0 0 0 0 0 0 0 0 0 0 0 0 0 0 0 127 0"/>
<feOffset/>
<feColorMatrix type="matrix" values="0 0 0 0 0 0 0 0 0 0 0 0 0 0 0 0 0 0 0.1 0"/>
<feBlend mode="normal" in2="BackgroundImageFix" result="effect1_dropShadow"/>
<feBlend mode="normal" in="SourceGraphic" in2="effect1_dropShadow" result="shape"/>
</filter>
<linearGradient id="paint0_linear" x1="164.736" y1="646.295" x2="-11.8229" y2="621.419" gradientUnits="userSpaceOnUse">
<stop stop-color="#FFE1E2"/>
<stop offset="1" stop-color="#FFF8F8"/>
</linearGradient>
<linearGradient id="paint1_linear" x1="1710.07" y1="724.796" x2="1600.45" y2="833.245" gradientUnits="userSpaceOnUse">
<stop stop-color="#FFD3D2"/>
<stop offset="1" stop-color="#FFFAFA"/>
</linearGradient>
<linearGradient id="paint2_linear" x1="563.615" y1="651.802" x2="627.866" y2="780.175" gradientUnits="userSpaceOnUse">
<stop stop-color="#FFC8C8"/>
<stop offset="1" stop-color="#FFF2F5"/>
</linearGradient>
<linearGradient id="paint3_linear" x1="1195.18" y1="248.499" x2="673.511" y2="38.2372" gradientUnits="userSpaceOnUse">
<stop stop-color="white"/>
<stop offset="1" stop-color="#FFD5D5"/>
</linearGradient>
<linearGradient id="paint4_linear" x1="1127.95" y1="153.536" x2="966.873" y2="126.967" gradientUnits="userSpaceOnUse">
<stop stop-color="#FFD3D3"/>
<stop offset="1" stop-color="#FFF6F6"/>
</linearGradient>
<linearGradient id="paint5_linear" x1="489.431" y1="428.025" x2="1246.77" y2="428.025" gradientUnits="userSpaceOnUse">
<stop stop-color="#FFF8F5"/>
<stop offset="1" stop-color="#FFDEDE"/>
</linearGradient>
<linearGradient id="paint6_linear" x1="1177.01" y1="609.534" x2="978.623" y2="627.818" gradientUnits="userSpaceOnUse">
<stop stop-color="#FFC2C2"/>
<stop offset="1" stop-color="white"/>
</linearGradient>
</defs>
</svg>
