<svg width="761" height="710" viewBox="0 0 761 710" fill="none" xmlns="http://www.w3.org/2000/svg">
<path d="M313.319 659.925C275.696 676.085 237.219 684.929 195.225 679.755C148.418 673.985 105.734 637.038 80.4997 599.06C71.1241 584.953 63.3527 569.015 63.127 552.082C62.62 512.964 99.1652 506.204 130.839 510.469C148.694 512.864 165.402 519.88 181.922 526.83C209.349 538.378 240.931 542.876 265.944 559.731C274.339 565.405 280.825 572.456 290.404 576.357C305.305 582.431 322.007 584.668 337.258 590.086C350.281 594.738 365.027 602.828 365.946 616.621C366.871 630.767 352.701 640.746 340.1 647.224C331.183 651.836 322.283 656.091 313.319 659.925Z" fill="url(#paint0_linear)"/>
<path d="M138.723 166.324C195.746 69.226 323.773 23.3765 431.805 51.4319C483.899 64.9691 528.928 97.2991 570.724 131.183C607.566 161.048 643.536 193.505 669.96 233.264C688.002 260.402 701.804 293.444 712.052 324.463C727.378 370.91 720.234 432.511 658.87 432.038C644.472 431.928 631.739 427.585 618.043 423.952C606.964 421.005 596.484 423.89 585.113 422.84C556.49 420.203 528.519 411.555 501.914 401.023C447.694 379.536 397.428 348.817 341.915 330.51C296.423 315.532 248.485 309.394 200.686 312.429C180.521 313.712 159.413 316.507 140.789 308.669C94.8826 289.329 110.958 228.051 125.358 193.23C129.17 183.956 133.636 174.965 138.723 166.324V166.324Z" fill="url(#paint1_linear)"/>
<path d="M634.327 148.067C645.328 156.796 687.815 179.815 686.633 149.625C686.328 142.105 682.447 135.037 677.453 129.841C671.739 123.876 665.511 120.957 660.891 113.875C655.245 105.327 648.933 97.3598 642.036 90.0751C627.921 74.8973 611.694 61.0813 592.749 55.6904C579.461 51.9148 557.55 54.5127 552.468 71.5587C545.063 96.3733 583.779 98.3043 596.074 106.369C607.741 114 614.977 127.949 624.533 138.787C627.551 142.204 630.83 145.31 634.327 148.067V148.067Z" fill="url(#paint2_linear)"/>
<path d="M440.326 131.136C463.172 142.653 480.942 160.965 502.021 175.271C537.114 199.085 583.237 201.415 622.715 216.992C662.97 232.887 694.329 259.626 710.358 300.068C731.063 352.268 736.839 415.576 725.785 471.352C713.608 532.749 678.38 575.304 624.791 605.648C571.234 635.973 510.785 652.44 449.853 659C443.973 659.639 438.095 660.159 432.188 660.583C299.502 670.018 119.77 634.83 65.2711 495.187C64.7718 493.911 64.2898 492.634 63.8054 491.339C58.1117 475.756 54.3041 459.548 52.4638 443.061C45.7943 384.62 51.8311 319.24 68.7976 262.938C80.2068 225.035 107.933 191.805 137.847 167.466C179.875 133.271 233.128 121.769 286.404 114.518C325.855 109.15 370.363 105.224 408.831 117.937C419.644 121.544 430.172 125.956 440.326 131.136Z" fill="url(#paint3_linear)"/>
<path d="M366.175 344.624C367.776 348.434 372.162 350.225 375.972 348.624L391.662 342.032C399.649 338.676 408.309 337.191 416.952 337.793C419.529 337.973 422.197 337.485 424.706 336.228C431.353 332.897 434.561 325.005 432.123 317.981C429.262 309.734 420.098 305.735 412.177 309.063C410.032 309.964 408.206 311.307 406.763 312.942C400.971 319.503 393.931 324.845 385.862 328.236L370.175 334.827C366.365 336.427 364.574 340.814 366.175 344.624Z" fill="#FB4C47"/>
<path d="M291.515 428.692C288.352 427.4 284.741 428.918 283.449 432.081L278.13 445.107C275.423 451.739 271.228 457.669 265.824 462.37C264.212 463.771 262.938 465.616 262.206 467.818C260.267 473.651 263.005 480.14 268.537 482.822C275.031 485.97 282.726 482.951 285.411 476.375C286.139 474.594 286.42 472.742 286.309 470.942C285.859 463.72 286.852 456.482 289.587 449.783L294.905 436.758C296.196 433.595 294.678 429.983 291.515 428.692Z" fill="#C63F3B"/>
<path d="M339.488 311.204C342.798 312.556 346.577 310.968 347.929 307.658L353.494 294.027C356.328 287.087 360.717 280.882 366.372 275.963C368.058 274.496 369.392 272.565 370.158 270.262C372.187 264.157 369.321 257.367 363.533 254.561C356.738 251.267 348.684 254.426 345.875 261.307C345.114 263.171 344.819 265.109 344.936 266.992C345.406 274.55 344.368 282.124 341.506 289.135L335.941 302.764C334.59 306.074 336.178 309.853 339.488 311.204Z" fill="#C63F3B"/>
<path d="M337.948 413.773C334.138 415.374 332.346 419.76 333.947 423.571L340.539 439.261C343.895 447.248 345.38 455.908 344.778 464.551C344.599 467.127 345.087 469.795 346.343 472.304C349.674 478.952 357.566 482.159 364.59 479.722C372.837 476.86 376.836 467.696 373.508 459.776C372.607 457.63 371.264 455.805 369.629 454.362C363.068 448.57 357.726 441.53 354.336 433.461L347.745 417.774C346.144 413.964 341.758 412.173 337.948 413.773Z" fill="#FB4C47"/>
<path d="M369.627 454.363C363.066 448.57 357.723 441.531 354.333 433.462L347.742 417.774C346.141 413.964 341.755 412.173 337.944 413.774C334.134 415.375 332.343 419.761 333.944 423.571L340.535 439.259C343.926 447.328 349.268 454.367 355.829 460.16C357.464 461.603 358.807 463.428 359.708 465.573C361.852 470.676 360.951 476.293 357.837 480.41C360.059 480.698 362.367 480.493 364.588 479.723C372.834 476.861 376.834 467.697 373.506 459.776C372.605 457.631 371.262 455.806 369.627 454.363Z" fill="#C63F3B"/>
<path d="M254.029 358.223C266.476 352.994 272.326 338.665 267.097 326.218C261.867 313.772 247.538 307.921 235.092 313.151C222.645 318.38 216.795 332.709 222.024 345.156C227.254 357.602 241.583 363.453 254.029 358.223Z" fill="#FF8F8C"/>
<path d="M235.097 313.15C232.69 314.161 230.533 315.516 228.652 317.129C238.947 316.232 249.086 321.976 253.304 332.015C257.522 342.054 254.528 353.316 246.682 360.041C249.15 359.826 251.627 359.234 254.034 358.223C266.481 352.993 272.331 338.664 267.102 326.218C261.872 313.771 247.543 307.921 235.097 313.15Z" fill="#FB4C47"/>
<path d="M348.405 438.668C389.046 421.593 408.149 374.805 391.074 334.164C373.999 293.524 327.211 274.42 286.57 291.496C245.929 308.571 226.826 355.359 243.901 396C260.977 436.64 307.765 455.744 348.405 438.668Z" fill="#FB4C47"/>
<path d="M286.57 291.495C284.244 292.473 281.991 293.552 279.808 294.718C318.675 282.481 361.18 301.647 377.277 339.961C393.375 378.274 377.315 422.047 341.371 441.242C343.731 440.498 346.079 439.645 348.406 438.668C389.047 421.592 408.15 374.804 391.075 334.163C374 293.523 327.211 274.42 286.57 291.495Z" fill="#C63F3B"/>
<path d="M340.796 343.281C349.051 339.812 352.932 330.309 349.463 322.053C345.995 313.798 336.491 309.918 328.236 313.386C319.98 316.855 316.1 326.359 319.569 334.614C323.037 342.869 332.541 346.749 340.796 343.281Z" fill="#C63F3B"/>
<path d="M328.234 313.387C325.745 314.432 323.657 316.03 322.045 317.974C327.874 318.458 333.242 322.085 335.664 327.851C338.087 333.617 336.921 339.989 333.186 344.491C335.703 344.7 338.305 344.327 340.795 343.281C349.05 339.813 352.93 330.309 349.462 322.054C345.993 313.798 336.49 309.918 328.234 313.387Z" fill="white"/>
<path d="M307.514 414.998C313.103 412.651 315.729 406.217 313.381 400.629C311.033 395.041 304.6 392.414 299.012 394.762C293.423 397.11 290.797 403.543 293.145 409.131C295.493 414.72 301.926 417.346 307.514 414.998Z" fill="white"/>
<path d="M396.278 412.421C403.898 409.22 407.48 400.447 404.278 392.827C401.076 385.206 392.304 381.624 384.683 384.826C377.063 388.028 373.481 396.801 376.683 404.421C379.885 412.041 388.657 415.623 396.278 412.421Z" fill="#FB4C47"/>
<path d="M384.683 384.827C382.169 385.883 380.097 387.548 378.561 389.576C383.686 390.229 388.334 393.518 390.48 398.625C392.625 403.731 391.721 409.352 388.601 413.471C391.124 413.793 393.763 413.479 396.277 412.423C403.898 409.221 407.479 400.448 404.278 392.828C401.076 385.208 392.303 381.625 384.683 384.827Z" fill="#C63F3B"/>
<path d="M268.791 385.54C270.392 389.35 268.602 393.736 264.791 395.337L249.102 401.929C241.114 405.285 233.993 410.432 228.373 417.026C226.698 418.992 224.482 420.556 221.828 421.468C214.797 423.885 206.915 420.652 203.604 413.994C199.717 406.179 203.275 396.834 211.195 393.506C213.341 392.605 215.578 392.241 217.755 392.355C226.495 392.81 235.238 391.521 243.307 388.131L258.995 381.54C262.804 379.939 267.191 381.73 268.791 385.54Z" fill="#C63F3B"/>
<path d="M297.035 316.389C300.845 314.788 302.637 310.402 301.036 306.591L294.443 290.902C291.088 282.914 289.603 274.254 290.205 265.612C290.384 263.035 289.896 260.367 288.639 257.858C285.309 251.211 277.417 248.003 270.392 250.44C262.146 253.302 258.146 262.466 261.474 270.387C262.376 272.532 263.719 274.357 265.354 275.8C271.915 281.593 277.257 288.632 280.647 296.701L287.239 312.389C288.839 316.199 293.225 317.99 297.035 316.389Z" fill="#FB4C47"/>
<path d="M288.64 257.858C285.31 251.21 277.418 248.003 270.393 250.44C267.459 251.458 265.067 253.276 263.347 255.55C268.154 256.174 272.565 259.11 274.843 263.655C276.099 266.164 276.588 268.832 276.408 271.409C275.806 280.051 277.291 288.712 280.647 296.699L287.239 312.389C288.839 316.198 293.226 317.99 297.036 316.389C300.847 314.788 302.637 310.402 301.036 306.591L294.444 290.902C291.088 282.914 289.604 274.254 290.206 265.612C290.385 263.035 289.898 260.367 288.64 257.858Z" fill="#C63F3B"/>
<path d="M413.738 309.452C411.578 310.313 409.729 311.621 408.257 313.229C407.997 313.513 407.731 313.792 407.465 314.071C412.903 314.84 417.756 318.584 419.612 324.269C421.2 329.131 420.107 334.354 417.087 338.184C417.385 338.205 417.684 338.223 417.982 338.249C420.554 338.475 423.229 338.037 425.759 336.827C432.463 333.621 435.813 325.793 433.506 318.729C430.798 310.436 421.714 306.271 413.738 309.452Z" fill="#C63F3B"/>
<g opacity="0.63">
<path d="M472.882 484.024C474.098 485.741 476.475 486.147 478.192 484.931L485.261 479.924C488.86 477.375 493 475.682 497.361 475.028C498.661 474.833 499.933 474.296 501.041 473.394C503.977 471.006 504.7 466.73 502.714 463.509C500.382 459.727 495.387 458.75 491.818 461.278C490.852 461.962 490.093 462.831 489.556 463.803C487.402 467.702 484.493 471.134 480.857 473.709L473.789 478.715C472.072 479.93 471.666 482.308 472.882 484.024Z" fill="#FFC700"/>
<path d="M439.189 524.854C437.475 524.561 435.848 525.714 435.555 527.428L434.349 534.488C433.735 538.082 432.305 541.491 430.138 544.424C429.492 545.298 429.062 546.355 428.942 547.53C428.622 550.642 430.698 553.565 433.743 554.287C437.317 555.135 440.808 552.786 441.417 549.222C441.582 548.257 441.517 547.305 441.263 546.423C440.243 542.884 439.938 539.178 440.558 535.547L441.764 528.488C442.056 526.774 440.903 525.147 439.189 524.854Z" fill="#D09700"/>
<path d="M450.068 461.179C451.862 461.485 453.565 460.279 453.871 458.485L455.133 451.098C455.775 447.337 457.272 443.769 459.539 440.701C460.215 439.786 460.665 438.679 460.791 437.45C461.126 434.193 458.953 431.135 455.767 430.379C452.027 429.492 448.374 431.95 447.737 435.68C447.564 436.69 447.632 437.685 447.897 438.608C448.965 442.312 449.284 446.19 448.636 449.989L447.374 457.376C447.068 459.17 448.274 460.872 450.068 461.179Z" fill="#D09700"/>
<path d="M460.613 512.32C458.897 513.536 458.49 515.913 459.706 517.63L464.713 524.699C467.262 528.298 468.955 532.438 469.61 536.799C469.805 538.099 470.342 539.371 471.243 540.479C473.632 543.415 477.907 544.138 481.129 542.152C484.911 539.82 485.888 534.825 483.36 531.256C482.675 530.29 481.807 529.531 480.835 528.994C476.936 526.84 473.504 523.931 470.929 520.295L465.923 513.227C464.707 511.51 462.33 511.104 460.613 512.32Z" fill="#FFC700"/>
<path d="M480.835 528.992C476.935 526.838 473.504 523.929 470.929 520.293L465.923 513.225C464.707 511.508 462.329 511.102 460.613 512.318C458.896 513.534 458.49 515.911 459.706 517.628L464.712 524.697C467.287 528.332 470.718 531.241 474.618 533.396C475.589 533.932 476.458 534.691 477.143 535.658C478.771 537.957 478.943 540.847 477.85 543.237C478.986 543.135 480.11 542.779 481.129 542.15C484.911 539.819 485.887 534.824 483.36 531.255C482.675 530.288 481.806 529.529 480.835 528.992Z" fill="#D09700"/>
<path d="M412.789 493.973C418.397 490.001 419.723 482.236 415.751 476.628C411.779 471.02 404.014 469.693 398.406 473.665C392.798 477.637 391.471 485.403 395.443 491.011C399.415 496.619 407.181 497.945 412.789 493.973Z" fill="#D09700"/>
<path d="M398.406 473.665C397.322 474.433 396.4 475.344 395.642 476.353C400.659 474.772 406.331 476.507 409.535 481.03C412.739 485.554 412.493 491.48 409.336 495.688C410.539 495.309 411.705 494.741 412.789 493.973C418.397 490.001 419.724 482.235 415.752 476.627C411.78 471.019 404.014 469.693 398.406 473.665Z" fill="#FFC700"/>
<path d="M468.556 523.537C486.867 510.568 491.198 485.21 478.229 466.899C465.26 448.588 439.902 444.257 421.591 457.226C403.28 470.195 398.949 495.553 411.918 513.864C424.887 532.175 450.244 536.506 468.556 523.537Z" fill="#FFC700"/>
<path d="M421.597 457.225C420.549 457.968 419.549 458.753 418.593 459.573C436.556 449.204 459.793 454.039 472.019 471.301C484.245 488.564 481.094 512.088 465.351 525.592C466.441 524.962 467.514 524.279 468.562 523.537C486.874 510.567 491.205 485.21 478.236 466.898C465.267 448.587 439.909 444.256 421.597 457.225Z" fill="#D09700"/>
<path d="M449.679 479.759C451.033 478.8 451.353 476.925 450.394 475.57C449.435 474.216 447.56 473.896 446.206 474.855C444.851 475.814 444.531 477.689 445.49 479.044C446.449 480.398 448.325 480.718 449.679 479.759Z" fill="white"/>
<path d="M445.622 516.287C448.14 514.503 448.736 511.016 446.953 508.498C445.169 505.98 441.682 505.384 439.164 507.167C436.646 508.951 436.05 512.438 437.834 514.956C439.617 517.474 443.104 518.07 445.622 516.287Z" fill="white"/>
<path d="M427.987 492.846C431.842 490.116 432.754 484.777 430.023 480.922C427.293 477.067 421.954 476.155 418.099 478.885C414.243 481.616 413.332 486.954 416.062 490.81C418.793 494.665 424.131 495.577 427.987 492.846Z" fill="white"/>
<path d="M489.446 505.213C492.88 502.781 493.692 498.026 491.26 494.593C488.828 491.159 484.073 490.347 480.64 492.779C477.206 495.211 476.394 499.965 478.826 503.399C481.258 506.832 486.013 507.644 489.446 505.213Z" fill="#FFC700"/>
<path d="M480.641 492.779C479.509 493.581 478.663 494.637 478.123 495.815C480.742 495.574 483.415 496.695 485.045 498.996C486.674 501.297 486.845 504.19 485.749 506.581C487.038 506.463 488.315 506.016 489.448 505.213C492.882 502.781 493.693 498.027 491.262 494.593C488.83 491.16 484.075 490.347 480.641 492.779Z" fill="#D09700"/>
<path d="M423.137 505.919C424.353 507.636 423.947 510.013 422.23 511.229L415.161 516.236C411.562 518.785 408.591 522.128 406.526 526.025C405.911 527.186 404.982 528.208 403.764 528.954C400.536 530.931 396.263 530.194 393.883 527.251C391.09 523.796 391.826 518.76 395.395 516.232C396.362 515.548 397.433 515.12 398.528 514.936C402.921 514.198 407.124 512.593 410.759 510.018L417.828 505.012C419.544 503.796 421.921 504.202 423.137 505.919Z" fill="#D09700"/>
<path d="M429.539 468.443C431.255 467.227 431.662 464.85 430.446 463.133L425.439 456.064C422.89 452.465 421.197 448.325 420.542 443.964C420.347 442.664 419.81 441.392 418.909 440.284C416.521 437.348 412.245 436.625 409.023 438.611C405.241 440.943 404.265 445.938 406.792 449.507C407.477 450.473 408.346 451.232 409.317 451.769C413.217 453.923 416.648 456.832 419.223 460.468L424.229 467.536C425.445 469.253 427.822 469.659 429.539 468.443Z" fill="#FFC700"/>
<path d="M418.907 440.284C416.518 437.348 412.243 436.625 409.021 438.611C407.675 439.441 406.687 440.608 406.083 441.928C408.541 441.707 411.057 442.68 412.69 444.687C413.591 445.795 414.128 447.067 414.323 448.367C414.978 452.729 416.671 456.868 419.22 460.467L424.227 467.536C425.442 469.253 427.82 469.659 429.537 468.443C431.253 467.227 431.659 464.85 430.444 463.133L425.437 456.064C422.888 452.465 421.195 448.326 420.54 443.964C420.345 442.664 419.808 441.392 418.907 440.284Z" fill="#D09700"/>
</g>
<path d="M524.172 400.391C521.815 399.841 519.458 401.305 518.907 403.662L516.64 413.369C515.486 418.31 513.213 422.927 509.957 426.819C508.986 427.979 508.3 429.412 508.033 431.034C507.328 435.332 509.968 439.566 514.137 440.824C519.031 442.302 524.078 439.331 525.223 434.431C525.533 433.104 525.523 431.776 525.244 430.53C524.124 425.528 524.01 420.353 525.176 415.361L527.443 405.656C527.994 403.299 526.529 400.942 524.172 400.391Z" fill="#1DB776"/>
<path d="M509.973 336.088C511.672 335.031 512.194 332.797 511.138 331.097L506.789 324.097C504.575 320.534 503.205 316.506 502.833 312.327C502.722 311.081 502.286 309.842 501.493 308.738C499.393 305.814 495.375 304.882 492.201 306.583C488.476 308.58 487.262 313.268 489.458 316.802C490.053 317.759 490.834 318.529 491.726 319.095C495.305 321.364 498.397 324.323 500.633 327.923L504.982 334.922C506.039 336.622 508.273 337.144 509.973 336.088Z" fill="#128E5A"/>
<path d="M549.196 399.223C547.417 400.328 546.871 402.666 547.976 404.445L552.527 411.77C554.844 415.499 556.277 419.714 556.666 424.087C556.782 425.391 557.239 426.687 558.069 427.842C560.266 430.903 564.471 431.878 567.792 430.098C571.69 428.007 572.96 423.102 570.663 419.405C570.04 418.403 569.222 417.597 568.289 417.005C564.544 414.63 561.309 411.534 558.968 407.767L554.418 400.443C553.312 398.664 550.974 398.118 549.196 399.223Z" fill="#128E5A"/>
<path d="M501.083 363.233C501.633 360.875 500.169 358.518 497.812 357.968L488.105 355.7C483.164 354.546 478.547 352.273 474.655 349.017C473.495 348.046 472.062 347.36 470.44 347.094C466.143 346.388 461.909 349.028 460.65 353.197C459.172 358.091 462.143 363.138 467.043 364.283C468.371 364.593 469.698 364.583 470.944 364.304C475.946 363.184 481.121 363.07 486.113 364.236L495.818 366.503C498.175 367.054 500.532 365.59 501.083 363.233Z" fill="#1DB776"/>
<path d="M470.946 364.304C475.948 363.184 481.123 363.071 486.115 364.237L495.82 366.504C498.177 367.054 500.534 365.59 501.085 363.233C501.635 360.875 500.171 358.518 497.814 357.968L488.109 355.701C483.117 354.535 477.942 354.648 472.94 355.768C471.693 356.048 470.366 356.057 469.039 355.747C465.882 355.01 463.528 352.652 462.646 349.759C461.746 350.714 461.05 351.879 460.652 353.197C459.174 358.092 462.145 363.138 467.045 364.283C468.372 364.593 469.699 364.584 470.946 364.304Z" fill="#128E5A"/>
<path d="M556.274 342.534C554.475 350.234 559.259 357.934 566.959 359.733C574.659 361.532 582.359 356.748 584.158 349.047C585.957 341.347 581.173 333.647 573.473 331.849C565.772 330.05 558.072 334.834 556.274 342.534Z" fill="#128E5A"/>
<path d="M584.16 349.049C584.508 347.56 584.607 346.072 584.489 344.625C581.375 349.816 575.166 352.649 568.955 351.198C562.744 349.748 558.433 344.457 557.941 338.424C557.194 339.668 556.624 341.046 556.276 342.536C554.477 350.236 559.261 357.936 566.961 359.735C574.661 361.533 582.362 356.749 584.16 349.049Z" fill="#1DB776"/>
<path d="M485.681 359.636C479.808 384.779 495.429 409.922 520.572 415.795C545.714 421.668 570.857 406.047 576.73 380.904C582.603 355.762 566.982 330.619 541.839 324.746C516.697 318.873 491.554 334.494 485.681 359.636Z" fill="#1DB776"/>
<path d="M576.739 380.903C577.075 379.464 577.337 378.024 577.535 376.588C569.977 399.226 546.277 412.795 522.574 407.258C498.871 401.721 483.634 379.058 486.887 355.415C486.428 356.789 486.026 358.196 485.69 359.636C479.817 384.778 495.438 409.921 520.58 415.794C545.723 421.667 570.866 406.046 576.739 380.903Z" fill="#128E5A"/>
<path d="M533.529 388.818C532.336 393.925 535.509 399.032 540.616 400.225C545.723 401.418 550.83 398.245 552.023 393.138C553.216 388.031 550.043 382.923 544.936 381.73C539.829 380.537 534.722 383.71 533.529 388.818Z" fill="#128E5A"/>
<path d="M552.033 393.136C552.393 391.596 552.353 390.057 551.985 388.624C549.752 391.222 546.187 392.521 542.62 391.688C539.053 390.854 536.431 388.111 535.58 384.792C534.616 385.914 533.898 387.276 533.538 388.816C532.346 393.923 535.519 399.031 540.626 400.224C545.733 401.417 550.84 398.244 552.033 393.136Z" fill="white"/>
<path d="M510.964 348.38C510.157 351.837 512.305 355.294 515.762 356.102C519.219 356.91 522.677 354.762 523.484 351.304C524.292 347.847 522.144 344.39 518.686 343.582C515.229 342.774 511.772 344.922 510.964 348.38Z" fill="white"/>
<path d="M481.671 391.36C480.57 396.075 483.499 400.79 488.214 401.891C492.929 402.992 497.644 400.063 498.745 395.348C499.846 390.633 496.917 385.918 492.202 384.817C487.487 383.716 482.772 386.645 481.671 391.36Z" fill="#1DB776"/>
<path d="M498.749 395.347C499.112 393.791 499.034 392.236 498.601 390.811C496.529 393.017 493.371 394.091 490.212 393.353C487.052 392.615 484.697 390.253 483.817 387.357C482.796 388.443 482.038 389.803 481.674 391.358C480.573 396.073 483.503 400.788 488.217 401.89C492.932 402.991 497.648 400.062 498.749 395.347Z" fill="#128E5A"/>
<path d="M538.244 340.146C535.887 339.596 534.422 337.239 534.973 334.882L537.24 325.175C538.394 320.234 538.402 315.087 537.207 310.156C536.85 308.686 536.87 307.097 537.35 305.525C538.621 301.36 542.863 298.733 547.158 299.452C552.201 300.295 555.41 305.194 554.265 310.095C553.955 311.422 553.358 312.608 552.556 313.601C549.336 317.59 546.941 322.179 545.775 327.17L543.508 336.876C542.958 339.232 540.601 340.697 538.244 340.146Z" fill="#128E5A"/>
<path d="M561.332 377.307C560.781 379.664 562.246 382.021 564.603 382.572L574.31 384.839C579.251 385.994 583.868 388.267 587.76 391.523C588.92 392.494 590.353 393.18 591.975 393.446C596.272 394.152 600.506 391.512 601.765 387.343C603.242 382.448 600.272 377.401 595.372 376.257C594.044 375.947 592.717 375.956 591.471 376.235C586.468 377.356 581.294 377.469 576.302 376.303L566.597 374.036C564.24 373.486 561.883 374.95 561.332 377.307Z" fill="#1DB776"/>
<path d="M591.973 393.444C596.271 394.15 600.505 391.51 601.764 387.341C602.289 385.6 602.25 383.84 601.763 382.243C599.814 384.308 596.906 385.391 593.967 384.908C592.346 384.642 590.912 383.956 589.752 382.985C585.861 379.729 581.243 377.456 576.302 376.301L566.596 374.034C564.239 373.484 561.881 374.948 561.331 377.305C560.78 379.663 562.244 382.02 564.602 382.57L574.308 384.837C579.25 385.992 583.867 388.265 587.758 391.521C588.919 392.492 590.352 393.178 591.973 393.444Z" fill="#128E5A"/>
<path d="M525.221 434.437C525.53 433.11 525.521 431.784 525.242 430.538C525.193 430.318 525.148 430.096 525.102 429.875C522.911 432.23 519.486 433.308 516.132 432.295C513.264 431.429 511.121 429.154 510.292 426.42C510.182 426.556 510.074 426.694 509.961 426.828C508.991 427.988 508.305 429.42 508.039 431.041C507.334 435.337 509.972 439.569 514.14 440.827C519.032 442.304 524.076 439.335 525.221 434.437Z" fill="#128E5A"/>
<defs>
<linearGradient id="paint0_linear" x1="60.0595" y1="557.687" x2="109.076" y2="693.827" gradientUnits="userSpaceOnUse">
<stop stop-color="#FFD8D8"/>
<stop offset="1" stop-color="#FFF8F8"/>
</linearGradient>
<linearGradient id="paint1_linear" x1="706.47" y1="212.693" x2="269.853" y2="-24.6552" gradientUnits="userSpaceOnUse">
<stop stop-color="#FFF8F8"/>
<stop offset="1" stop-color="#FFCFCF"/>
</linearGradient>
<linearGradient id="paint2_linear" x1="687.658" y1="149.027" x2="529.938" y2="93.5054" gradientUnits="userSpaceOnUse">
<stop stop-color="#FFD7D7"/>
<stop offset="1" stop-color="#FFF9F9"/>
</linearGradient>
<linearGradient id="paint3_linear" x1="681.235" y1="583.48" x2="41.0668" y2="266.53" gradientUnits="userSpaceOnUse">
<stop stop-color="#FFCFCF"/>
<stop offset="1" stop-color="#FFF8F8"/>
</linearGradient>
</defs>
</svg>
