<svg width="148" height="297" viewBox="0 0 148 297" fill="none" xmlns="http://www.w3.org/2000/svg">
<g filter="url(#filter0_d)">
<path d="M133.935 139.427C129.488 139.294 125.656 142.783 124.568 147.578C117.684 148.124 109.819 148.31 101.185 147.754C96.3828 147.436 91.8174 146.923 87.5477 146.288C87.5713 145.449 87.5831 144.602 87.5831 143.754C87.5831 139.63 87.2875 135.577 86.7434 131.611C88.9197 129.907 91.64 128.114 94.9399 126.578C100.653 123.894 105.999 122.94 110.126 122.666C112.149 127.372 116.797 130.111 121.244 128.918C126.259 127.577 129.133 121.774 127.643 115.955C126.165 110.135 120.913 106.497 115.898 107.839C111.333 109.066 108.542 113.994 109.204 119.266C105.597 121.368 100.227 123.646 93.5797 123.813C90.3035 123.902 87.4294 123.452 85.0993 122.87C83.6209 116.714 81.5038 110.815 78.7953 105.252C81.6576 102.603 85.0402 99.794 89.0024 97.0826C94.7388 93.1447 100.274 90.3277 105.135 88.3048C108.305 92.103 113.355 93.3658 117.258 91.0527C121.741 88.4019 122.995 82.0173 120.073 76.8068C117.152 71.5977 111.132 69.531 106.649 72.189C102.758 74.4937 101.291 79.6154 102.9 84.3316C98.7247 87.6514 93.5915 91.157 87.4294 94.2837C83.2424 96.4208 79.2329 98.0455 75.6019 99.2817C72.6332 94.1866 69.1678 89.4352 65.2647 85.0991C66.7668 79.5183 69.2978 73.0013 73.6149 66.4662C77.6717 60.356 82.1661 55.896 85.9864 52.7607C90.197 55.437 95.4958 55.0218 98.5118 51.498C101.942 47.5067 101.161 41.0516 96.7495 37.0786C92.3615 33.0958 86.0219 33.103 82.6038 37.0955C79.5878 40.6193 79.8243 46.0507 82.9586 50.014C80.4867 54.2008 76.7491 59.3931 71.2611 64.3388C65.2054 69.7957 59.1261 73.0633 54.4897 75.0061C49.2146 70.8642 43.4665 67.3489 37.328 64.5683C38.2151 62.0329 39.3978 59.4817 40.9472 56.9742C42.1891 54.9865 43.5256 53.238 44.874 51.7105C49.5458 53.6618 54.7855 52.2581 57.1391 48.1696C59.7885 43.604 57.8487 37.404 52.8102 34.3319C47.7717 31.2586 41.5504 32.4679 38.9011 37.0421C36.5829 41.0613 37.8012 46.3409 41.5505 49.6437C40.7699 51.7638 39.8236 53.9629 38.6882 56.2044C37.399 58.7835 36.0033 61.1599 34.5249 63.3577C33.898 63.1015 33.283 62.855 32.6561 62.6255C25.3467 59.8169 17.5523 58.0428 9.42683 57.4417C8.09032 53.7503 6.93122 49.6595 6.11512 45.1667C4.45927 35.999 4.76686 28.0201 5.53565 22.0277C10.314 21.0879 13.8858 17.2387 13.8858 12.6257C13.8858 7.30967 9.14304 3.00018 3.28842 3.00018C-2.57804 3.00018 -7.3328 7.30967 -7.3328 12.6257C-7.3328 17.3176 -3.63076 21.2203 1.26584 22.0727C2.33031 27.9789 3.02821 36.2455 1.39601 45.8285C0.662701 50.0469 -0.413647 53.8913 -1.66736 57.3714C-9.46171 57.8219 -16.9485 59.3651 -24.0214 61.8519C-25.0031 60.2467 -25.8901 58.5613 -26.6826 56.5736C-28.2438 52.6369 -28.918 48.948 -29.19 45.8771C-24.6128 43.4304 -22.2591 38.2976 -23.8677 33.7575C-25.6418 28.7644 -31.5437 26.3882 -37.0554 28.4524C-42.5552 30.5167 -45.583 36.237 -43.797 41.2313C-42.2595 45.5395 -37.6585 47.8915 -32.892 47.1302C-31.4964 50.0699 -30.1598 53.4589 -29.119 57.3094C-28.5513 59.3481 -28.1373 61.342 -27.818 63.2921C-34.2403 65.904 -40.2605 69.31 -45.7958 73.3863C-48.7054 71.2237 -51.686 68.7138 -54.631 65.7728C-61.4082 59.0009 -65.9264 52.0552 -68.8951 46.4927C-65.607 42.7576 -65.0274 37.41 -67.7833 33.7259C-70.9412 29.51 -77.2689 29.0655 -81.9172 32.7314C-86.5535 36.3985 -87.7599 42.7868 -84.6138 47.0015C-81.8107 50.7257 -76.5593 51.5004 -72.1594 49.101C-67.8779 53.0437 -62.3071 59.2619 -58.0019 68.2013C-56.0267 72.2898 -54.6547 76.2653 -53.6848 79.9725C-54.5719 80.8103 -55.4708 81.6748 -56.3342 82.5563C-60.6513 87.0042 -64.5189 91.9293 -67.8306 97.2587C-69.7821 96.6819 -71.8046 95.9837 -73.8744 95.1289C-80.6043 92.347 -85.8202 88.8002 -89.6051 85.7099C-87.9965 80.9038 -89.5696 75.7188 -93.5673 73.47C-98.0972 70.914 -104.058 73.1191 -106.873 78.3951C-109.7 83.6687 -108.304 90.0169 -103.751 92.5717C-99.7649 94.8181 -94.679 93.3828 -91.5921 89.4194C-87.003 91.049 -81.2785 93.6633 -75.3766 97.9557C-73.6143 99.238 -72.0057 100.557 -70.5036 101.883C-75.1755 110.526 -78.4399 120.078 -79.9893 130.22C-84.0225 130.573 -88.3749 130.743 -93.0468 130.595C-99.7175 130.385 -105.738 129.582 -111.001 128.538C-111.119 123.234 -114.573 118.795 -119.257 118.29C-124.413 117.734 -129.085 122.134 -129.7 128.117C-130.304 134.099 -126.625 139.399 -121.48 139.952C-116.891 140.447 -112.704 137.013 -111.391 132.035C-105.998 132.147 -99.9424 132.642 -93.3781 133.802C-88.8245 134.605 -84.6257 135.628 -80.7344 136.766C-80.9236 139.07 -81.0064 141.398 -81.0064 143.754C-81.0064 149.348 -80.4978 154.819 -79.5043 160.122C-83.9751 163.157 -90.1255 166.598 -97.9671 169.015C-104.839 171.133 -111.025 171.855 -115.957 172.01C-117.731 167.294 -122.131 164.352 -126.59 165.234C-131.664 166.242 -134.893 171.846 -133.781 177.752C-132.669 183.66 -127.642 187.63 -122.568 186.623C-118.169 185.751 -115.176 181.444 -115.164 176.477C-110.114 174.792 -104.153 173.21 -97.3758 172.18C-89.5932 170.997 -82.6031 170.827 -76.713 171.09C-74.3594 178.409 -71.0476 185.284 -66.9671 191.578C-68.895 193.143 -71.0358 194.688 -73.4605 196.131C-78.085 198.898 -82.5204 200.618 -86.3762 201.73C-88.9782 197.457 -93.8511 195.451 -98.0617 197.198C-102.852 199.194 -104.969 205.331 -102.769 210.903C-101.385 214.4 -98.6295 216.855 -95.578 217.694C-93.7802 218.197 -91.8759 218.136 -90.0899 217.394C-89.5695 217.173 -89.061 216.899 -88.5997 216.572C-85.0988 214.19 -83.6085 209.25 -85.0869 204.538C-81.444 202.608 -77.1861 200.697 -72.2895 199.121C-69.1315 198.111 -66.1274 197.372 -63.3006 196.824C-60.7222 200.248 -57.8836 203.461 -54.8439 206.426C-54.56 206.709 -54.2644 206.992 -53.9805 207.255C-56.0385 211.972 -59.1374 217.703 -63.8092 223.513C-68.3865 229.201 -73.1411 233.341 -77.1507 236.267C-81.1602 233.341 -86.4235 233.405 -89.6524 236.681C-93.3426 240.416 -92.9877 246.916 -88.8599 251.198C-84.7558 255.471 -78.4162 255.915 -74.7378 252.178C-71.5326 248.936 -71.3789 243.604 -74.0992 239.463C-70.9531 235.249 -66.8489 230.499 -61.6093 225.809C-55.9675 220.776 -50.4086 217.05 -45.5593 214.303C-39.1488 218.983 -32.0641 222.771 -24.5063 225.483C-24.802 228.405 -25.3106 231.558 -26.1503 234.87C-27.9718 242.085 -30.6921 247.869 -33.1641 252.126C-38.0252 251.127 -42.8272 253.406 -44.4712 257.769C-46.3282 262.723 -43.4067 268.498 -37.9424 270.67C-32.4899 272.843 -26.5525 270.582 -24.6719 265.619C-23.0515 261.31 -25.0386 256.382 -29.19 253.75C-28.0191 248.619 -26.1622 242.552 -23.2289 236.035C-21.786 232.857 -20.2602 229.96 -18.699 227.32C-12.868 228.936 -6.80056 229.926 -0.531971 230.199C0.485196 235.233 1.31312 240.866 1.71526 247.021C2.31846 256.178 1.83362 264.286 0.982043 270.979C-3.77262 271.925 -7.3328 275.774 -7.3328 280.376C-7.3328 285.692 -2.58987 290 3.28842 290C9.14304 290 13.8858 285.692 13.8858 280.376C13.8858 275.792 10.3494 271.95 5.61835 270.987C4.8259 264.144 4.40011 256.055 4.84956 247.021C5.15707 240.927 5.83124 235.302 6.68282 230.216C13.2353 229.96 19.5867 228.928 25.6542 227.204C26.1746 228.122 26.6833 229.077 27.18 230.058C30.4799 236.53 32.254 242.598 33.2121 247.454C28.9896 249.971 26.837 254.863 28.3628 259.226C30.0896 264.232 35.9797 266.652 41.5031 264.638C47.0147 262.616 50.0899 256.92 48.3513 251.914C46.8137 247.472 41.9998 245.069 37.0796 245.988C34.8205 242.005 32.1948 235.991 31.2841 228.291C31.1658 227.337 31.0831 226.402 31.0358 225.483C37.7893 223.081 44.1525 219.805 50.0072 215.795C53.7801 218.947 57.7541 222.709 61.7045 227.178C67.7839 234.048 72.2073 240.822 75.4008 246.579C72.16 250.306 71.6041 255.613 74.3363 259.278C77.5061 263.49 83.822 263.932 88.4702 260.267C93.1066 256.603 94.3131 250.218 91.167 245.998C88.4348 242.359 83.337 241.528 79.0082 243.745C74.3481 238.897 69.1796 232.76 64.2002 225.218C60.9831 220.343 58.3219 215.611 56.1338 211.168C58.4875 209.216 60.7347 207.141 62.8873 204.942C66.3882 201.339 69.5935 197.427 72.4321 193.242C77.6717 194.744 83.7155 196.943 90.126 200.244C96.3118 203.416 101.469 206.903 105.62 210.153C104.047 214.869 105.537 219.972 109.441 222.25C113.935 224.891 119.932 222.789 122.841 217.571C125.751 212.343 124.45 205.975 119.955 203.334C116.028 201.031 110.931 202.347 107.785 206.215C103.148 204.403 97.5183 201.658 91.6873 197.445C85.6316 193.074 81.0544 188.384 77.7427 184.34C79.9781 180.032 81.8704 175.501 83.3843 170.785C85.8918 170.874 88.553 171.103 91.297 171.527C98.3817 172.622 104.284 174.679 108.825 176.728C108.435 181.762 111.203 186.371 115.591 187.528C120.606 188.853 125.857 185.205 127.324 179.378C128.778 173.55 125.904 167.757 120.878 166.432C116.478 165.265 111.877 167.951 109.831 172.586C105.017 172.18 98.8311 171.093 92.0776 168.41C89.5228 167.385 87.1574 166.246 85.0047 165.054C86.081 160.683 86.838 156.187 87.2283 151.578C91.5927 151.216 96.2291 150.986 101.114 150.977C109.724 150.951 117.554 151.586 124.426 152.522C125.254 157.371 128.885 161.062 133.32 161.204C138.501 161.354 142.841 156.602 142.995 150.589C143.161 144.576 139.104 139.577 133.935 139.427" fill="#128E5A" fill-opacity="0.74"/>
</g>
<defs>
<filter id="filter0_d" x="-139" y="0.000183105" width="287" height="297" filterUnits="userSpaceOnUse" color-interpolation-filters="sRGB">
<feFlood flood-opacity="0" result="BackgroundImageFix"/>
<feColorMatrix in="SourceAlpha" type="matrix" values="0 0 0 0 0 0 0 0 0 0 0 0 0 0 0 0 0 0 127 0"/>
<feOffset dy="2"/>
<feGaussianBlur stdDeviation="2.5"/>
<feColorMatrix type="matrix" values="0 0 0 0 0 0 0 0 0 0 0 0 0 0 0 0 0 0 0.1 0"/>
<feBlend mode="normal" in2="BackgroundImageFix" result="effect1_dropShadow"/>
<feBlend mode="normal" in="SourceGraphic" in2="effect1_dropShadow" result="shape"/>
</filter>
</defs>
</svg>
