<svg width="162" height="479" viewBox="0 0 162 479" fill="none" xmlns="http://www.w3.org/2000/svg">
<g opacity="0.5" filter="url(#filter0_d)">
<path d="M308.692 301.014C303.635 300.865 299.277 304.803 298.039 310.217C290.211 310.833 281.267 311.043 271.448 310.415C265.988 310.056 260.796 309.478 255.94 308.761C255.967 307.814 255.981 306.857 255.981 305.9C255.981 301.245 255.645 296.669 255.026 292.192C257.501 290.267 260.594 288.244 264.347 286.51C270.843 283.479 276.923 282.403 281.617 282.093C283.917 287.406 289.203 290.498 294.26 289.151C299.963 287.637 303.231 281.086 301.536 274.517C299.855 267.946 293.883 263.839 288.18 265.354C282.989 266.74 279.814 272.303 280.568 278.255C276.465 280.628 270.359 283.199 262.8 283.389C259.074 283.489 255.806 282.98 253.156 282.323C251.475 275.373 249.067 268.714 245.987 262.434C249.242 259.443 253.089 256.272 257.595 253.211C264.118 248.766 270.413 245.586 275.941 243.302C279.545 247.59 285.289 249.016 289.727 246.404C294.825 243.412 296.25 236.204 292.928 230.322C289.606 224.441 282.76 222.108 277.662 225.109C273.237 227.71 271.569 233.492 273.399 238.817C268.651 242.564 262.813 246.522 255.806 250.052C251.045 252.464 246.485 254.299 242.356 255.694C238.98 249.942 235.039 244.578 230.601 239.683C232.309 233.383 235.187 226.026 240.096 218.648C244.71 211.75 249.821 206.715 254.165 203.176C258.953 206.197 264.979 205.728 268.409 201.75C272.309 197.244 271.422 189.957 266.405 185.472C261.415 180.976 254.205 180.984 250.318 185.491C246.889 189.469 247.158 195.601 250.722 200.075C247.911 204.801 243.661 210.663 237.42 216.246C230.533 222.407 223.62 226.096 218.348 228.289C212.349 223.613 205.812 219.645 198.832 216.505C199.84 213.643 201.185 210.763 202.947 207.932C204.359 205.688 205.879 203.714 207.413 201.99C212.725 204.193 218.684 202.608 221.36 197.993C224.373 192.838 222.167 185.839 216.438 182.371C210.708 178.901 203.633 180.267 200.62 185.431C197.984 189.968 199.37 195.928 203.633 199.657C202.746 202.05 201.669 204.533 200.378 207.063C198.912 209.975 197.325 212.658 195.644 215.139C194.931 214.85 194.232 214.571 193.519 214.312C185.207 211.141 176.343 209.139 167.103 208.46C165.583 204.293 164.265 199.675 163.337 194.603C161.454 184.253 161.803 175.246 162.678 168.481C168.112 167.42 172.173 163.074 172.173 157.866C172.173 151.865 166.78 147 160.122 147C153.451 147 148.044 151.865 148.044 157.866C148.044 163.163 152.254 167.569 157.822 168.531C159.033 175.199 159.826 184.531 157.97 195.35C157.136 200.112 155.912 204.452 154.487 208.381C145.623 208.889 137.109 210.631 129.066 213.439C127.95 211.627 126.941 209.724 126.04 207.48C124.264 203.036 123.498 198.871 123.188 195.405C128.393 192.642 131.07 186.848 129.241 181.723C127.223 176.086 120.512 173.403 114.244 175.734C107.99 178.064 104.546 184.522 106.577 190.16C108.326 195.023 113.558 197.679 118.978 196.819C120.565 200.138 122.085 203.964 123.269 208.311C123.915 210.612 124.385 212.863 124.749 215.065C117.445 218.013 110.599 221.858 104.304 226.46C100.996 224.019 97.6062 221.185 94.2571 217.865C86.5503 210.22 81.4122 202.379 78.0363 196.1C81.7754 191.883 82.4345 185.846 79.3006 181.687C75.7095 176.927 68.5137 176.426 63.2278 180.564C57.9554 184.704 56.5835 191.916 60.1612 196.674C63.3489 200.878 69.3207 201.753 74.3241 199.044C79.193 203.495 85.528 210.515 90.4239 220.607C92.67 225.222 94.2302 229.71 95.3332 233.896C94.3244 234.841 93.3021 235.817 92.3203 236.813C87.411 241.834 83.0128 247.394 79.2468 253.41C77.0275 252.759 74.7276 251.971 72.3738 251.006C64.7207 247.865 58.7893 243.861 54.4852 240.373C56.3144 234.947 54.5256 229.094 49.9795 226.555C44.8281 223.669 38.0492 226.159 34.8481 232.115C31.6336 238.068 33.2207 245.235 38.399 248.119C42.9317 250.655 48.7152 249.035 52.2256 244.56C57.4443 246.4 63.9541 249.351 70.6657 254.197C72.6697 255.645 74.499 257.133 76.2071 258.63C70.8943 268.388 67.1821 279.172 65.4201 290.621C60.8336 291.02 55.8841 291.212 50.5713 291.044C42.9855 290.807 36.1393 289.901 30.154 288.722C30.0195 282.735 26.0921 277.723 20.7659 277.153C14.9016 276.525 9.58887 281.493 8.88947 288.247C8.20351 295.001 12.3865 300.983 18.2373 301.608C23.4559 302.166 28.2172 298.289 29.7102 292.67C35.8434 292.796 42.7298 293.356 50.1946 294.665C55.3729 295.571 60.1477 296.726 64.5728 298.011C64.3576 300.611 64.2635 303.241 64.2635 305.9C64.2635 312.215 64.8418 318.391 65.9717 324.378C60.8875 327.804 53.8934 331.689 44.976 334.417C37.1615 336.809 30.1272 337.623 24.5185 337.799C22.501 332.474 17.4975 329.153 12.4268 330.149C6.65673 331.287 2.98488 337.614 4.24919 344.281C5.5135 350.95 11.2298 355.433 16.9998 354.295C22.0033 353.311 25.4062 348.448 25.4197 342.842C31.1628 340.939 37.9416 339.153 45.6485 337.991C54.4987 336.655 62.4477 336.463 69.1458 336.76C71.8224 345.023 75.5885 352.784 80.2287 359.889C78.0364 361.656 75.6019 363.4 72.8446 365.03C67.5856 368.152 62.5418 370.095 58.1571 371.351C55.1981 366.527 49.6567 364.262 44.8684 366.233C39.4211 368.487 37.0136 375.415 39.5153 381.706C41.089 385.654 44.2228 388.425 47.6929 389.373C49.7374 389.94 51.9029 389.871 53.9338 389.034C54.5256 388.784 55.1039 388.475 55.6285 388.106C59.6097 385.416 61.3045 379.84 59.6232 374.52C63.7658 372.342 68.6079 370.184 74.1762 368.405C77.7674 367.264 81.1837 366.431 84.3983 365.811C87.3304 369.677 90.5584 373.304 94.0151 376.651C94.3379 376.971 94.6741 377.29 94.9969 377.588C92.6566 382.912 89.1326 389.382 83.8198 395.941C78.6146 402.362 73.2077 407.037 68.6481 410.339C64.0886 407.037 58.1033 407.108 54.4314 410.806C50.235 415.023 50.6385 422.361 55.3326 427.196C59.9997 432.02 67.209 432.52 71.392 428.302C75.037 424.642 75.2118 418.623 72.1182 413.947C75.696 409.19 80.3632 403.828 86.3216 398.534C92.7373 392.852 99.0589 388.645 104.573 385.544C111.863 390.827 119.92 395.104 128.515 398.165C128.178 401.464 127.6 405.023 126.645 408.763C124.574 416.908 121.48 423.437 118.669 428.243C113.141 427.115 107.68 429.688 105.811 434.613C103.699 440.206 107.021 446.726 113.235 449.178C119.436 451.63 126.188 449.078 128.326 443.476C130.169 438.611 127.909 433.048 123.188 430.076C124.52 424.284 126.631 417.434 129.967 410.077C131.608 406.49 133.343 403.219 135.118 400.239C141.749 402.063 148.649 403.181 155.778 403.489C156.934 409.172 157.876 415.532 158.333 422.48C159.019 432.818 158.468 441.97 157.499 449.526C152.093 450.594 148.044 454.94 148.044 460.135C148.044 466.136 153.438 471 160.122 471C166.78 471 172.173 466.136 172.173 460.135C172.173 454.96 168.152 450.623 162.772 449.536C161.871 441.81 161.386 432.679 161.898 422.48C162.247 415.6 163.014 409.251 163.982 403.508C171.434 403.219 178.656 402.054 185.556 400.109C186.148 401.145 186.726 402.222 187.291 403.33C191.044 410.636 193.061 417.486 194.151 422.968C189.349 425.81 186.901 431.333 188.636 436.258C190.6 441.91 197.298 444.642 203.579 442.368C209.847 440.086 213.344 433.655 211.367 428.003C209.619 422.989 204.144 420.276 198.549 421.314C195.98 416.817 192.994 410.028 191.958 401.336C191.824 400.258 191.73 399.203 191.676 398.165C199.356 395.453 206.592 391.755 213.25 387.229C217.541 390.787 222.06 395.034 226.552 400.079C233.465 407.835 238.496 415.482 242.127 421.981C238.442 426.188 237.81 432.18 240.917 436.317C244.521 441.073 251.704 441.572 256.99 437.433C262.262 433.297 263.634 426.09 260.056 421.325C256.949 417.216 251.152 416.279 246.23 418.782C240.93 413.308 235.053 406.38 229.39 397.866C225.732 392.362 222.705 387.02 220.217 382.004C222.894 379.802 225.449 377.459 227.897 374.976C231.878 370.909 235.523 366.492 238.751 361.767C244.71 363.463 251.583 365.945 258.873 369.673C265.907 373.253 271.771 377.19 276.492 380.858C274.703 386.183 276.398 391.944 280.837 394.516C285.948 397.497 292.767 395.124 296.076 389.233C299.384 383.331 297.905 376.143 292.794 373.161C288.328 370.561 282.531 372.047 278.954 376.413C273.681 374.368 267.279 371.268 260.648 366.513C253.762 361.578 248.556 356.284 244.79 351.718C247.333 346.854 249.484 341.74 251.206 336.416C254.057 336.516 257.084 336.775 260.204 337.253C268.261 338.49 274.972 340.812 280.137 343.124C279.693 348.808 282.841 354.011 287.831 355.318C293.534 356.813 299.505 352.695 301.173 346.117C302.827 339.537 299.559 332.997 293.843 331.501C288.839 330.184 283.607 333.216 281.281 338.448C275.806 337.991 268.772 336.764 261.092 333.734C258.187 332.577 255.497 331.291 253.049 329.945C254.273 325.012 255.133 319.936 255.577 314.732C260.54 314.324 265.813 314.064 271.368 314.053C281.159 314.025 290.063 314.742 297.878 315.799C298.819 321.272 302.949 325.439 307.992 325.6C313.883 325.768 318.82 320.404 318.994 313.616C319.183 306.828 314.569 301.184 308.692 301.014Z" fill="#FF383D"/>
</g>
<g opacity="0.5" filter="url(#filter1_d)">
<path d="M127.811 62.2715C125.756 62.2111 123.985 63.8034 123.483 65.9922C120.302 66.2416 116.667 66.3263 112.677 66.0725C110.458 65.9273 108.349 65.6934 106.376 65.4035C106.387 65.0206 106.392 64.6337 106.392 64.2468C106.392 62.3646 106.256 60.5145 106.004 58.7044C107.01 57.9262 108.267 57.1081 109.792 56.407C112.432 55.1816 114.902 54.7465 116.809 54.6212C117.744 56.7695 119.892 58.0193 121.947 57.4751C124.264 56.8626 125.592 54.2139 124.904 51.5579C124.22 48.9014 121.794 47.2409 119.476 47.8533C117.367 48.4136 116.077 50.6628 116.383 53.0693C114.716 54.0287 112.235 55.0685 109.163 55.145C107.649 55.1855 106.321 54.9798 105.244 54.7143C104.561 51.9043 103.583 49.2118 102.331 46.6728C103.654 45.4634 105.217 44.1814 107.048 42.9438C109.699 41.1464 112.257 39.8606 114.503 38.9372C115.968 40.6709 118.301 41.2473 120.105 40.1914C122.176 38.9815 122.756 36.0673 121.406 33.689C120.056 31.3113 117.274 30.368 115.202 31.5812C113.404 32.6332 112.727 34.971 113.47 37.1237C111.541 38.639 109.169 40.2391 106.321 41.6663C104.386 42.6417 102.534 43.3833 100.856 43.9475C99.4839 41.6219 97.8826 39.4532 96.079 37.474C96.7731 34.9266 97.9427 31.952 99.9376 28.969C101.812 26.1801 103.889 24.1443 105.654 22.7133C107.6 23.9348 110.049 23.7453 111.442 22.1369C113.027 20.3151 112.667 17.3687 110.628 15.5552C108.6 13.7373 105.671 13.7406 104.091 15.5629C102.698 17.1714 102.807 19.6505 104.255 21.4595C103.113 23.3706 101.386 25.7406 98.8499 27.998C96.0516 30.4888 93.2424 31.9803 91.0999 32.8671C88.6624 30.9765 86.0062 29.372 83.1696 28.1028C83.5795 26.9455 84.1261 25.781 84.842 24.6365C85.4159 23.7292 86.0335 22.9311 86.6566 22.2339C88.8154 23.1245 91.2366 22.4838 92.3242 20.6177C93.5485 18.5337 92.6521 15.7037 90.3238 14.3015C87.9956 12.8987 85.1208 13.4507 83.8965 15.5385C82.8253 17.3731 83.3883 19.783 85.1208 21.2905C84.7601 22.2582 84.3228 23.262 83.7982 24.2851C83.2024 25.4623 82.5575 26.547 81.8743 27.5502C81.5846 27.4332 81.3005 27.3207 81.0108 27.216C77.6332 25.934 74.0314 25.1242 70.2767 24.8499C69.6591 23.1649 69.1235 21.2977 68.7463 19.247C67.9812 15.0624 68.1233 11.4205 68.4786 8.6853C70.6866 8.25631 72.3371 6.49937 72.3371 4.39379C72.3371 1.9673 70.1455 0.000242728 67.4401 0.000242737C64.7293 0.000242746 62.5321 1.9673 62.5321 4.39379C62.5321 6.5354 64.2428 8.31673 66.5055 8.70581C66.9974 11.4017 67.3199 15.175 66.5657 19.5491C66.2268 21.4745 65.7294 23.2293 65.1501 24.8178C61.5484 25.0234 58.0888 25.7278 54.8204 26.8629C54.3668 26.1302 53.9569 25.3609 53.5907 24.4536C52.8693 22.6567 52.5577 20.9729 52.432 19.5713C54.5472 18.4545 55.6348 16.1116 54.8915 14.0393C54.0717 11.7602 51.3444 10.6756 48.7975 11.6178C46.2561 12.56 44.857 15.1711 45.6822 17.4507C46.3927 19.4171 48.5188 20.4907 50.7214 20.1432C51.3663 21.485 51.9839 23.0319 52.4649 24.7895C52.7272 25.72 52.9185 26.6301 53.0661 27.5203C50.0983 28.7124 47.3164 30.2671 44.7586 32.1277C43.4141 31.1406 42.0368 29.995 40.6759 28.6526C37.5442 25.5615 35.4564 22.3912 34.0846 19.8522C35.604 18.1474 35.8718 15.7065 34.5984 14.0249C33.1391 12.1006 30.2151 11.8977 28.0672 13.571C25.9247 15.2448 25.3673 18.1607 26.8211 20.0845C28.1164 21.7843 30.543 22.138 32.5761 21.0428C34.5546 22.8424 37.1289 25.6807 39.1183 29.7611C40.031 31.6272 40.665 33.4418 41.1132 35.1339C40.7033 35.5164 40.2879 35.911 39.8889 36.3133C37.894 38.3435 36.1068 40.5916 34.5765 43.0242C33.6747 42.7609 32.7401 42.4422 31.7837 42.052C28.6738 40.7822 26.2636 39.1633 24.5146 37.7528C25.2579 35.5591 24.531 33.1924 22.6837 32.1659C20.5905 30.9992 17.8359 32.0058 16.5351 34.414C15.2289 36.8211 15.8738 39.7187 17.978 40.8848C19.8199 41.9101 22.17 41.255 23.5965 39.446C25.717 40.1898 28.3623 41.383 31.0895 43.3423C31.9039 43.9276 32.6472 44.5295 33.3413 45.1347C31.1825 49.0799 29.674 53.4401 28.958 58.0692C27.0943 58.2305 25.0831 58.3081 22.9242 58.2404C19.8417 58.1446 17.0598 57.7782 14.6277 57.3016C14.573 54.8806 12.9771 52.8543 10.8128 52.6237C8.42987 52.3699 6.27103 54.3784 5.98683 57.1092C5.70809 59.84 7.40784 62.2588 9.7853 62.5115C11.9059 62.7371 13.8406 61.1697 14.4473 58.8978C16.9395 58.9488 19.7378 59.1749 22.7711 59.7042C24.8753 60.0706 26.8156 60.5378 28.6137 61.0571C28.5263 62.1085 28.488 63.1716 28.488 64.2468C28.488 66.8002 28.723 69.2971 29.1821 71.7181C27.1162 73.1031 24.2741 74.6739 20.6506 75.7768C17.4752 76.744 14.6168 77.0732 12.3377 77.1441C11.5179 74.9914 9.48469 73.6485 7.42423 74.0514C5.07956 74.5115 3.58751 77.0693 4.10126 79.7652C4.61501 82.4616 6.9378 84.274 9.28247 83.8139C11.3156 83.416 12.6984 81.4501 12.7039 79.1832C15.0376 78.4139 17.7921 77.6917 20.9238 77.2217C24.5201 76.6819 27.7502 76.6043 30.472 76.724C31.5596 80.065 33.0899 83.2032 34.9755 86.0758C34.0846 86.7902 33.0954 87.4952 31.9749 88.1542C29.838 89.4168 27.7884 90.2022 26.0067 90.7099C24.8043 88.7595 22.5525 87.8439 20.6069 88.6409C18.3934 89.552 17.4151 92.3532 18.4316 94.8966C19.0711 96.4929 20.3445 97.6136 21.7546 97.9966C22.5853 98.226 23.4653 98.1983 24.2906 97.8596C24.5311 97.7588 24.766 97.6335 24.9792 97.4844C26.597 96.397 27.2856 94.1423 26.6024 91.9913C28.2858 91.1106 30.2534 90.2382 32.516 89.5188C33.9753 89.0577 35.3635 88.7207 36.6698 88.4702C37.8612 90.0331 39.1729 91.4997 40.5776 92.8531C40.7087 92.9823 40.8453 93.1114 40.9765 93.2317C40.0255 95.3844 38.5936 98.0004 36.4347 100.652C34.3196 103.249 32.1225 105.139 30.2697 106.474C28.4169 105.139 25.9848 105.167 24.4928 106.663C22.7875 108.368 22.9515 111.334 24.8589 113.289C26.7555 115.24 29.6849 115.442 31.3847 113.737C32.8658 112.257 32.9368 109.823 31.6798 107.933C33.1336 106.009 35.0301 103.841 37.4513 101.701C40.0583 99.4032 42.6271 97.7022 44.8679 96.4485C47.8302 98.5846 51.104 100.314 54.5964 101.551C54.4597 102.886 54.2247 104.324 53.8367 105.836C52.995 109.13 51.7379 111.77 50.5957 113.713C48.3494 113.257 46.1304 114.297 45.3707 116.288C44.5126 118.55 45.8626 121.186 48.3876 122.177C50.9072 123.169 53.6508 122.137 54.5198 119.872C55.2686 117.905 54.3504 115.655 52.432 114.454C52.9731 112.112 53.8312 109.343 55.1866 106.368C55.8534 104.917 56.5584 103.595 57.2799 102.39C59.9743 103.128 62.7781 103.579 65.6748 103.704C66.1448 106.002 66.5274 108.573 66.7132 111.383C66.9919 115.562 66.7679 119.263 66.3744 122.318C64.1773 122.75 62.5321 124.507 62.5321 126.607C62.5321 129.034 64.7238 131 67.4401 131C70.1455 131 72.3371 129.034 72.3371 126.607C72.3371 124.515 70.703 122.761 68.5168 122.322C68.1506 119.198 67.9538 115.506 68.1615 111.383C68.3036 108.601 68.6152 106.034 69.0087 103.712C72.0365 103.595 74.9715 103.124 77.7752 102.337C78.0157 102.756 78.2507 103.192 78.4803 103.64C80.0052 106.594 80.825 109.364 81.2677 111.58C79.3165 112.729 78.3218 114.962 79.0268 116.953C79.8248 119.239 82.5466 120.343 85.0989 119.424C87.6458 118.501 89.0668 115.901 88.2634 113.616C87.5529 111.588 85.3284 110.491 83.0548 110.911C82.0109 109.093 80.7976 106.348 80.3768 102.833C80.3221 102.398 80.2839 101.971 80.262 101.551C83.3828 100.455 86.3232 98.9598 89.0286 97.1297C90.772 98.5685 92.6084 100.286 94.4339 102.325C97.2431 105.461 99.2871 108.553 100.763 111.181C99.2653 112.882 99.0084 115.305 100.271 116.977C101.736 118.9 104.654 119.102 106.802 117.428C108.945 115.756 109.502 112.842 108.048 110.915C106.786 109.254 104.43 108.875 102.43 109.887C100.276 107.674 97.888 104.873 95.5871 101.431C94.1005 99.2054 92.8708 97.0455 91.8597 95.0175C92.9473 94.1268 93.9857 93.1796 94.9804 92.1759C96.5982 90.5314 98.0793 88.7456 99.391 86.8351C101.812 87.5207 104.605 88.5245 107.567 90.0315C110.426 91.4792 112.809 93.071 114.727 94.5541C114 96.7068 114.689 99.0363 116.492 100.076C118.569 101.282 121.34 100.322 122.685 97.94C124.029 95.554 123.428 92.6475 121.351 91.442C119.537 90.3906 117.181 90.9914 115.727 92.7567C113.585 91.9298 110.983 90.6766 108.289 88.7539C105.49 86.7586 103.375 84.6182 101.845 82.772C102.878 80.8055 103.752 78.7376 104.452 76.5849C105.611 76.6254 106.84 76.7301 108.108 76.9236C111.382 77.4235 114.109 78.3624 116.208 79.2974C116.028 81.5953 117.307 83.6992 119.334 84.2274C121.652 84.8321 124.078 83.1671 124.756 80.5073C125.428 77.8469 124.1 75.2026 121.777 74.5979C119.744 74.0653 117.618 75.2913 116.673 77.4068C114.448 77.2217 111.59 76.7257 108.469 75.5008C107.289 75.033 106.195 74.5131 105.201 73.9689C105.698 71.9741 106.048 69.9218 106.228 67.8178C108.245 67.6527 110.387 67.5479 112.645 67.5435C116.624 67.5318 120.242 67.8217 123.417 68.249C123.8 70.4621 125.478 72.147 127.527 72.2119C129.921 72.2801 131.927 70.1113 131.998 67.3667C132.074 64.622 130.2 62.3402 127.811 62.2715Z" fill="#128E5A"/>
</g>
<defs>
<filter id="filter0_d" x="0" y="147" width="323" height="332" filterUnits="userSpaceOnUse" color-interpolation-filters="sRGB">
<feFlood flood-opacity="0" result="BackgroundImageFix"/>
<feColorMatrix in="SourceAlpha" type="matrix" values="0 0 0 0 0 0 0 0 0 0 0 0 0 0 0 0 0 0 127 0"/>
<feOffset dy="4"/>
<feGaussianBlur stdDeviation="2"/>
<feColorMatrix type="matrix" values="0 0 0 0 0 0 0 0 0 0 0 0 0 0 0 0 0 0 0.07 0"/>
<feBlend mode="normal" in2="BackgroundImageFix" result="effect1_dropShadow"/>
<feBlend mode="normal" in="SourceGraphic" in2="effect1_dropShadow" result="shape"/>
</filter>
<filter id="filter1_d" x="0" y="0.000244141" width="136" height="139" filterUnits="userSpaceOnUse" color-interpolation-filters="sRGB">
<feFlood flood-opacity="0" result="BackgroundImageFix"/>
<feColorMatrix in="SourceAlpha" type="matrix" values="0 0 0 0 0 0 0 0 0 0 0 0 0 0 0 0 0 0 127 0"/>
<feOffset dy="4"/>
<feGaussianBlur stdDeviation="2"/>
<feColorMatrix type="matrix" values="0 0 0 0 0 0 0 0 0 0 0 0 0 0 0 0 0 0 0.07 0"/>
<feBlend mode="normal" in2="BackgroundImageFix" result="effect1_dropShadow"/>
<feBlend mode="normal" in="SourceGraphic" in2="effect1_dropShadow" result="shape"/>
</filter>
</defs>
</svg>
